<?xml version="1.0" encoding="utf-8"?>
<!-- Generator: Adobe Illustrator 25.0.0, SVG Export Plug-In . SVG Version: 6.00 Build 0)  -->
<svg version="1.1" id="Capa_1" xmlns="http://www.w3.org/2000/svg" xmlns:xlink="http://www.w3.org/1999/xlink" x="0px" y="0px"
	 viewBox="0 0 512 512" style="enable-background:new 0 0 512 512;" xml:space="preserve">
<style type="text/css">
	.st0{fill:none;}
	.st1{fill:#8D6AD9;}
	.st2{fill:#404040;}
	.st3{fill:none;stroke:#404040;stroke-width:0;stroke-linecap:round;stroke-linejoin:round;}
</style>
<g id="Layer_2">
</g>
<g>
	<path class="st0" d="M253.1,423.1c-0.1,0.3-0.1,0.6-0.2,0.8c0-0.1,0-0.1,0-0.2C253,423.5,253,423.2,253.1,423.1z"/>
	<path class="st0" d="M252.8,424.3C252.8,424.3,252.8,424.3,252.8,424.3c0-0.1,0-0.1,0-0.1C252.8,424.2,252.8,424.3,252.8,424.3z"/>
	<path class="st0" d="M252.8,424.1c0-0.1,0-0.1,0.1-0.2C252.9,424,252.8,424.1,252.8,424.1C252.8,424.2,252.8,424.2,252.8,424.1
		C252.8,424.1,252.8,424.1,252.8,424.1z"/>
	<path class="st0" d="M277.9,438.6c-6-8.6-15-14.1-24.8-15.7c0,0,0,0.1,0,0.1c0,0,0,0,0,0c0,0,0,0,0,0c0,0,0,0,0,0c0,0,0,0,0,0
		c0,0.1-0.1,0.3-0.2,0.7c0,0.1-0.1,0.3-0.1,0.4c0,0,0,0,0,0c0,0.1,0,0.1,0,0.2c-0.8,3.3-3.3,13.9-10.3,42.6c0,0,0,0,0,0
		c0,0,0.1,0,0.1,0.1h0C243.2,466.5,238.2,470.6,277.9,438.6z"/>
	<path class="st0" d="M260,375c2.2-3.5,6.8-4.5,10.4-2.3c3.5,2.2,4.5,6.8,2.3,10.4l-11.7,18.4c-1.4,2.2-2.7,4.6-3.7,7
		c3.9,0.8,7.6,2,11.1,3.6l139.8-220.7l-10.1-6.4L291.5,353.4c-2.2,3.5-6.9,4.5-10.4,2.3c-3.5-2.2-4.5-6.8-2.3-10.4l78.5-124.1V85.9
		H79V467h148.5c0-1.2,0.1-2.5,0.4-3.7l12.1-50.2c0,0,0,0,0,0c1.7-7,4.5-13.6,8.3-19.7L260,375z M228,132.9h92.7
		c4.1,0,7.5,3.4,7.5,7.5c0,4.1-3.4,7.5-7.5,7.5H228c-4.1,0-7.5-3.4-7.5-7.5C220.5,136.2,223.9,132.9,228,132.9z M220.5,171.7
		c0-4.1,3.4-7.5,7.5-7.5h46.4c4.1,0,7.5,3.4,7.5,7.5c0,4.1-3.4,7.5-7.5,7.5H228h0h0C223.9,179.2,220.5,175.9,220.5,171.7z
		 M198.2,425.7c0,10.5-8.6,19.1-19.1,19.1h-57.8c-4.9,0-9.3-1.9-12.7-4.9l-1.3-0.2l-5.7-3.5l-4.8-6.3l-1.8-8l0.4-61.9l1.9-5l5.9-6.6
		l3.6-2l7.2-1.4h28.9h20.2l12.8,0.4l4.4,1.5l3.2,2.4c8.4,2,14.6,9.6,14.6,18.5V425.7z M198.2,305.3c0,10.5-8.6,19.1-19.1,19.1h-57.8
		c-7.9,0-14.7-4.8-17.6-11.6l-2.1-1.3l-4.8-6.3l-1.8-8l0.4-61.9l1.9-5l5.9-6.6l3.6-2l7.2-1.4h28.9h20.2l12.8,0.4l4.4,1.5l5.7,4.3
		l3.1,4.8c5.4,3.4,8.9,9.3,8.9,16.1V305.3z M198.2,184.9c0,10.5-8.6,19.1-19.1,19.1h-57.8c-6.4,0-12-3.2-15.5-8l-4.2-2.6l-4.8-6.3
		l-1.8-8l0.4-61.9l1.9-5l5.9-6.6l3.6-2l7.2-1.4h28.9h20.2l12.8,0.4l4.4,1.5l5.7,4.3l0.7,1.1c6.7,3,11.3,9.7,11.3,17.4V184.9z
		 M228,253.3h62.2c4.1,0,7.5,3.4,7.5,7.5c0,4.1-3.4,7.5-7.5,7.5H228c-4.1,0-7.5-3.4-7.5-7.5C220.5,256.6,223.9,253.3,228,253.3z
		 M228,299.6c-4.1,0-7.5-3.4-7.5-7.5c0-4.1,3.4-7.5,7.5-7.5h46.4c4.1,0,7.5,3.4,7.5,7.5c0,4.1-3.4,7.5-7.5,7.5H228z"/>
	<path class="st0" d="M289.5,48.9c0-0.1,0-0.2,0-0.3c0,0,0-0.1,0-0.1c-0.1-2.9-2.5-5.2-5.4-5.2h-21.5c-7.1,0-12.9-5.8-12.9-12.9
		v-9.7c0-3.1-2.5-5.7-5.7-5.7h-51.6c-3.1,0-5.7,2.5-5.7,5.7v9.7c0,7.1-5.8,12.9-12.9,12.9h-21.5c-2.9,0-5.3,2.3-5.4,5.2
		c0,0,0,0.1,0,0.1c0,0.1,0,0.2,0,0.3v22h142.7V48.9z"/>
	
		<rect x="419.5" y="157.5" transform="matrix(0.535 -0.8448 0.8448 0.535 48.6838 442.2966)" class="st0" width="13.3" height="38.9"/>
	<path class="st0" d="M292.3,446.2L266.6,467h90.8V350.1l-50.8,80.2C302.7,436.4,297.9,441.7,292.3,446.2z"/>
	<path class="st0" d="M281.2,420c2.9,2.5,5.6,5.4,8,8.5c1.7-2,3.3-4.1,4.8-6.3L431,205.6l-10-6.3L281.2,420z"/>
	<path class="st0" d="M457.2,141l-11.9-7.5c-2.8-1.8-6.1-2.3-9.3-1.6v0c-3.2,0.7-6,2.7-7.8,5.5l-6.9,10.9l32.8,20.8l6.9-10.9
		C464.7,152.3,463,144.6,457.2,141z"/>
	<path class="st0" d="M252.7,424.5c0,0.1-0.1,0.2-0.1,0.3C252.7,424.7,252.7,424.6,252.7,424.5z"/>
	<path class="st1" d="M121.3,189h57.8c2.3,0,4.1-1.8,4.1-4.1v-57.8c0-2.3-1.8-4.1-4.1-4.1h-57.8c-2.3,0-4.1,1.8-4.1,4.1v57.8
		C117.2,187.2,119,189,121.3,189z M129.8,149.9c3.3-2.4,8-1.7,10.5,1.6l5.1,7l14.8-20.2c2.5-3.3,7.2-4.1,10.5-1.6
		c3.3,2.5,4,7.2,1.6,10.5l-18.6,25.2c-2,2.7-5.1,4.2-8.4,4.2h0c-3.3,0-6.5-1.6-8.4-4.3l-8.8-12C125.7,157.1,126.4,152.4,129.8,149.9
		z"/>
	<path class="st1" d="M102.2,127.1c0-10.5,8.6-19.1,19.1-19.1h57.8c2.8,0,5.4,0.6,7.8,1.7l-0.7-1.1l-5.7-4.3l-4.4-1.5l-12.8-0.4
		h-20.2h-28.9l-7.2,1.4l-3.6,2l-5.9,6.6l-1.9,5l-0.4,61.9l1.8,8l4.8,6.3l4.2,2.6c-2.3-3.1-3.6-7-3.6-11.1V127.1z"/>
	<path class="st1" d="M121.3,309.4h57.8c2.3,0,4.1-1.8,4.1-4.1v-57.8c0-2.3-1.8-4.1-4.1-4.1h-57.8c-2.3,0-4.1,1.8-4.1,4.1v57.8
		C117.2,307.6,119,309.4,121.3,309.4z M129.8,273c3.4-2.4,8-1.7,10.5,1.7l5.1,7l14.8-20.2c2.5-3.3,7.2-4.1,10.5-1.6
		c3.3,2.5,4,7.2,1.6,10.5l-18.6,25.2c-2,2.7-5.1,4.2-8.4,4.2c0,0,0,0,0,0c-3.3,0-6.5-1.6-8.4-4.3l-8.8-12
		C125.7,280.1,126.4,275.4,129.8,273z"/>
	<path class="st1" d="M102.2,247.5c0-10.5,8.6-19.1,19.1-19.1h57.8c3.7,0,7.2,1.1,10.2,3l-3.1-4.8l-5.7-4.3l-4.4-1.5l-12.8-0.4
		h-20.2h-28.9l-7.2,1.4l-3.6,2l-5.9,6.6l-1.9,5l-0.4,61.9l1.8,8l4.8,6.3l2.1,1.3c-1-2.3-1.5-4.8-1.5-7.5V247.5z"/>
	<path class="st1" d="M102.2,425.7V368c0-10.5,8.6-19.1,19.1-19.1h57.8c1.6,0,3.1,0.2,4.5,0.6l-3.2-2.4l-4.4-1.5l-12.8-0.4h-20.2
		h-28.9l-7.2,1.4l-3.6,2l-5.9,6.6l-1.9,5l-0.4,61.9l1.8,8l4.8,6.3l5.7,3.5l1.3,0.2C104.7,436.5,102.2,431.4,102.2,425.7z"/>
	<path class="st1" d="M121.3,429.8h57.8c2.3,0,4.1-1.8,4.1-4.1V368c0-2.3-1.8-4.1-4.1-4.1h-57.8c-2.3,0-4.1,1.8-4.1,4.1v57.8
		C117.2,428,119,429.8,121.3,429.8z M129.8,390.8c3.4-2.4,8-1.7,10.5,1.7l5.1,7l14.8-20.2c2.5-3.3,7.2-4.1,10.5-1.6
		c3.3,2.5,4,7.2,1.6,10.5l-18.6,25.2c-2,2.7-5.1,4.2-8.4,4.2c0,0,0,0,0,0c-3.3,0-6.5-1.6-8.4-4.3l-8.8-12
		C125.7,397.9,126.4,393.2,129.8,390.8z"/>
	<path class="st2" d="M136.9,172.4c2,2.7,5.1,4.3,8.4,4.3h0c3.3,0,6.4-1.6,8.4-4.2l18.6-25.2c2.5-3.3,1.7-8-1.6-10.5
		c-3.3-2.5-8-1.7-10.5,1.6l-14.8,20.2l-5.1-7c-2.4-3.3-7.1-4.1-10.5-1.6c-3.3,2.4-4.1,7.1-1.6,10.5L136.9,172.4z"/>
	<path class="st2" d="M136.9,295.5c1.9,2.7,5.1,4.3,8.4,4.3c0,0,0,0,0,0c3.3,0,6.4-1.6,8.4-4.2l18.6-25.2c2.5-3.3,1.7-8-1.6-10.5
		c-3.3-2.5-8-1.7-10.5,1.6l-14.8,20.2l-5.1-7c-2.4-3.3-7.1-4.1-10.5-1.7c-3.3,2.4-4.1,7.1-1.6,10.5L136.9,295.5z"/>
	<path class="st2" d="M136.9,413.3c1.9,2.7,5.1,4.3,8.4,4.3c0,0,0,0,0,0c3.3,0,6.4-1.6,8.4-4.2l18.6-25.2c2.5-3.3,1.7-8-1.6-10.5
		c-3.3-2.5-8-1.7-10.5,1.6l-14.8,20.2l-5.1-7c-2.4-3.3-7.1-4.1-10.5-1.7c-3.3,2.4-4.1,7.1-1.6,10.5L136.9,413.3z"/>
	<path class="st2" d="M228,147.9h92.7c4.1,0,7.5-3.4,7.5-7.5c0-4.1-3.4-7.5-7.5-7.5H228c-4.1,0-7.5,3.4-7.5,7.5
		C220.5,144.5,223.9,147.9,228,147.9z"/>
	<line class="st3" x1="228" y1="179.2" x2="228" y2="179.2"/>
	<path class="st2" d="M281.9,171.7c0-4.1-3.4-7.5-7.5-7.5H228c-4.1,0-7.5,3.4-7.5,7.5c0,4.1,3.4,7.5,7.5,7.5h46.4
		C278.5,179.2,281.9,175.9,281.9,171.7z"/>
	<path class="st2" d="M228,268.3h62.2c4.1,0,7.5-3.4,7.5-7.5c0-4.1-3.4-7.5-7.5-7.5H228c-4.1,0-7.5,3.4-7.5,7.5
		C220.5,264.9,223.9,268.3,228,268.3z"/>
	<path class="st2" d="M281.9,292.1c0-4.1-3.4-7.5-7.5-7.5H228c-4.1,0-7.5,3.4-7.5,7.5c0,4.1,3.4,7.5,7.5,7.5h46.4
		C278.5,299.6,281.9,296.3,281.9,292.1z"/>
	<path class="st2" d="M186.9,109.7c-2.4-1.1-5-1.7-7.8-1.7h-57.8c-10.5,0-19.1,8.6-19.1,19.1v57.8c0,4.2,1.3,8,3.6,11.1
		c3.5,4.8,9.1,8,15.5,8h57.8c10.5,0,19.1-8.6,19.1-19.1v-57.8C198.2,119.4,193.5,112.7,186.9,109.7z M117.2,127.1
		c0-2.3,1.8-4.1,4.1-4.1h57.8c2.3,0,4.1,1.8,4.1,4.1v57.8c0,2.3-1.8,4.1-4.1,4.1h-57.8c-2.3,0-4.1-1.8-4.1-4.1V127.1z"/>
	<path class="st2" d="M189.2,231.4c-2.9-1.9-6.4-3-10.2-3h-57.8c-10.5,0-19.1,8.6-19.1,19.1v57.8c0,2.7,0.5,5.2,1.5,7.5
		c2.9,6.8,9.7,11.6,17.6,11.6h57.8c10.5,0,19.1-8.6,19.1-19.1v-57.8C198.2,240.8,194.6,234.8,189.2,231.4z M117.2,247.5
		c0-2.3,1.8-4.1,4.1-4.1h57.8c2.3,0,4.1,1.8,4.1,4.1v57.8c0,2.3-1.8,4.1-4.1,4.1h-57.8c-2.3,0-4.1-1.8-4.1-4.1V247.5z"/>
	<path class="st2" d="M183.6,349.4c-1.4-0.4-3-0.6-4.5-0.6h-57.8c-10.5,0-19.1,8.6-19.1,19.1v57.8c0,5.7,2.5,10.7,6.4,14.2
		c3.4,3,7.8,4.9,12.7,4.9h57.8c10.5,0,19.1-8.6,19.1-19.1V368C198.2,359,192,351.4,183.6,349.4z M117.2,368c0-2.3,1.8-4.1,4.1-4.1
		h57.8c2.3,0,4.1,1.8,4.1,4.1v57.8c0,2.3-1.8,4.1-4.1,4.1h-57.8c-2.3,0-4.1-1.8-4.1-4.1V368z"/>
	<path class="st2" d="M252.8,424.1C252.8,424.1,252.8,424.1,252.8,424.1C252.8,424.1,252.8,424.1,252.8,424.1z"/>
	<path class="st2" d="M252.8,424.2C252.8,424.2,252.8,424.3,252.8,424.2C252.8,424.2,252.8,424.2,252.8,424.2
		C252.8,424.2,252.8,424.2,252.8,424.2z"/>
	<path class="st2" d="M465.3,128.3l-11.9-7.5c-6.2-3.9-13.5-5.2-20.7-3.6c-7.1,1.6-13.2,5.9-17.1,12.1l-10.9,17.3l-15.2,24
		l-17.1,27.1V85c0-7.8-6.3-14.1-14.1-14.1h-53.8v-15h72c6,0,10.9,4.9,10.9,10.9v65c0,4.1,3.4,7.5,7.5,7.5s7.5-3.4,7.5-7.5v-65
		c0-14.3-11.6-25.9-25.9-25.9H303c-3.1-7.4-10.4-12.7-18.9-12.7h-19.4v-7.6C264.7,9.3,255.4,0,244,0h-51.6
		c-11.4,0-20.7,9.3-20.7,20.7v7.6h-19.4c-8.5,0-15.8,5.2-18.9,12.7H59.9C45.6,40.9,34,52.5,34,66.8v419.4
		c0,14.3,11.6,25.9,25.9,25.9h316.6c14.3,0,25.9-11.6,25.9-25.9V317.9c0-4.1-3.4-7.5-7.5-7.5s-7.5,3.4-7.5,7.5v168.2
		c0,6-4.9,10.9-10.9,10.9H59.9c-6,0-10.9-4.9-10.9-10.9V66.8c0-6,4.9-10.9,10.9-10.9h72v15H78.1C70.3,70.9,64,77.2,64,85v383
		c0,7.8,6.3,14.1,14.1,14.1h280.2c7.8,0,14.1-6.3,14.1-14.1V326.4l75.3-119c0,0,0,0,0,0l15.2-23.9l10.9-17.3
		C481.8,153.3,478,136.4,465.3,128.3z M146.9,48.9c0-0.1,0-0.2,0-0.3c0,0,0-0.1,0-0.1c0.1-2.9,2.5-5.2,5.4-5.2h21.5
		c7.1,0,12.9-5.8,12.9-12.9v-9.7c0-3.1,2.5-5.7,5.7-5.7H244c3.1,0,5.7,2.5,5.7,5.7v9.7c0,7.1,5.8,12.9,12.9,12.9h21.5
		c2.9,0,5.3,2.3,5.4,5.2c0,0,0,0.1,0,0.1c0,0.1,0,0.2,0,0.3v22H146.9V48.9z M240,413.1L228,463.3c-0.3,1.2-0.4,2.5-0.4,3.7H79V85.9
		h278.3v135.4l-78.5,124.1c-2.2,3.5-1.2,8.1,2.3,10.4c3.5,2.2,8.1,1.2,10.4-2.3l106.7-168.5l10.1,6.4L268.5,412
		c-3.5-1.6-7.3-2.8-11.1-3.6c1-2.4,2.3-4.8,3.7-7l11.7-18.4c2.2-3.5,1.2-8.1-2.3-10.4c-3.5-2.2-8.1-1.2-10.4,2.3l-11.7,18.4
		C244.5,399.5,241.7,406.1,240,413.1C240,413.1,240,413.1,240,413.1z M242.7,467L242.7,467c-0.1,0-0.1-0.1-0.1-0.1c0,0,0,0,0,0
		c6.9-28.8,9.5-39.3,10.3-42.6c0,0,0,0,0,0c0,0,0-0.1,0-0.1c0-0.1,0.1-0.2,0.1-0.3c0.1-0.2,0.1-0.5,0.2-0.8c0,0.1-0.1,0.4-0.1,0.6
		c0.1-0.4,0.2-0.7,0.2-0.7c0,0,0,0,0,0c0,0,0,0,0-0.1c9.7,1.6,18.8,7.1,24.8,15.7C238.2,470.6,243.2,466.5,242.7,467z M252.7,424.7
		c0,0,0-0.1,0.1-0.3C252.7,424.6,252.7,424.7,252.7,424.7z M357.3,467h-90.8l25.7-20.7c5.6-4.5,10.4-9.9,14.3-16l50.8-80.2V467z
		 M293.9,422.2c-1.4,2.2-3,4.4-4.8,6.3c-2.4-3.2-5-6-8-8.5L421,199.3l10,6.3L293.9,422.2z M439,193l-32.8-20.8l7.1-11.3l32.8,20.8
		L439,193z M461.1,158.1l-6.9,10.9l-32.8-20.8l6.9-10.9c1.8-2.8,4.5-4.7,7.8-5.5v0c3.2-0.7,6.5-0.2,9.3,1.6l11.9,7.5
		C463,144.6,464.7,152.3,461.1,158.1z"/>
	<path class="st2" d="M253.1,423C253.1,422.9,253.1,422.9,253.1,423C253.1,422.9,253.1,422.9,253.1,423z"/>
	<path class="st2" d="M253.1,422.9C253.1,422.9,253.1,422.9,253.1,422.9L253.1,422.9z"/>
	<path class="st2" d="M252.9,423.7c0,0.1,0,0.1,0,0.2c0,0.1,0,0.2-0.1,0.2C252.9,424,252.9,423.8,252.9,423.7z"/>
</g>
</svg>
