<?xml version="1.0" encoding="utf-8"?>
<!-- Generator: Adobe Illustrator 25.0.0, SVG Export Plug-In . SVG Version: 6.00 Build 0)  -->
<svg version="1.1" id="Capa_1" xmlns="http://www.w3.org/2000/svg" xmlns:xlink="http://www.w3.org/1999/xlink" x="0px" y="0px"
	 viewBox="0 0 300 550" style="enable-background:new 0 0 300 550;" xml:space="preserve">
<style type="text/css">
	.st0{fill:none;}
	.st1{fill:#8D6AD9;}
	.st2{fill:#404040;}
</style>
<g>
	<path class="st0" d="M253,125.1c-14.1,13-28.3,26-42.4,39l-4.5,6.6l0.7,7.6c3.8,19.4,7.7,38.7,11.5,58.1c-0.9,2.8-1.8,5.7-2.7,8.5
		c1.4-0.6,2.9-1.1,4.4-1.5l-8.8-51.2c-1.3-7.3,1.2-14.8,6.5-19.9l42.1-41c2.1-2,2.8-4.9,1.9-7.7c-0.7-2-2-3.5-3.8-4.4
		C256.3,121.8,254.5,123.7,253,125.1z"/>
	<path class="st0" d="M95.5,243.7c-2.2,1.2-4.4,2.6-6.8,4.2c-3.1,2.1-5.7,4.3-8,6.3c-0.8,0.7-2.2,1.8-4.1,2.7
		c0.2,0.2,0.5,0.4,0.7,0.6c2.4,1.7,5.3,1.9,7.9,0.6l33.4-17.6l0.1-17c-1.6,1.4-3.2,2.8-4.8,4.1C112.6,228.9,96.7,242.7,95.5,243.7z"
		/>
	<polygon class="st0" points="122,522.8 260.3,522.8 260.4,522.8 260.4,483.1 122,483 	"/>
	<path class="st1" d="M155.1,170.1c-2.5-2.4-5.7-3.6-9.2-3.5c-6.7,0.2-12.1,6.1-12.1,13l-0.1,31c1.3-1.1,2.6-2.2,3.9-3.3
		c7.1,6,14.2,11.9,21.3,17.9l0-46C158.9,175.7,157.5,172.5,155.1,170.1z"/>
	<path class="st1" d="M59.5,247.7l9.9-57.9c0.4-2.4-0.4-4.9-2.2-6.7l-5.9-5.8c-3.3,17.5-6.7,34.9-10,52.4c-0.4,4.7-0.7,9.3-1.1,14
		l1.4,5.6c1.4,2.1,2.8,4.2,4.2,6.3c1.3,0.5,2.7,0.9,4,1.4C59.1,254,59,250.8,59.5,247.7z"/>
	<path class="st1" d="M199.6,95.2l58.2,8.5c0.6,0.1,1.2,0.2,1.7,0.3c-0.5-1.1-1.4-2.6-2.8-3.9c-2.9-2.8-6.3-3.5-7.7-3.7
		c-5.1-0.7-26.4-4.2-56.5-8.2l1.5,3C195,93.3,197.1,94.9,199.6,95.2z"/>
	<path class="st1" d="M186.9,242.7c-2.4-0.1-4.8,0.5-6.9,1.8c2,1.9,3.9,3.7,5.9,5.6c3.9,2.2,7.9,4.4,11.8,6.6
		c0.3,0.1,0.7,0.1,1.2,0.2l0-1.1C199,248.7,193.6,242.9,186.9,242.7z"/>
	<path class="st1" d="M19.5,119c2.7-8.2,9.6-14.1,18.2-15.3l58.2-8.5c2.5-0.4,4.6-1.9,5.7-4.1l3.7-7.5c1.8-3.7,6.3-5.2,10-3.4
		c3.7,1.8,5.2,6.3,3.4,10l-3.7,7.5c-3.3,6.6-9.6,11.3-17,12.3l-58.2,8.5c-2.9,0.4-5.2,2.3-6.1,5.1c-0.9,2.8-0.2,5.7,1.9,7.7l42.1,41
		c5.3,5.2,7.7,12.6,6.5,19.9l-9.9,57.9c-0.4,2.6,0.4,5,2.2,6.7c1.9-0.9,3.2-2,4.1-2.7c2.3-2,5-4.2,8-6.3c2.4-1.6,4.7-3,6.8-4.2
		c1.3-1.1,17.2-14.9,18.4-16c1.6-1.4,3.2-2.8,4.8-4.1l0.1-44c0-15.2,11.7-27.5,26.6-28c7.6-0.3,14.7,2.5,20.1,7.7
		c5.4,5.2,8.4,12.3,8.4,19.8v51.5c4.1-2.1,8.8-3.2,13.5-3c11.5,0.4,21.3,8.3,25,18.9c1-0.6,2.1-1.1,3.1-1.6c0.9-2.8,1.8-5.7,2.7-8.5
		c-3.8-19.4-7.7-38.7-11.5-58.1l-0.7-7.6l4.5-6.6c14.1-13,28.3-26,42.4-39c1.5-1.4,3.2-3.3,4.8-5.9c-0.7-0.3-1.5-0.6-2.3-0.7
		l-58.2-8.5c-7.3-1.1-13.7-5.7-17-12.3l-26-52.7c-1.3-2.6-3.8-4.2-6.7-4.2s-5.5,1.6-6.7,4.2L134.1,59c-1.8,3.7-6.3,5.2-10,3.4
		c-3.7-1.8-5.2-6.3-3.4-10l6.9-13.9c3.8-7.7,11.6-12.6,20.2-12.6c2.2,0,4.4,0.3,6.5,1c-1-2.6-2-5.2-3-7.8c-0.8-1-5-6.1-12.4-6.8
		c-8.8-0.8-14.6,5.4-15.2,6.1c-3.7,7.1-7.5,14.3-11.2,21.4L94,74.5c-2.4,3.4-4.8,6.8-7.2,10.2c-1,1.2-2.9,3.1-5.9,4.5
		c-3.6,1.7-6.8,1.7-8.4,1.6c-22.1,0.6-38.6,2.6-45.6,3.1c-3.3,0.2-7,1.4-11.1,3.5c-2.8,1.4-4.9,3-6.3,4.2c-1.1,1.3-2.8,3.8-3.5,7.3
		c-1.2,6.4,1.9,11.4,2.7,12.6c3.7,3.6,7.1,6.8,10.2,9.5C18.1,127.1,18.2,123,19.5,119z"/>
	<path class="st2" d="M286.7,349.1L286.7,349.1c4.1,0,7.5-3.4,7.5-7.5v-50.3c0-15.2-11.7-27.5-26.6-28c-4.9-0.2-9.7,0.9-13.9,3.2
		c-1.6-10.5-8.8-19-18.5-22.3l-9.3-54.4c-0.4-2.4,0.4-4.9,2.2-6.7l42.1-41c6.2-6,8.4-14.9,5.7-23.1c-2.5-7.7-8.7-13.3-16.5-15
		c-0.6-0.1-1.1-0.2-1.7-0.3l-58.2-8.5c-2.5-0.4-4.6-1.9-5.7-4.1l-1.5-3l-24.5-49.7c-2.8-5.7-7.8-9.8-13.7-11.6c-2.1-0.6-4.3-1-6.5-1
		c-8.6,0-16.4,4.8-20.2,12.6l-6.9,13.9c-1.8,3.7-0.3,8.2,3.4,10c3.7,1.8,8.2,0.3,10-3.4L141,45c1.3-2.6,3.8-4.2,6.7-4.2
		s5.5,1.6,6.7,4.2l26,52.7c3.3,6.6,9.6,11.3,17,12.3l58.2,8.5c0.8,0.1,1.6,0.4,2.3,0.7c1.8,0.9,3.2,2.4,3.8,4.4
		c0.9,2.8,0.2,5.7-1.9,7.7l-42.1,41c-5.3,5.2-7.7,12.6-6.5,19.9l8.8,51.2c-1.5,0.4-3,0.9-4.4,1.5c-1.1,0.5-2.1,1-3.1,1.6
		c-3.7-10.6-13.5-18.5-25-18.9c-4.8-0.2-9.4,0.9-13.5,3v-51.5c0-7.5-3-14.6-8.4-19.8c-5.4-5.2-12.6-8-20.1-7.7
		c-14.9,0.5-26.6,12.8-26.6,28l-0.1,44l-0.1,17l-33.4,17.6c-2.6,1.4-5.6,1.1-7.9-0.6c-0.3-0.2-0.5-0.4-0.7-0.6
		c-1.8-1.7-2.7-4.2-2.2-6.7l9.9-57.9c1.3-7.3-1.2-14.8-6.5-19.9l-42.1-41c-2.1-2-2.8-4.9-1.9-7.7c0.9-2.8,3.2-4.7,6.1-5.1l58.2-8.5
		c7.3-1.1,13.7-5.7,17-12.3l3.7-7.5c1.8-3.7,0.3-8.2-3.4-10c-3.7-1.8-8.2-0.3-10,3.4l-3.7,7.5c-1.1,2.2-3.2,3.8-5.7,4.1l-58.2,8.5
		c-8.5,1.2-15.5,7.1-18.2,15.3c-1.3,4-1.4,8.1-0.6,12c0.9,4.1,3.1,8,6.3,11.1l36.2,35.3l5.9,5.8c1.8,1.7,2.6,4.2,2.2,6.7l-9.9,57.9
		c-0.5,3.2-0.4,6.3,0.3,9.3c1.2,5,4.2,9.6,8.6,12.8c3.9,2.9,8.6,4.3,13.2,4.3c3.6,0,7.2-0.9,10.5-2.6l26.4-13.9l-0.2,66.1l-4.3-13.1
		c-0.1-0.2-0.1-0.4-0.2-0.6c-5.1-12-16.7-19.8-29.8-19.8c-4.7,0-9.3,2-12.6,5.4c-3.3,3.4-5,8.1-4.8,12.8l2.5,55.3
		c0.8,17.7,7.8,34.6,19.8,47.7l28.5,31c0.1,0.1,0.2,0.2,0.3,0.3c3.8,3.6,5.9,8.7,5.9,14V468H122c-8.3,0-15,6.7-15,15v39.8
		c0,8.3,6.7,15,15,15h138.3c8.3,0,15-6.7,15-15v-39.8c0-8.3-6.7-15-15-15h-1.9v-5.8c0-12.2,3.7-24,10.8-34l11.4-16.2
		c7.2-10.3,11.8-22.3,13.1-34.8c0.4-4.1-2.5-7.8-6.7-8.3c-4.1-0.4-7.8,2.5-8.3,6.7c-1.1,10-4.7,19.6-10.4,27.8L257,419.6
		c-8.8,12.6-13.5,27.3-13.5,42.7v5.8H138.8v-11.4c0-9.2-3.8-18.2-10.3-24.6l-28.3-30.8c-9.6-10.4-15.2-24-15.9-38.2l-2.5-55.3
		c0-0.9,0.4-1.5,0.7-1.8c0.3-0.3,0.8-0.7,1.7-0.7c6.9,0,13.1,4,15.8,10.3l4.2,12.8c2.3,7.1,9.7,11.5,17.1,10
		c7-1.4,12.1-7.5,12.2-14.7l0.4-113.1l0.1-31c0-6.9,5.4-12.8,12.1-13c3.5-0.1,6.7,1.1,9.2,3.5c2.5,2.4,3.8,5.6,3.8,9l0,46l0,100.1
		c0,4.1,3.4,7.5,7.5,7.5c4.1,0,7.5-3.4,7.5-7.5v-70.7c0.2-3.2,1.5-6.1,3.8-8.4c0.7-0.7,1.5-1.3,2.3-1.8c2.1-1.2,4.4-1.8,6.9-1.8
		c6.7,0.2,12.1,6.1,12.1,13l0,1.1l0,68.5c0,4.1,3.4,7.5,7.5,7.5c4.1,0,7.5-3.4,7.5-7.5v-55.4c0.1-3.3,1.4-6.4,3.8-8.7
		c2.5-2.4,5.7-3.6,9.2-3.5c6.7,0.2,12.1,6.1,12.1,13l-0.1,54.5c0,4.1,3.4,7.5,7.5,7.5c4.1,0,7.5-3.4,7.5-7.5l0.1-34.5
		c0-3.4,1.4-6.6,3.8-9c2.5-2.4,5.7-3.6,9.2-3.5c6.7,0.2,12.1,6.1,12.1,13v50.3C279.2,345.7,282.6,349.1,286.7,349.1z M260.4,483.1
		v39.8l0,0l-138.4,0l0-39.8L260.4,483.1z"/>
</g>
</svg>
