<svg id="Capa_1" enable-background="new 0 0 511.966 511.966" height="512" viewBox="0 0 511.966 511.966" width="512" xmlns="http://www.w3.org/2000/svg"><g><g><path d="m386.376 323.233c4.143 0 7.5-3.358 7.5-7.5v-50.34c0-15.177-11.661-27.48-26.549-28.01-4.903-.172-9.656.922-13.865 3.154-1.574-10.474-8.787-18.992-18.466-22.254l-9.326-54.375c-.418-2.44.391-4.93 2.164-6.659l42.08-41.017c6.184-6.028 8.367-14.875 5.699-23.088-2.669-8.213-9.636-14.087-18.183-15.329l-58.152-8.45c-2.45-.356-4.568-1.895-5.664-4.115l-26.007-52.695c-3.822-7.744-11.56-12.555-20.196-12.555s-16.375 4.811-20.197 12.555l-6.879 13.939c-1.833 3.714-.308 8.211 3.406 10.045 3.713 1.833 8.211.308 10.045-3.406l6.879-13.939c1.296-2.626 3.817-4.193 6.746-4.193s5.45 1.567 6.746 4.193l26.007 52.696c3.282 6.648 9.622 11.254 16.959 12.32l58.152 8.45c2.897.421 5.168 2.335 6.072 5.12.905 2.785.193 5.668-1.903 7.712l-42.08 41.018c-5.31 5.176-7.73 12.628-6.477 19.936l8.779 51.183c-2.643.644-5.171 1.669-7.512 3.068-3.668-10.603-13.495-18.467-25.013-18.876-4.779-.175-9.416.868-13.545 2.987v-51.51c0-7.544-2.99-14.583-8.419-19.823-5.427-5.237-12.572-7.981-20.125-7.705-14.887.529-26.549 12.833-26.549 27.985l-.185 60.979-33.402 17.56c-2.591 1.361-5.553 1.148-7.922-.573s-3.488-4.472-2.993-7.357l9.934-57.918c1.253-7.308-1.169-14.76-6.478-19.935l-42.079-41.017c-2.097-2.044-2.809-4.927-1.904-7.712s3.175-4.699 6.073-5.12l58.152-8.45c7.337-1.066 13.677-5.672 16.958-12.321l3.706-7.51c1.833-3.714.308-8.211-3.407-10.044-3.713-1.833-8.211-.307-10.044 3.407l-3.706 7.51c-1.096 2.22-3.213 3.758-5.664 4.115l-58.152 8.45c-8.546 1.242-15.513 7.115-18.182 15.329-2.669 8.213-.485 17.06 5.699 23.088l42.08 41.017c1.773 1.729 2.582 4.218 2.164 6.659l-9.934 57.918c-1.459 8.512 1.974 16.953 8.961 22.029 3.948 2.868 8.566 4.325 13.216 4.325 3.58 0 7.178-.864 10.502-2.611l26.37-13.863-.2 66.05-4.294-13.08c-.064-.194-.136-.386-.215-.574-5.059-11.999-16.741-19.751-29.761-19.751-4.728 0-9.313 1.96-12.579 5.377-3.267 3.417-5.019 8.086-4.805 12.81l2.498 55.304c.799 17.69 7.837 34.614 19.817 47.655l28.47 30.989c.103.112.209.221.318.326 3.77 3.633 5.931 8.719 5.931 13.954v11.381h-1.757c-8.287 0-15.029 6.742-15.029 15.029v39.761c0 8.287 6.742 15.029 15.029 15.029h138.337c8.287 0 15.029-6.742 15.029-15.029v-39.761c0-8.287-6.742-15.029-15.029-15.029h-1.868v-5.797c0-12.243 3.727-24.005 10.775-34.015l11.431-16.231c7.239-10.279 11.769-22.322 13.098-34.825.438-4.119-2.546-7.813-6.665-8.251-4.124-.439-7.813 2.547-8.251 6.665-1.06 9.972-4.672 19.576-10.445 27.774l-11.431 16.231c-8.84 12.551-13.512 27.3-13.512 42.652v5.797h-104.711v-11.381c0-9.207-3.769-18.153-10.348-24.585l-28.326-30.832c-9.599-10.448-15.238-24.009-15.879-38.183l-2.498-55.304c-.04-.893.398-1.491.664-1.769s.843-.742 1.736-.742c6.88 0 13.063 4.042 15.829 10.321l4.189 12.762c2.345 7.146 9.683 11.459 17.068 10.042 7.02-1.35 12.131-7.519 12.155-14.667l.465-144.032c0-6.942 5.42-12.782 12.082-13.019 3.455-.115 6.704 1.124 9.175 3.508 2.473 2.387 3.835 5.594 3.835 9.03l.032 146.1c0 4.142 3.357 7.5 7.5 7.5s7.5-3.358 7.5-7.5v-70.698c.161-3.188 1.487-6.145 3.804-8.38 2.472-2.385 5.751-3.626 9.176-3.509 6.662.237 12.082 6.077 12.082 13.019l.018 69.567c0 4.142 3.357 7.5 7.5 7.5s7.5-3.358 7.5-7.5v-55.365c.091-3.3 1.431-6.371 3.818-8.675 2.472-2.385 5.726-3.624 9.175-3.509 6.662.237 12.083 6.078 12.083 13.019l-.07 54.53c0 4.142 3.357 7.5 7.5 7.5s7.5-3.358 7.5-7.5l.069-34.483c0-3.436 1.362-6.643 3.836-9.03 2.472-2.385 5.726-3.622 9.176-3.509 6.662.237 12.082 6.078 12.082 13.02v50.34c.001 4.138 3.358 7.496 7.501 7.496zm-26.32 133.943v39.761l-.029.029-138.366-.029.029-39.79z"/></g></g></svg>