<svg id="Capa_1" enable-background="new 0 0 512 512" height="512" viewBox="0 0 512 512" width="512" xmlns="http://www.w3.org/2000/svg"><g><g><g><path d="m479.448 385.509c-9.002-13.229-24.248-16.473-40.8-8.688l-115.399 50.812.004-.353c.003-.279-.009-.559-.036-.836-2.019-20.3-17.536-36.474-37.735-39.331-.064-.01-.128-.018-.193-.025l-76.726-8.834c-16.206-2.31-24.183-7.73-39.197-16.518-22.219-12.998-47.57-19.868-73.312-19.868h-4.784v-7.764c0-11.428-9.297-20.726-20.726-20.726h-22.463c-11.428 0-20.725 9.298-20.725 20.726v143.461c0 11.428 9.297 20.726 20.725 20.726h22.464c11.02 0 20.033-8.652 20.664-19.516l75.103 27.955c9.398 3.497 19.247 5.27 29.271 5.27h103.487c15.864 0 31.333-4.47 44.749-12.928l129.412-73.011c9.061-5.117 16.996-24.71 6.217-40.552zm-14.355 27.921-128.809 72.671c-.112.063-.221.129-.33.197-11.047 7.001-23.802 10.702-36.884 10.702h-103.487c-8.232 0-16.321-1.456-24.039-4.329l-80.274-29.879v-54.414c0-4.143-3.358-7.5-7.5-7.5s-7.5 3.357-7.5 7.5v69.188c0 3.157-2.568 5.726-5.726 5.726h-22.463c-3.157 0-5.725-2.568-5.725-5.726v-143.461c0-3.157 2.568-5.726 5.725-5.726h22.464c3.157 0 5.726 2.568 5.726 5.726v39.2c0 4.143 3.358 7.5 7.5 7.5s7.5-3.357 7.5-7.5v-16.437h4.785c23.083 0 45.814 6.16 65.738 17.815 15.918 9.304 25.588 15.722 44.763 18.436.064.01.128.018.193.025l76.723 8.834c13.159 1.902 23.288 12.372 24.777 25.557l-.052 4.158c-44.575-.516-61.532 1.486-90.055-2.678l-13.281-1.939c-4.096-.595-7.907 2.238-8.505 6.337s2.239 7.907 6.338 8.505l13.281 1.939c30.302 4.426 47.779 2.266 99.63 2.836 1.038 0 2.131-.242 3.022-.636l126.155-55.547c.062-.027.123-.056.184-.084 6.794-3.212 16.14-5.209 22.081 3.521 4.16 6.117 3.291 14.363-1.955 19.483z"/><path d="m120.239 173.531c6.052 4.871 8.233 13.013 5.428 20.259-7.563 19.527 4.877 41.004 25.526 44.213 5.054.785 9.352 3.644 12.048 7.69l-35.12 68.1c-2.108 4.089-1.659 8.881 1.172 12.507 2.831 3.624 7.37 5.219 11.849 4.167l38.307-9.022 14.859 36.441c1.737 4.26 5.671 7.033 10.267 7.237.181.008.361.012.54.012 4.38 0 8.303-2.381 10.329-6.309l32.87-63.736c5.092 1.224 10.321 1.226 15.42 0l32.87 63.736c2.025 3.928 5.949 6.309 10.329 6.309.179 0 .359-.004.54-.012 4.595-.204 8.529-2.978 10.267-7.237l14.859-36.441 38.307 9.022c4.479 1.055 9.018-.541 11.849-4.167s3.28-8.418 1.172-12.507l-35.12-68.1c2.696-4.046 6.994-6.905 12.047-7.69 20.692-3.216 33.073-24.726 25.527-44.213-2.806-7.246-.625-15.388 5.428-20.259 16.3-13.121 16.293-37.938 0-51.054-6.052-4.871-8.233-13.013-5.428-20.258 7.561-19.528-4.878-41.004-25.526-44.213-7.678-1.193-13.638-7.153-14.831-14.83-3.215-20.692-24.726-33.074-44.213-25.527-7.248 2.806-15.387.624-20.259-5.428-13.132-16.314-37.95-16.278-51.053 0-4.872 6.052-13.012 8.232-20.258 5.428-19.527-7.562-41.005 4.878-44.213 25.527-1.193 7.677-7.153 13.637-14.83 14.83-20.692 3.216-33.072 24.725-25.527 44.213 2.806 7.245.625 15.387-5.428 20.258-16.315 13.132-16.284 37.95-.004 51.054zm85.209 171.949-13.193-32.357c-2.179-5.342-7.835-8.261-13.454-6.937l-34.011 8.011 25.525-49.495c8.046 13.389 24.792 19.518 39.922 13.657 7.244-2.809 15.386-.625 20.259 5.429 1.343 1.668 2.834 3.173 4.435 4.525zm127.794-39.294c-5.615-1.317-11.273 1.596-13.453 6.938l-13.193 32.356-29.483-57.167c1.601-1.351 3.092-2.856 4.435-4.525 4.873-6.052 13.015-8.231 20.258-5.429 15.133 5.86 31.878-.27 39.922-13.657l25.525 49.495zm-203.598-172.023c11.162-8.984 15.185-23.998 10.011-37.359-4.101-10.589 2.644-22.235 13.842-23.975 14.158-2.2 25.149-13.191 27.349-27.35 1.743-11.216 13.406-17.937 23.975-13.842 13.363 5.174 28.375 1.152 37.359-10.01 7.121-8.847 20.578-8.828 27.684 0 8.983 11.16 23.997 15.183 37.36 10.01 10.585-4.101 22.234 2.644 23.974 13.842 2.2 14.158 13.191 25.149 27.35 27.35 11.22 1.743 17.934 13.407 13.841 23.975-5.174 13.361-1.151 28.375 10.01 37.359 8.845 7.119 8.828 20.578 0 27.683-11.162 8.984-15.185 23.998-10.01 37.36 4.1 10.589-2.645 22.235-13.842 23.975-14.158 2.2-25.149 13.191-27.349 27.35-1.741 11.201-13.386 17.939-23.975 13.841-13.36-5.17-28.375-1.15-37.359 10.011-7.119 8.845-20.578 8.828-27.684 0-8.969-11.143-23.977-15.192-37.36-10.011-10.584 4.102-22.234-2.642-23.974-13.841-2.2-14.158-13.191-25.149-27.35-27.35-11.22-1.743-17.934-13.407-13.841-23.975 5.174-13.362 1.151-28.376-10.011-37.36-8.845-7.12-8.826-20.579 0-27.683z"/><path d="m161.499 158.163c-4.071.762-6.755 4.68-5.993 8.751 9.034 48.298 51.307 83.354 100.516 83.354 56.388 0 102.263-45.875 102.263-102.263s-45.875-102.263-102.263-102.263c-49.202 0-91.474 35.049-100.514 83.338-.762 4.071 1.92 7.989 5.992 8.752 4.075.76 7.99-1.921 8.752-5.992 7.712-41.196 43.783-71.098 85.77-71.098 48.117 0 87.263 39.146 87.263 87.263s-39.146 87.263-87.263 87.263c-41.993 0-78.065-29.906-85.772-71.111-.761-4.072-4.678-6.747-8.751-5.994z"/><path d="m311.248 120.13-33.359-1.478-11.714-31.271c-3.514-9.377-16.794-9.375-20.307.001l-11.713 31.271-33.36 1.478c-9.992.441-14.119 13.065-6.275 19.313l26.12 20.804-8.903 32.184c-2.67 9.653 8.074 17.456 16.429 11.937l27.856-18.413 27.858 18.414c8.324 5.499 19.107-2.253 16.428-11.938l-8.903-32.184 26.12-20.804c7.835-6.243 3.724-18.873-6.277-19.314zm-31.338 30.096c-3.406 2.713-4.856 7.177-3.695 11.372l6.677 24.135-20.891-13.809s-.001-.001-.002-.001c-1.815-1.199-3.896-1.799-5.977-1.799s-4.163.6-5.98 1.8l-20.891 13.809 6.677-24.134c1.162-4.196-.289-8.66-3.695-11.373l-19.588-15.602 25.02-1.108c4.348-.193 8.145-2.952 9.672-7.028l8.784-23.45 8.785 23.451c1.527 4.075 5.324 6.834 9.674 7.027l25.017 1.108z"/></g></g></g></svg>