<?xml version="1.0" encoding="utf-8"?>
<!-- Generator: Adobe Illustrator 25.0.0, SVG Export Plug-In . SVG Version: 6.00 Build 0)  -->
<svg version="1.1" id="Capa_1" xmlns="http://www.w3.org/2000/svg" xmlns:xlink="http://www.w3.org/1999/xlink" x="0px" y="0px"
	 viewBox="0 0 480 520" style="enable-background:new 0 0 480 520;" xml:space="preserve">
<style type="text/css">
	.st0{fill:none;}
	.st1{fill:#8D6AD9;}
	.st2{fill:#404040;}
	.st3{display:none;}
	.st4{display:inline;}
</style>
<g id="Layer_2">
</g>
<g>
	<path class="st0" d="M351,107.1c0.2,2.6,1.4,4.3,3.2,6.6c-0.1-4.2,0.6-8.4,2.2-12.5c2.9-7.5,0.4-15.6-5.4-20.2
		c0.7,3.5,1,7.1,0.9,10.6C351.8,96.7,350.6,101.9,351,107.1z"/>
	<path class="st0" d="M128.2,223.1c0.3,0.2,0.5,0.5,0.8,0.7l0.1-0.4C128.8,223.3,128.5,223.2,128.2,223.1z"/>
	<path class="st0" d="M367,143.8c-0.9,5.8-3.7,10.3-7.2,14.8c-1.2,1.5-2.5,2.9-3.7,4.3c-1.1,1.3-1.1,1.1-2.2,3.5
		c-1.6,3.1-2.6,7.7-3.5,11.6c-1,4-0.5,6,0.5,10.1c1.9,7.7,1.5,15.3-2,21.8c-2.2,4.1-5,6.6-6.3,7.7c-1,0.8-3.5,2.8-7.4,4.2
		c-2.8,1-5.2,1.4-7,1.5c-0.4,0-0.9,0-1.5,0.1l4.3,8.3c3.5-2,7.4-3.5,11.5-4.1c11.2-1.7,17.9-13.4,13.8-24
		c-5.2-13.4-1.2-28.4,10-37.4c8.5-6.9,8.8-19.6,0.9-26.9C367.3,140.7,367.2,142.3,367,143.8z"/>
	<path class="st0" d="M230.8,278.6c-1.7,0.3-3.3,0.2-4.7,0c0,0,0.1,0.1,0.1,0.1c5.3,6.6,14.1,8.2,21.2,5l-5.7-11.1
		C237,276.2,234.4,278,230.8,278.6z"/>
	<path class="st0" d="M299.8,321.2l-5.1,12.4l-2.2,3.5l-4.4,3l-2.3,0.5l4.8,9.2l13.2-32.4c2.2-5.3,7.8-8.3,13.5-6.9l34,8l-6.8-13.1
		l-34.9-8.2L299.8,321.2z"/>
	<polygon class="st0" points="135.8,304.9 128.8,318.5 149.1,313.7 144.7,302.8 	"/>
	<path class="st0" d="M214.5,288.1c-1.4-1.7-3-3.1-4.8-4.2l-26.3,51l6.1,14.9l29.5-57.2C217.3,291.3,215.8,289.8,214.5,288.1z"/>
	<path class="st0" d="M429,394.8c-0.1,0-0.1,0.1-0.2,0.1l-126.2,55.5c-0.9,0.4-2,0.6-3,0.6c-51.9-0.6-69.3,1.6-99.6-2.8l-13.3-1.9
		c-4.1-0.6-6.9-4.4-6.3-8.5s4.4-6.9,8.5-6.3l13.3,1.9c28.5,4.2,45.5,2.2,90.1,2.7l0.1-4.2c-1.5-13.2-11.6-23.7-24.8-25.6l-76.7-8.8
		c-0.1,0-0.1,0-0.2,0c-19.2-2.7-28.8-9.1-44.8-18.4c-19.9-11.7-42.7-17.8-65.7-17.8h-4.8v16.4c0,4.1-3.4,7.5-7.5,7.5
		c-4.1,0-7.5-3.4-7.5-7.5v-39.2c0-3.2-2.6-5.7-5.7-5.7H32.1c-3.2,0-5.7,2.6-5.7,5.7v143.5c0,3.2,2.6,5.7,5.7,5.7h22.5
		c3.2,0,5.7-2.6,5.7-5.7v-69.2c0-4.1,3.4-7.5,7.5-7.5c4.1,0,7.5,3.4,7.5,7.5v54.4l80.3,29.9c7.7,2.9,15.8,4.3,24,4.3h103.5
		c13.1,0,25.8-3.7,36.9-10.7c0.1-0.1,0.2-0.1,0.3-0.2l128.8-72.7v0c5.2-5.1,6.1-13.4,2-19.5C445.1,389.6,435.8,391.6,429,394.8z"/>
	<path class="st1" d="M205.2,17.8C205.2,17.8,205.2,17.8,205.2,17.8c0.1-0.1,0.1-0.1,0.1-0.1C205.3,17.7,205.2,17.9,205.2,17.8z"/>
	<path class="st1" d="M108,182c-0.2,1.6-0.6,3.4-1.1,5.3c-0.4,1.7-0.9,4.1-1.2,7c0,0,0,0,0,0c0,0,0,0,0,0c-0.4,3.7-0.7,6.7,0.1,10.3
		c0.2,1.1,0.6,2.9,1.6,5c0-3.8,0.7-7.7,2.2-11.6C111.8,192.7,111.1,186.7,108,182z"/>
	<path class="st1" d="M248.8,130.8l-8.8-23.5l-8.8,23.5c-1.5,4.1-5.3,6.8-9.7,7l-25,1.1l19.6,15.6c3.4,2.7,4.9,7.2,3.7,11.4
		l-6.7,24.1l20.9-13.8c1.8-1.2,3.9-1.8,6-1.8s4.2,0.6,6,1.8c0,0,0,0,0,0l20.9,13.8l-6.7-24.1c-1.2-4.2,0.3-8.7,3.7-11.4l19.6-15.6
		l-25-1.1C254.1,137.7,250.3,134.9,248.8,130.8z"/>
	<path class="st1" d="M135.2,62.3c7.7-1.2,13.6-7.2,14.8-14.8c3.2-20.6,24.7-33.1,44.2-25.5c7.2,2.8,15.4,0.6,20.3-5.4
		c5.2-6.5,12.2-10.3,19.6-11.7c-10.5-3.4-20.7,0.5-27,10c-1.1,1.7-1.1,2.1-1.9,2.9c-0.2,0.5-0.5,1.1-0.9,1.6
		c-1.9,2.5-4.9,3.1-5.9,3.2c-2.2-0.8-5.5-1.8-9.5-2.7c-9.5-2.1-14.6-3.3-20.3-1.5c-5.3,1.6-12.2,6.1-14.8,12.9
		c-1.2,3.1-2.6,9.4-4.9,15.9c-0.2,0.6-0.7,2-1.8,3.4c-1.6,2-3.5,3-5.8,3.9c-5.5,2.2-11.4,3-14.4,3.2c-1.8,0.3-8.3,1.5-12.8,7.1
		c-4.5,5.5-4.6,12.1-4.6,14.5c0,1,0,1.8,0.1,2.3c-0.1-0.5-0.5,0.9-0.3,1c0.1,0,0.2-0.3,0.3-0.3c0.1,0,0.2,0.2,0.2,0.5
		C113.7,72.5,123,64.2,135.2,62.3z"/>
	<path class="st1" d="M285.8,22c5-1.9,10.1-2.5,15-2.1c-5.9-5-14-6.6-22.1-6.3c-4.6,0.2-9.3,0.9-13.6,2.3c0.2,0.2,0.3,0.4,0.5,0.6
		C270.4,22.6,278.6,24.8,285.8,22z"/>
	<path class="st1" d="M113.6,166.2c11.2,9,15.2,24,10,37.4c-2.8,7.2-0.6,14.8,4.6,19.5c0.3,0.1,0.6,0.2,0.8,0.3l-0.1,0.4
		c2.3,1.9,5.2,3.3,8.5,3.8c14.2,2.2,25.2,13.2,27.4,27.4c1.7,11.2,13.4,17.9,24,13.8c13.3-5.2,28.3-1.2,37.3,9.9
		c1.4,0.2,3,0.3,4.7,0c3.6-0.6,6.2-2.4,10.8-5.9l5.7,11.1c2.4-1.1,4.7-2.8,6.5-5c9-11.2,24-15.2,37.4-10c10.6,4.1,22.2-2.6,24-13.8
		c1.6-10,7.5-18.4,15.8-23.2l-4.3-8.3c0.6,0,1.1-0.1,1.5-0.1c1.8-0.1,4.2-0.5,7-1.5c3.8-1.4,6.4-3.4,7.4-4.2c1.3-1,4.1-3.6,6.3-7.7
		c3.5-6.5,3.9-14.1,2-21.8c-1-4-1.5-6.1-0.5-10.1c0.9-3.9,2-8.5,3.5-11.6c1.2-2.3,1.2-2.2,2.2-3.5c1.2-1.5,2.5-2.9,3.7-4.3
		c3.6-4.5,6.4-9,7.2-14.8c0.2-1.6,0.3-3.1,0.3-4.6c-0.3-0.3-0.5-0.5-0.9-0.8c-7.8-6.2-12.1-15.4-12.2-24.9c-1.8-2.2-3-4-3.2-6.6
		c-0.4-5.1,0.8-10.4,0.9-15.5c0.1-3.5-0.2-7.1-0.9-10.6c-2.3-1.9-5.2-3.2-8.4-3.7C328.4,75,317.4,64,315.2,49.8
		c-1.7-11.2-13.4-17.9-24-13.8c-13.4,5.2-28.4,1.1-37.4-10c-7.1-8.8-20.6-8.8-27.7,0c-9,11.2-24,15.2-37.4,10
		c-10.6-4.1-22.2,2.6-24,13.8C162.6,64,151.7,75,137.5,77.2c-11.2,1.7-17.9,13.4-13.8,24c5.2,13.4,1.2,28.4-10,37.4l0,0
		C104.8,145.6,104.8,159.1,113.6,166.2z M154.2,168.5c7.7,41.2,43.8,71.1,85.8,71.1c48.1,0,87.3-39.1,87.3-87.3S288.1,65.1,240,65.1
		c-42,0-78.1,29.9-85.8,71.1c-0.8,4.1-4.7,6.8-8.8,6c-4.1-0.8-6.8-4.7-6-8.8c9-48.3,51.3-83.3,100.5-83.3
		c56.4,0,102.3,45.9,102.3,102.3S296.4,254.6,240,254.6c-49.2,0-91.5-35.1-100.5-83.4c-0.8-4.1,1.9-8,6-8.8v0
		C149.6,161.7,153.5,164.4,154.2,168.5z M284.3,196.8c2.7,9.7-8.1,17.4-16.4,11.9L240,190.3l-27.9,18.4c-8.4,5.5-19.1-2.3-16.4-11.9
		l8.9-32.2l-26.1-20.8c-7.8-6.2-3.7-18.9,6.3-19.3l33.4-1.5l11.7-31.3c3.5-9.4,16.8-9.4,20.3,0l11.7,31.3l33.4,1.5
		c10,0.4,14.1,13.1,6.3,19.3l-26.1,20.8L284.3,196.8z"/>
	<path class="st1" d="M90.9,149.9c0.4,0.5,0.8,0.9,1.1,1.3c0.3-9.1,4.4-18.1,12.2-24.4c5.4-4.4,7.7-11.4,6.1-18
		c-0.6,1.8-1.6,3.8-3.3,5.3c-2.5,2.3-3.9,1.3-8.3,4.1c-1.1,0.7-4,2.6-6.5,5.8c-3.3,4.3-4.2,9-4.4,11.9c-0.3,2.2-0.5,5.5,0.7,9.2
		C88.8,146.1,89.5,148,90.9,149.9z M94.8,135.6C94.8,135.6,94.8,135.6,94.8,135.6C94.8,135.6,94.7,135.6,94.8,135.6
		C94.7,135.6,94.8,135.6,94.8,135.6z"/>
	<path class="st1" d="M94.8,135.6C94.8,135.6,94.7,135.6,94.8,135.6C94.7,135.6,94.8,135.6,94.8,135.6
		C94.8,135.6,94.8,135.6,94.8,135.6z"/>
	<path class="st1" d="M332.8,250l26.7,51.7l1.8-2.4l0.9-4.1l-1.3-5.7l-23-44.5C335.9,246.3,334.1,248,332.8,250z"/>
	<path class="st1" d="M285.8,282.7c-7.2-2.8-15.4-0.6-20.3,5.4c-1.3,1.7-2.8,3.2-4.4,4.5l24.7,47.9l2.3-0.5l4.4-3l2.2-3.5l5.1-12.4
		l9.8-24l34.9,8.2L325.7,269C317.7,282.4,300.9,288.6,285.8,282.7z"/>
	<path class="st1" d="M194.2,282.7c-15.1,5.9-31.9-0.3-39.9-13.7l-18.5,35.9l8.8-2.1l4.5,10.9l13.7-3.2c5.6-1.3,11.3,1.6,13.5,6.9
		l7.1,17.5l26.3-51C205.1,281.2,199.4,280.7,194.2,282.7z"/>
	<polygon class="st1" points="154.8,327.8 159.5,339.3 161.7,342.8 166.1,345.7 169.8,346.5 171.8,346.2 163.4,325.8 	"/>
	<path class="st1" d="M135.2,242.3c-4.5-0.7-8.7-2.3-12.3-4.5l-29.6,57.4l-1.3,5.7l0.9,4.1l3.5,4.7l5.8,2.4l4.1-0.2l10.3-2.4
		l30.6-59.4C144.5,246,140.2,243.1,135.2,242.3z"/>
	<path class="st2" d="M463.4,389.8L463.4,389.8c-9-13.2-24.2-16.5-40.8-8.7L307.2,432l0-0.4c0-0.3,0-0.6,0-0.8
		c-2-20.3-17.5-36.5-37.7-39.3c-0.1,0-0.1,0-0.2,0l-76.7-8.8c-16.2-2.3-24.2-7.7-39.2-16.5c-22.2-13-47.6-19.9-73.3-19.9h-4.8v-7.8
		c0-11.4-9.3-20.7-20.7-20.7H32.1c-11.4,0-20.7,9.3-20.7,20.7v143.5c0,11.4,9.3,20.7,20.7,20.7h22.5c11,0,20-8.7,20.7-19.5l75.1,28
		c9.4,3.5,19.2,5.3,29.3,5.3h103.5c15.9,0,31.3-4.5,44.7-12.9l129.4-73C466.3,425.3,474.2,405.7,463.4,389.8z M449.1,417.8
		L449.1,417.8l-128.8,72.7c-0.1,0.1-0.2,0.1-0.3,0.2c-11,7-23.8,10.7-36.9,10.7H179.6c-8.2,0-16.3-1.5-24-4.3l-80.3-29.9v-54.4
		c0-4.1-3.4-7.5-7.5-7.5c-4.1,0-7.5,3.4-7.5,7.5v69.2c0,3.2-2.6,5.7-5.7,5.7H32.1c-3.2,0-5.7-2.6-5.7-5.7V338.4
		c0-3.2,2.6-5.7,5.7-5.7h22.5c3.2,0,5.7,2.6,5.7,5.7v39.2c0,4.1,3.4,7.5,7.5,7.5c4.1,0,7.5-3.4,7.5-7.5v-16.4h4.8
		c23.1,0,45.8,6.2,65.7,17.8c15.9,9.3,25.6,15.7,44.8,18.4c0.1,0,0.1,0,0.2,0l76.7,8.8c13.2,1.9,23.3,12.4,24.8,25.6l-0.1,4.2
		c-44.6-0.5-61.5,1.5-90.1-2.7l-13.3-1.9c-4.1-0.6-7.9,2.2-8.5,6.3s2.2,7.9,6.3,8.5l13.3,1.9c30.3,4.4,47.8,2.3,99.6,2.8
		c1,0,2.1-0.2,3-0.6l126.2-55.5c0.1,0,0.1-0.1,0.2-0.1c6.8-3.2,16.1-5.2,22.1,3.5C455.2,404.4,454.3,412.6,449.1,417.8z"/>
	<path class="st2" d="M104.2,126.8c-7.8,6.3-11.9,15.3-12.2,24.4c-0.3,9.8,3.7,19.8,12.2,26.6c1.5,1.2,2.8,2.6,3.8,4.2
		c3,4.7,3.8,10.6,1.6,16.1c-1.5,3.8-2.2,7.7-2.2,11.6c-0.1,11.4,5.8,22.1,15.5,28.1c3.6,2.2,7.7,3.8,12.3,4.5
		c5.1,0.8,9.4,3.6,12,7.7l-30.6,59.4l-4.5,8.7c-2.1,4.1-1.7,8.9,1.2,12.5c2.8,3.6,7.4,5.2,11.8,4.2l29.7-7l8.6-2l8.3,20.5l6.5,16
		c1.7,4.3,5.7,7,10.3,7.2c0.2,0,0.4,0,0.5,0c4.4,0,8.3-2.4,10.3-6.3l32.9-63.7c5.1,1.2,10.3,1.2,15.4,0l32.9,63.7
		c2,3.9,5.9,6.3,10.3,6.3c0.2,0,0.4,0,0.5,0c4.6-0.2,8.5-3,10.3-7.2l14.9-36.4l38.3,9c4.5,1.1,9-0.5,11.8-4.2
		c2.8-3.6,3.3-8.4,1.2-12.5l-8.5-16.4L332.8,250c1.3-2,3.1-3.7,5.1-5c2.1-1.3,4.4-2.3,6.9-2.6c20.7-3.2,33.1-24.7,25.5-44.2
		c-2.8-7.2-0.6-15.4,5.4-20.3c16.3-13.1,16.3-37.9,0-51.1c-6.1-4.9-8.2-13-5.4-20.3c7.6-19.5-4.9-41-25.5-44.2
		c-7.7-1.2-13.6-7.2-14.8-14.8c-2.4-15.4-14.9-26.2-29.2-27.6c-4.9-0.5-10,0.1-15,2.1c-7.2,2.8-15.4,0.6-20.3-5.4
		c-0.2-0.2-0.3-0.4-0.5-0.6c-7.9-9.4-19.8-13.1-30.9-11.1c-7.4,1.3-14.5,5.2-19.6,11.7c-4.9,6.1-13,8.2-20.3,5.4
		c-19.5-7.6-41,4.9-44.2,25.5c-1.2,7.7-7.2,13.6-14.8,14.8c-12.2,1.9-21.5,10.1-25.5,20.5c-2.8,7.3-3.1,15.7,0,23.7
		c0.3,0.7,0.5,1.5,0.7,2.2C112,115.4,109.7,122.4,104.2,126.8z M189.4,349.8l-6.1-14.9l-7.1-17.5c-2.2-5.3-7.8-8.3-13.5-6.9
		l-13.7,3.2l-20.3,4.8l7-13.6l18.5-35.9c8,13.4,24.8,19.5,39.9,13.7c5.2-2,10.8-1.4,15.4,1.3c1.8,1.1,3.5,2.5,4.8,4.2
		c1.3,1.7,2.8,3.2,4.4,4.5L189.4,349.8z M344.5,305.4l6.8,13.1l-34-8c-5.6-1.3-11.3,1.6-13.5,6.9l-13.2,32.4l-4.8-9.2l-24.7-47.9
		c1.6-1.4,3.1-2.9,4.4-4.5c4.9-6.1,13-8.2,20.3-5.4c15.1,5.9,31.9-0.3,39.9-13.7L344.5,305.4z M113.6,138.5L113.6,138.5
		c11.2-9,15.2-24,10-37.4c-4.1-10.6,2.6-22.2,13.8-24c14.2-2.2,25.1-13.2,27.3-27.3c1.7-11.2,13.4-17.9,24-13.8
		c13.4,5.2,28.4,1.2,37.4-10c7.1-8.8,20.6-8.8,27.7,0c9,11.2,24,15.2,37.4,10c10.6-4.1,22.2,2.6,24,13.8
		c2.2,14.2,13.2,25.1,27.4,27.3c3.2,0.5,6.1,1.8,8.4,3.7c5.7,4.7,8.3,12.7,5.4,20.2c-1.6,4.1-2.3,8.3-2.2,12.5
		c0.2,9.5,4.5,18.6,12.2,24.9c0.3,0.2,0.6,0.5,0.9,0.8c8,7.3,7.7,20.1-0.9,26.9c-11.2,9-15.2,24-10,37.4c4.1,10.6-2.6,22.2-13.8,24
		c-4.2,0.6-8.1,2.1-11.5,4.1c-8.3,4.9-14.3,13.3-15.8,23.2c-1.7,11.2-13.4,17.9-24,13.8c-13.4-5.2-28.4-1.2-37.4,10
		c-1.8,2.3-4.1,3.9-6.5,5c-7.1,3.2-15.9,1.5-21.2-5c0,0-0.1-0.1-0.1-0.1c-9-11.1-23.9-15.1-37.3-9.9c-10.6,4.1-22.2-2.6-24-13.8
		c-2.2-14.2-13.2-25.1-27.4-27.4c-3.3-0.5-6.1-1.9-8.5-3.8c-0.3-0.2-0.5-0.4-0.8-0.7c-5.2-4.7-7.4-12.4-4.6-19.5
		c5.2-13.4,1.2-28.4-10-37.4C104.8,159.1,104.8,145.6,113.6,138.5z"/>
	<path class="st2" d="M139.5,171.3c9,48.3,51.3,83.4,100.5,83.4c56.4,0,102.3-45.9,102.3-102.3S296.4,50.1,240,50.1
		c-49.2,0-91.5,35-100.5,83.3c-0.8,4.1,1.9,8,6,8.8c4.1,0.8,8-1.9,8.8-6C162,95,198,65.1,240,65.1c48.1,0,87.3,39.1,87.3,87.3
		s-39.1,87.3-87.3,87.3c-42,0-78.1-29.9-85.8-71.1c-0.8-4.1-4.7-6.7-8.8-6v0C141.4,163.3,138.7,167.2,139.5,171.3z"/>
	<path class="st2" d="M295.2,124.5l-33.4-1.5l-11.7-31.3c-3.5-9.4-16.8-9.4-20.3,0L218.2,123l-33.4,1.5c-10,0.4-14.1,13.1-6.3,19.3
		l26.1,20.8l-8.9,32.2c-2.7,9.7,8.1,17.5,16.4,11.9l27.9-18.4l27.9,18.4c8.3,5.5,19.1-2.3,16.4-11.9l-8.9-32.2l26.1-20.8
		C309.4,137.5,305.2,124.9,295.2,124.5z M263.9,154.6c-3.4,2.7-4.9,7.2-3.7,11.4l6.7,24.1L246,176.3c0,0,0,0,0,0
		c-1.8-1.2-3.9-1.8-6-1.8s-4.2,0.6-6,1.8l-20.9,13.8l6.7-24.1c1.2-4.2-0.3-8.7-3.7-11.4L196.5,139l25-1.1c4.3-0.2,8.1-3,9.7-7
		l8.8-23.5l8.8,23.5c1.5,4.1,5.3,6.8,9.7,7l25,1.1L263.9,154.6z"/>
</g>
<g class="st3">
	<g>
		<g class="st4">
			<path class="st2" d="M256.5,173c6.1,4.9,8.2,13,5.4,20.3c-7.6,19.5,4.9,41,25.5,44.2c5.1,0.8,9.4,3.6,12,7.7l-35.1,68.1
				c-2.1,4.1-1.7,8.9,1.2,12.5c2.8,3.6,7.4,5.2,11.8,4.2l38.3-9l14.9,36.4c1.7,4.3,5.7,7,10.3,7.2c0.2,0,0.4,0,0.5,0
				c4.4,0,8.3-2.4,10.3-6.3l32.9-63.7c5.1,1.2,10.3,1.2,15.4,0l32.9,63.7c2,3.9,5.9,6.3,10.3,6.3c0.2,0,0.4,0,0.5,0
				c4.6-0.2,8.5-3,10.3-7.2l14.9-36.4l38.3,9c4.5,1.1,9-0.5,11.8-4.2s3.3-8.4,1.2-12.5L485,245.1c2.7-4,7-6.9,12-7.7
				c20.7-3.2,33.1-24.7,25.5-44.2c-2.8-7.2-0.6-15.4,5.4-20.3c16.3-13.1,16.3-37.9,0-51.1c-6.1-4.9-8.2-13-5.4-20.3
				c7.6-19.5-4.9-41-25.5-44.2c-7.7-1.2-13.6-7.2-14.8-14.8C479,21.9,457.5,9.5,438,17.1c-7.2,2.8-15.4,0.6-20.3-5.4
				c-13.1-16.3-38-16.3-51.1,0c-4.9,6.1-13,8.2-20.3,5.4c-19.5-7.6-41,4.9-44.2,25.5c-1.2,7.7-7.2,13.6-14.8,14.8
				c-20.7,3.2-33.1,24.7-25.5,44.2c2.8,7.2,0.6,15.4-5.4,20.3C240.2,135.1,240.2,159.9,256.5,173L256.5,173z M341.7,344.9
				l-13.2-32.4c-2.2-5.3-7.8-8.3-13.5-6.9l-34,8l25.5-49.5c8,13.4,24.8,19.5,39.9,13.7c7.2-2.8,15.4-0.6,20.3,5.4
				c1.3,1.7,2.8,3.2,4.4,4.5L341.7,344.9z M469.5,305.6c-5.6-1.3-11.3,1.6-13.5,6.9l-13.2,32.4l-29.5-57.2c1.6-1.4,3.1-2.9,4.4-4.5
				c4.9-6.1,13-8.2,20.3-5.4c15.1,5.9,31.9-0.3,39.9-13.7l25.5,49.5L469.5,305.6z M265.9,133.6c11.2-9,15.2-24,10-37.4
				c-4.1-10.6,2.6-22.2,13.8-24c14.2-2.2,25.1-13.2,27.3-27.3c1.7-11.2,13.4-17.9,24-13.8c13.4,5.2,28.4,1.2,37.4-10
				c7.1-8.8,20.6-8.8,27.7,0c9,11.2,24,15.2,37.4,10c10.6-4.1,22.2,2.6,24,13.8c2.2,14.2,13.2,25.1,27.4,27.3
				c11.2,1.7,17.9,13.4,13.8,24c-5.2,13.4-1.2,28.4,10,37.4c8.8,7.1,8.8,20.6,0,27.7c-11.2,9-15.2,24-10,37.4
				c4.1,10.6-2.6,22.2-13.8,24c-14.2,2.2-25.1,13.2-27.3,27.4c-1.7,11.2-13.4,17.9-24,13.8c-13.4-5.2-28.4-1.1-37.4,10
				c-7.1,8.8-20.6,8.8-27.7,0c-9-11.1-24-15.2-37.4-10c-10.6,4.1-22.2-2.6-24-13.8c-2.2-14.2-13.2-25.1-27.4-27.4
				c-11.2-1.7-17.9-13.4-13.8-24c5.2-13.4,1.2-28.4-10-37.4C257,154.2,257,140.7,265.9,133.6L265.9,133.6z"/>
			<path class="st2" d="M297.7,157.6c-4.1,0.8-6.8,4.7-6,8.8c9,48.3,51.3,83.4,100.5,83.4c56.4,0,102.3-45.9,102.3-102.3
				S448.6,45.2,392.3,45.2c-49.2,0-91.5,35-100.5,83.3c-0.8,4.1,1.9,8,6,8.8c4.1,0.8,8-1.9,8.8-6c7.7-41.2,43.8-71.1,85.8-71.1
				c48.1,0,87.3,39.1,87.3,87.3s-39.1,87.3-87.3,87.3c-42,0-78.1-29.9-85.8-71.1C305.7,159.5,301.8,156.9,297.7,157.6L297.7,157.6z"
				/>
			<path class="st2" d="M447.5,119.6l-33.4-1.5l-11.7-31.3c-3.5-9.4-16.8-9.4-20.3,0l-11.7,31.3l-33.4,1.5
				c-10,0.4-14.1,13.1-6.3,19.3l26.1,20.8l-8.9,32.2c-2.7,9.7,8.1,17.5,16.4,11.9l27.9-18.4l27.9,18.4c8.3,5.5,19.1-2.3,16.4-11.9
				l-8.9-32.2l26.1-20.8C461.6,132.6,457.5,120,447.5,119.6L447.5,119.6z M416.1,149.7c-3.4,2.7-4.9,7.2-3.7,11.4l6.7,24.1
				l-20.9-13.8c0,0,0,0,0,0c-1.8-1.2-3.9-1.8-6-1.8s-4.2,0.6-6,1.8l-20.9,13.8l6.7-24.1c1.2-4.2-0.3-8.7-3.7-11.4l-19.6-15.6l25-1.1
				c4.3-0.2,8.1-3,9.7-7l8.8-23.4l8.8,23.5c1.5,4.1,5.3,6.8,9.7,7l25,1.1L416.1,149.7z"/>
		</g>
	</g>
</g>
</svg>
