<?xml version="1.0" encoding="utf-8"?>
<!-- Generator: Adobe Illustrator 25.0.0, SVG Export Plug-In . SVG Version: 6.00 Build 0)  -->
<svg version="1.1" id="Layer_1" xmlns="http://www.w3.org/2000/svg" xmlns:xlink="http://www.w3.org/1999/xlink" x="0px" y="0px"
	 viewBox="0 0 512 512" style="enable-background:new 0 0 512 512;" xml:space="preserve">
<style type="text/css">
	.st0{fill:none;}
	.st1{fill:#8D6AD9;}
	.st2{fill:#404040;}
</style>
<g>
	<path class="st0" d="M446.4,184c-3,14.7-10.1,28.3-20.4,39.2c0.3,0.3,0.6,0.6,1,0.9c13.3,11.7,33.5,10.4,45.1-2.9
		s10.4-33.5-2.9-45.1l0,0c-5.8,5.2-13.4,8-21.1,8H446.4z"/>
	<polygon class="st0" points="379.5,324 403.4,333.5 421.4,285.6 403.9,281.2 	"/>
	<path class="st0" d="M272,152c0,8.8,7.2,16,16,16v-32C279.2,136,272,143.2,272,152z"/>
	<path class="st0" d="M422.9,83.9l21.7,36.1h3.5v-16c0-39.7-32.3-72-72-72h-16c-39.7,0-72,32.3-72,72v15.6c2.2-0.2,4.5-0.4,6.9-0.8
		C342.4,112.5,412,81,412.7,80.7C416.4,79,420.8,80.4,422.9,83.9z"/>
	<path class="st0" d="M448,168c8.8,0,16-7.2,16-16c0-8.8-7.2-16-16-16V168z"/>
	<path class="st0" d="M264,297.1V336c0,1.6-0.5,3.1-1.3,4.4l-2.4,3.6l15.8,5.9l4.8-9.6c1.4-2.7,4.1-4.4,7.2-4.4h2.9l4.2-46.4
		l-21.3,3.6C270.3,293.7,266.9,295.1,264,297.1z"/>
	<path class="st0" d="M56,448h120v-16H48v-16h121.6c0.1-5.3,0.1-10.7,0.2-16H56c-13.3,0-24,10.7-24,24S42.7,448,56,448z"/>
	<path class="st0" d="M248.8,361.1c0,1.7,0,3.3,0,5l4.6,36.6l16-38.2l-18.3-6.9L248.8,361.1z"/>
	<path class="st0" d="M56,384h114c0.1-5.3,0.1-10.7,0.2-16H48v-16h122.3c0.1-5.3,0.1-10.7,0.2-16H56c-13.2,0-24,10.8-24,24
		C32,373.2,42.8,384,56,384z"/>
	<path class="st0" d="M32,464v16h148.9c-3-4.8-4.7-10.3-4.9-16H32z"/>
	<path class="st0" d="M193.4,455.7c0,0,0,0.1-0.1,0.1c-2.2,5.5-1.5,11.8,1.8,16.7c2.1,3.1,5.2,5.4,8.8,6.6c6.8,2.3,15.5,0.8,21-3.8
		c4.5-3.8,7.1-9.4,7.1-15.2v-28h-29.2L193.4,455.7z"/>
	<path class="st0" d="M415.5,346.8c0,0.1,0,0.1-0.1,0.2c-1.6,4.1-6.3,6.1-10.4,4.5l-29-11.6V360h55.2l-4-44.4L415.5,346.8z"/>
	<path class="st0" d="M56,320h114.7c0.1-5.3,0.1-10.7,0.2-16H48v-16h122.8c0.1-0.7,0.2-1.5,0.5-2.3c0.5-1.3,1.2-2.2,1.4-2.5
		c1-1.3,2.3-2.1,3.3-2.5V272H56c-13.2,0-24,10.8-24,24C32,309.2,42.8,320,56,320z"/>
	<path class="st0" d="M392,244.3c-15.6,4.9-32.4,4.9-48,0v25.5l24,42l24-42V244.3z"/>
	<path class="st0" d="M452.5,291l-11.6-1.7l5,54.7H480v-21.3C479.9,306.8,468.3,293.3,452.5,291z"/>
	<path class="st0" d="M396.4,225.3c21.8-10.8,35.5-33,35.6-57.3v-37.8l-19.2-32c-17.8,7.7-68.2,28.5-108.8,35.5V168
		c0,9.9,2.3,19.6,6.7,28.4C326.4,228.1,364.8,241.1,396.4,225.3z M404,128c6.6,0,12,5.4,12,12c0,6.6-5.4,12-12,12
		c-6.6,0-12-5.4-12-12C392,133.4,397.4,128,404,128z M332,152c-6.6,0-12-5.4-12-12c0-6.6,5.4-12,12-12c6.6,0,12,5.4,12,12
		C344,146.6,338.6,152,332,152z M344,176h16c0,4.4,3.6,8,8,8s8-3.6,8-8h16c0,13.2-10.8,24-24,24C354.8,200,344,189.2,344,176z"/>
	<polygon class="st0" points="356.5,324 332.1,281.2 314.6,285.6 332.6,333.5 	"/>
	<path class="st0" d="M330.8,351.5c-4.1,1.6-8.7-0.5-10.3-4.7l-11.7-31.2l-4,44.4H360v-20.2l-29,11.6
		C330.9,351.4,330.9,351.5,330.8,351.5z"/>
	<path class="st1" d="M176,384v-16h-5.8c-0.1,5.3-0.1,10.7-0.2,16H176z"/>
	<path class="st1" d="M176,416v-16h-6.2c-0.1,5.3-0.1,10.7-0.2,16H176z"/>
	<path class="st1" d="M248.3,362l0.5,4.1c0-1.6,0-3.3,0-5L248.3,362z"/>
	<path class="st1" d="M172.7,283.2c-0.2,0.3-0.9,1.2-1.4,2.5c-0.3,0.8-0.5,1.6-0.5,2.3h5.2v-7.3C175,281.2,173.7,282,172.7,283.2z"
		/>
	<path class="st1" d="M176,320v-16h-5.1c-0.1,5.3-0.1,10.7-0.2,16H176z"/>
	<path class="st1" d="M176,352v-16h-5.5c-0.1,5.3-0.1,10.7-0.2,16H176z"/>
	<path class="st1" d="M192,416h46.9l-6.9-55c-0.2-1.9,0.2-3.8,1.3-5.4l14.7-22V304h-56V416z"/>
	<path class="st1" d="M248.6,288c0-0.9-0.1-1.6-0.1-2c-0.3-2.8-1.3-3.9-1.7-4.3c-2-2-5-1.6-12.9-1.5c-3,0-5.4,0-6.8-0.1
		c-1,0-2,0-3,0v8H248.6z"/>
	<path class="st1" d="M208,288v-40h11.1c0-2.7-0.1-5.3-0.1-8h-16v40h-11v8H208z"/>
	<polygon class="st1" points="208,192 219,192 219,184 203,184 203,224 208,224 	"/>
	<polygon class="st1" points="208,136 219,136 219,128 203,128 203,168 208,168 	"/>
	<polygon class="st1" points="208,80 219,80 219,72 203,72 203,112 208,112 	"/>
	<polygon class="st1" points="208,24 219,24 219,16 203,16 203,56 208,56 	"/>
	<path class="st1" d="M267.4,41.2l-2.9-8.8l-16,8.3l-8.2,7.2l-6.4,8.1l-6.5,13.5l7.2,2.4C241,57.8,252.8,46.7,267.4,41.2z"/>
	<path class="st1" d="M162.5,40.4c10.8,3.6,20.2,10.3,27.2,19l-1.6-3.4l-5.3-7l-9.2-8.3L166,36l-8.4-3.6l-3.9,11.8l-1.1,3.4L159,51
		L162.5,40.4z"/>
	<path class="st1" d="M179.4,74.5l1.1-0.4c-1.1-1.8-2.3-3.5-3.6-5.1L179.4,74.5z"/>
	<path class="st1" d="M162.5,88.4c10.9,3.6,20.3,10.3,27.2,19l-1.5-3.2L180,94.2L169.5,86l-11.9-5.6l-5.1,15.2l6.4,3.8L162.5,88.4z"
		/>
	<path class="st1" d="M178.5,120l0.9,2.5l1.1-0.4c-1.2-1.9-2.5-3.8-3.9-5.5L178.5,120z"/>
	<path class="st1" d="M162.5,136.4c10.8,3.6,20.2,10.3,27.2,19l-1.6-3.4l-5.3-7l-9.2-8.3L166,132l-8.4-3.6l-3.9,11.8l-1.1,3.4
		l6.5,3.4L162.5,136.4z"/>
	<path class="st1" d="M179.4,170.5l1.1-0.4c-1.1-1.8-2.3-3.5-3.6-5.1L179.4,170.5z"/>
	<path class="st1" d="M162.5,184.4c10.8,3.6,20.2,10.3,27.2,19l-1.6-3.4l-5.3-7l-9.2-8.3L166,180l-8.4-3.6l-3.9,11.8l-1.1,3.4
		l6.5,3.4L162.5,184.4z"/>
	<path class="st1" d="M179.4,218.5l1.1-0.4c-1.1-1.8-2.3-3.5-3.6-5.1L179.4,218.5z"/>
	<path class="st1" d="M267.4,185.2l-2.9-8.8L256,180l-7.6,4.7l-9.2,8.3l-5.3,7l-6.5,13.5l7.2,2.4C241,201.8,252.8,190.7,267.4,185.2
		z"/>
	<path class="st1" d="M257.6,141.9c1.5-4.6,4.1-8.8,7.4-12.2l-0.6-1.8l-8.4,3.6l-7.6,4.7l-9.2,8.3l-5.3,7l-6.5,13.5l7.4,2.5
		C239.7,156.9,247.6,148,257.6,141.9z"/>
	<path class="st1" d="M267.4,89.2l-2.9-8.8L256,84l-7.6,4.7l-9.2,8.3l-5.3,7l-6.5,13.5l7.2,2.4C241,105.8,252.8,94.7,267.4,89.2z"/>
	<path class="st2" d="M454.8,275.2l-46.8-9.4v-28.5c2-1.1,3.9-2.4,5.8-3.7c18.5,18.9,48.9,19.3,67.9,0.7
		c18.9-18.5,19.3-48.9,0.7-67.9c-1.3-1.3-2.7-2.6-4.2-3.8c5.2-14.5-0.8-30.7-14.2-38.4V104c-0.1-48.6-39.4-87.9-88-88h-16
		c-45.8,0.1-83.9,35.2-87.7,80.9l-2.8-8.5c-0.7,0.2-1.4,0.5-2.1,0.8c-14.6,5.5-26.3,16.6-32.8,30.7c-0.8,1.8-1.6,3.7-2.2,5.6
		l15.2,5.1c4-11.8,12.9-21.3,24.4-26v19.8c-2.6,1.5-4.9,3.3-6.9,5.4c-3.3,3.4-5.9,7.6-7.4,12.2c-10.1,6.1-18,15-22.8,25.6
		c-0.9,2-1.7,4-2.4,6l15.2,5.1c2.1-6.2,5.5-11.8,10.1-16.4C262,175.2,274.2,184,288,184h1.6c4.5,22.5,18.5,41.9,38.4,53.3v28.5
		l-56.9,11.6c-8,1.3-15.3,5-21.1,10.6h-1.4H224v-8v-32h-4.9H208v40h-16v-8v-16c0-4.4-3.6-8-8-8H56c-22.1,0-40,17.9-40,40
		c0,12.6,5.9,24.5,16,32c-17.7,13.2-21.3,38.3-8.1,55.9c2.3,3.1,5,5.8,8.1,8.1c-17.7,13.2-21.3,38.2-8.1,55.9c0,0,0,0.1,0.1,0.1h0
		c-4.4,0-8,3.6-8,8v32c0,4.4,3.6,8,8,8h188c19.9,0,36-16.1,36-36v-3l24.7-58.9c-2.8,18.3,2.3,37.4,15.3,52.9v45h16v-48
		c0-2-0.8-3.9-2.1-5.4c-17.7-19.2-18.4-46.7-2.2-66.6h136.7c16.2,19.9,15.5,47.4-2.2,66.6c-1.4,1.5-2.1,3.4-2.1,5.4v48h16v-45
		c21.4-25.4,21.4-60.7,0-86v-5h32v136h16V322.7C495.9,298.8,478.4,278.6,454.8,275.2z M248,304v29.6l-14.7,22
		c-1.1,1.6-1.5,3.5-1.3,5.4l6.9,55H192V304H248z M32,296c0-13.2,10.8-24,24-24h120v8.7v7.3h-5.2H48v16h122.9h5.1v16h-5.3H56
		C42.8,320,32,309.2,32,296z M32,360c0-13.2,10.8-24,24-24h114.5h5.5v16h-5.7H48v16h122.2h5.8v16h-6H56C42.8,384,32,373.2,32,360z
		 M56,400h113.8h6.2v16h-6.4H48v16h128v16H56c-13.3,0-24-10.7-24-24S42.7,400,56,400z M32,480v-16h144c0.2,5.7,1.9,11.2,4.9,16H32z
		 M232,460c0,5.9-2.6,11.4-7.1,15.2c-5.5,4.7-14.2,6.1-21,3.8c-3.5-1.2-6.6-3.5-8.8-6.6c-3.3-4.9-4-11.2-1.8-16.7c0,0,0-0.1,0.1-0.1
		l9.4-23.7H232V460z M253.4,402.7l-4.6-36.6l-0.5-4.1l0.5-0.8l2.3-3.4l18.3,6.9L253.4,402.7z M290.9,336H288c-3,0-5.8,1.7-7.2,4.4
		l-4.8,9.6l-15.8-5.9l2.4-3.6c0.9-1.3,1.3-2.9,1.3-4.4v-38.9c2.9-2,6.3-3.4,9.8-4l21.3-3.6L290.9,336z M421.4,285.6l-18,47.9
		l-23.9-9.5l24.4-42.8L421.4,285.6z M469.1,176c13.3,11.7,14.6,31.9,2.9,45.1s-31.9,14.6-45.1,2.9c-0.3-0.3-0.7-0.6-1-0.9
		c10.4-10.9,17.4-24.4,20.4-39.2h1.6C455.8,184,463.3,181.2,469.1,176L469.1,176z M464,152c0,8.8-7.2,16-16,16v-32
		C456.8,136,464,143.2,464,152z M288,168c-8.8,0-16-7.2-16-16s7.2-16,16-16V168z M288,119.6V104c0-39.7,32.3-72,72-72h16
		c39.7,0,72,32.3,72,72v16h-3.5l-21.7-36.1c-2.1-3.5-6.5-4.9-10.2-3.2c-0.7,0.3-70.2,31.8-117.8,38.2
		C292.5,119.2,290.2,119.5,288,119.6z M310.7,196.4c-4.4-8.8-6.7-18.6-6.7-28.4v-34.3c40.6-7,90.9-27.8,108.8-35.5l19.2,32V168
		c0,24.3-13.8,46.5-35.6,57.3C364.8,241.1,326.4,228.1,310.7,196.4z M332.1,281.2l24.4,42.8l-23.9,9.5l-18-47.9L332.1,281.2z
		 M360,360h-55.2l4-44.4l11.7,31.2c1.6,4.1,6.2,6.2,10.3,4.7c0.1,0,0.1,0,0.2-0.1l29-11.6V360z M344,269.9v-25.5
		c15.6,4.9,32.4,4.9,48,0v25.5l-24,42L344,269.9z M376,360v-20.2l29,11.6c4.1,1.6,8.8-0.4,10.4-4.5c0-0.1,0-0.1,0.1-0.2l11.7-31.2
		l4,44.4H376z M480,344h-34.1l-5-54.7l11.6,1.7c15.7,2.3,27.4,15.8,27.5,31.7V344z"/>
	<circle class="st2" cx="332" cy="140" r="12"/>
	<circle class="st2" cx="404" cy="140" r="12"/>
	<path class="st2" d="M392,176h-16c0,4.4-3.6,8-8,8s-8-3.6-8-8h-16c0,13.2,10.8,24,24,24C381.2,200,392,189.2,392,176z"/>
	<polygon class="st2" points="208,224 208,232 224,232 224,192 219,192 208,192 	"/>
	<path class="st2" d="M162.5,88.4l-3.7,11l-1.4,4.2c7.6,2.5,14.2,7.1,19.2,13.1c1.4,1.7,2.8,3.5,3.9,5.5c1.6,2.6,2.9,5.4,3.9,8.4
		l15.2-5.1c-2.2-6.6-5.6-12.7-9.8-18C182.8,98.7,173.4,92.1,162.5,88.4z"/>
	<polygon class="st2" points="208,56 208,64 224,64 224,24 219,24 208,24 	"/>
	<path class="st2" d="M162.5,40.4L159,51l-1.5,4.6c7.7,2.6,14.4,7.3,19.5,13.5c1.3,1.6,2.5,3.3,3.6,5.1c1.6,2.6,2.9,5.4,3.9,8.4
		l15.2-5.1c-2.2-6.7-5.6-12.8-9.9-18.1C182.7,50.7,173.3,44,162.5,40.4z"/>
	<path class="st2" d="M234.6,71.9c-0.8,1.8-1.6,3.7-2.2,5.6l15.2,5.1c4.3-12.7,14.2-22.7,26.9-26.9l-5.1-15.2
		c-0.7,0.2-1.4,0.5-2.1,0.8C252.8,46.7,241,57.8,234.6,71.9z"/>
	<path class="st2" d="M162.5,136.4L159,147l-1.5,4.6c7.7,2.6,14.4,7.3,19.5,13.5c1.3,1.6,2.5,3.3,3.6,5.1c1.6,2.6,2.9,5.4,3.9,8.4
		l15.2-5.1c-2.2-6.7-5.6-12.8-9.9-18.1C182.7,146.7,173.3,140,162.5,136.4z"/>
	<polygon class="st2" points="208,112 208,120 224,120 224,80 219,80 208,80 	"/>
	<path class="st2" d="M162.5,184.4L159,195l-1.5,4.6c7.7,2.6,14.4,7.3,19.5,13.5c1.3,1.6,2.5,3.3,3.6,5.1c1.6,2.6,2.9,5.4,3.9,8.4
		l15.2-5.1c-2.2-6.7-5.6-12.8-9.9-18.1C182.7,194.7,173.3,188,162.5,184.4z"/>
	<polygon class="st2" points="208,168 208,176 224,176 224,136 219,136 208,136 	"/>
	<path class="st2" d="M247.6,226.5c4.3-12.7,14.2-22.7,26.9-26.9l-5.1-15.2c-0.7,0.2-1.4,0.5-2.1,0.8c-14.6,5.5-26.3,16.6-32.8,30.7
		c-0.8,1.8-1.6,3.7-2.2,5.6L247.6,226.5z"/>
</g>
</svg>
