<?xml version="1.0" encoding="utf-8"?>
<!-- Generator: Adobe Illustrator 25.0.0, SVG Export Plug-In . SVG Version: 6.00 Build 0)  -->
<svg version="1.1" xmlns="http://www.w3.org/2000/svg" xmlns:xlink="http://www.w3.org/1999/xlink" x="0px" y="0px"
	 viewBox="0 0 512 512" style="enable-background:new 0 0 512 512;" xml:space="preserve">
<style type="text/css">
	.st0{fill:none;}
	.st1{fill:#8D6AD9;}
	.st2{fill:#404040;}
</style>
<g id="Layer_2">
</g>
<g id="Layer_1">
	<g>
		<path class="st0" d="M214.4,333.2l10.4,13c14.2-7,24.8-19.7,29-35l-15.4-4.8C235.1,318.6,226.2,328.6,214.4,333.2z"/>
		<path class="st0" d="M264,328.7V392c0,4.4,3.6,8,8,8c2.1,0,4.1-0.8,5.6-2.3c1.6-1.5,2.5-3.5,2.4-5.7v-72.6l-10.9-3.4
			C267.8,320.4,266.1,324.6,264,328.7z"/>
		<path class="st0" d="M216.1,360.9L200,340.8l-16.1,20.1c-2.1,2.7-5.8,3.7-9,2.5c-8.4-3.1-16.2-7.8-22.9-13.9V384h96v-34.4
			c-6.7,6-14.5,10.7-22.9,13.9C221.8,364.6,218.2,363.6,216.1,360.9z"/>
		<path class="st0" d="M400,313.3v-2.4c-0.2,0-0.3-0.1-0.5-0.1v3L400,313.3z"/>
		<path class="st0" d="M272,184v-48h-8c-17.6,0-34.2-8.3-44.8-22.4l-4.1-5.4l-11.4,11.4C193.2,130.1,179,136,164.1,136H128v48
			c0,39.7,32.3,72,72,72C239.7,256,272,223.7,272,184z M164,176c-6.6,0-12-5.4-12-12c0-6.6,5.4-12,12-12c6.6,0,12,5.4,12,12
			C176,170.6,170.6,176,164,176z M200,224c-13.2,0-24-10.8-24-24h16c0,4.4,3.6,8,8,8s8-3.6,8-8h16C224,213.2,213.2,224,200,224z
			 M236,176c-6.6,0-12-5.4-12-12c0-6.6,5.4-12,12-12c6.6,0,12,5.4,12,12C248,170.6,242.6,176,236,176z"/>
		<path class="st0" d="M334.6,350.5l-10.2-12.8l-2.8-8.4l-0.8-5.4l-4.9,8.5c-4.6-2.6-9.5-4.8-14.5-6.4l-5.5-1.7v61.8
			c4.9,2.8,8,8.1,8,13.8h5.6l-0.2-19.3l2.2-5.3l8.2-2.2l64.5,2.2l0-0.6c-0.2,0-0.4,0-0.6,0c-9.2,0-18.3-2.4-26.4-7
			c-4.6-2.7-8.7-6-12.2-9.8l-4.7-2.7L334.6,350.5z"/>
		<path class="st0" d="M315.2,284.8L300,172.7c-3.6,2.2-7.8,3.3-12,3.3v8c0,33-18.6,63.3-48,78.3v27.8l18.8,5.9h5.2
			c8.8,0,16-7.2,16-16h16c0,9.3-4.1,18.1-11.2,24.1l17,5.3C311.1,305,316.5,295,315.2,284.8z"/>
		<path class="st0" d="M416.8,351c0,0.1,0,0.3-0.1,0.4c8.3-2.8,12.5-4.2,12.4-4.3C429.2,347.1,425.1,348.4,416.8,351z"/>
		<path class="st0" d="M175.2,346.2l10.4-13c-11.8-4.6-20.7-14.6-24-26.8l-15.4,4.8C150.4,326.5,161,339.2,175.2,346.2z"/>
		<path class="st0" d="M112,160v-16c-4.4,0-8,3.6-8,8S107.6,160,112,160z"/>
		<path class="st0" d="M98.6,326.1c-30.1,9.3-50.7,37.2-50.6,68.7v5.2h48c0-5.7,3.1-10.9,8-13.8v-61.8L98.6,326.1L98.6,326.1z"/>
		<path class="st0" d="M32,424c0,4.4,3.6,8,8,8h56v-16H40C35.6,416,32,419.6,32,424z"/>
		<path class="st0" d="M160,262.3c-29.4-15-48-45.3-48-78.3v-8c-4.2,0-8.4-1.2-12-3.3L84.8,284.8c-1.3,10.3,4,20.2,13.3,24.7
			l17.1-5.3c-7.1-6-11.2-14.8-11.2-24.1h16c0,8.8,7.2,16,16,16h5.2l18.8-5.9V262.3z"/>
		<path class="st0" d="M120,319.4V392c0,2.1,0.8,4.1,2.3,5.6c1.5,1.6,3.5,2.5,5.7,2.4c4.4,0,8-3.6,8-8v-63.3
			c-2.1-4-3.8-8.3-5.1-12.7L120,319.4z"/>
		<polygon class="st0" points="452,471.7 449.4,476.5 444.5,478.3 358.8,478.3 359.1,480 456.9,480 462.9,432 456.9,432 		"/>
		<path class="st0" d="M345.1,286.7l-4.6-5.4l-3.8-8.3l-0.9-11.5l-2.5-2.2l-4.7-6.1l-2.2-5.2l4.7,34.7c-2.9,8.4-5.8,16.7-8.7,25.1
			l0.7-0.8l11.6-5.2l16-2.2l18.3,3.8l6.1,3.5c3.2,0.8,6.4,1.8,9.5,3.2c0-1.8,0-3.6,0-5.3l-9.3-4.2l-0.6-0.6
			c-5.1-0.8-9.8-2.8-13.7-5.7l-7.6-2L345.1,286.7z"/>
		<path class="st0" d="M416,372.2v1h3.5C418.3,372.9,417.1,372.6,416,372.2z"/>
		<path class="st0" d="M458.8,337.7l-7.8,11.1l-7.5,6.6l-5.3,3c16.4-2.7,29.4-16.2,30.9-33.5c-1.8-0.8-3.7-1.5-5.5-2.1l-0.6,4
			L458.8,337.7z"/>
		<path class="st0" d="M288,144v16c4.4,0,8-3.6,8-8S292.4,144,288,144z"/>
		<polygon class="st0" points="474.6,410.7 472,416 480,416 480,400 474.6,400 		"/>
		<path class="st0" d="M176,268.6V296c0,13.3,10.7,24,24,24s24-10.7,24-24v-27.4C208.3,273.1,191.7,273.1,176,268.6z"/>
		<path class="st0" d="M120,120h44.1c10.6,0,20.8-4.2,28.3-11.7l17.9-18c1.7-1.6,3.9-2.5,6.2-2.3c2.3,0.2,4.4,1.3,5.8,3.2L232,104
			c7.6,10,19.4,16,32,16h16c4.4,0,8,3.6,8,8c2.1,0,4.1,0.3,6.1,0.9l-2.8-20.7c-6-43.6-43.2-76.1-87.2-76.2h-8.2
			c-44,0.1-81.2,32.6-87.2,76.2l-2.8,20.7c2-0.6,4-0.8,6.1-0.9C112,123.6,115.6,120,120,120z"/>
		<path class="st0" d="M448.3,268.2l-3.8,11.5l-3,3.7c8.2-2.8,12.6-11.6,9.9-19.8c-0.7-2.1-0.4-4.3,0.6-6.2l-3.8,4.1L448.3,268.2z"
			/>
		<path class="st0" d="M319.4,316.3c0.2,0.1,0.3,0.2,0.5,0.2l-0.2-1.1C319.6,315.7,319.5,316,319.4,316.3z"/>
		<path class="st0" d="M459.5,238l-1,7.6l-4,9c0.3-0.2,0.5-0.3,0.8-0.5c3-1.5,5.4-3.9,6.9-6.9c3.6-7,1.4-15.4-4.7-19.9l2,4.4V238z"
			/>
		<path class="st0" d="M400,373.2v-1c-0.2,0.1-0.3,0.1-0.5,0.1v0.8H400z"/>
		<path class="st0" d="M448.3,214.8l2.9,2.9c0.1-0.4,0.1-0.8,0.3-1.2c1-3.2,1-6.6,0-9.8c-1.1-3.5-3.4-6.3-6.2-8.2l2.5,6.3
			L448.3,214.8z"/>
		<path class="st1" d="M328,384h72v-10.8h-0.5v-0.8c-4.9,1.5-10,2.3-15.2,2.4l0,0.6l-64.5-2.2l-8.2,2.2l-2.2,5.3l0.2,19.3h2.4v15.5
			l2.2,2.8h5.8V392C320,387.6,323.6,384,328,384z"/>
		<path class="st1" d="M432.8,300c-4.3,5.4-10.2,9.2-16.8,10.9v9.7c3.2-3.2,6.8-6,10.8-8.2c9.8-5.5,20.9-7.8,31.7-6.7l-4.6-2.3
			l-10.4-2.9l-4-0.3C437.4,300.3,435.1,300.3,432.8,300z"/>
		<path class="st1" d="M328,432c-0.3,0-0.6,0-0.9-0.1l5,39.7l1.2,3.2l3.5,3.4h6l-5.8-46.3H328z"/>
		<path class="st1" d="M429.2,347.2c0,0.1-4.1,1.5-12.4,4.3c-0.3,1.3-0.5,2.5-0.6,3.8c4,1.9,8.3,3.1,12.8,3.5
			c3.2,0.3,6.3,0.1,9.3-0.4l5.3-3l7.5-6.6l7.8-11.1l4.2-10.9l0.6-4c-9.6-2.8-20.1-1.6-28.9,3.4c-9.3,5.4-15.7,14.5-17.9,24.8
			C425.1,348.4,429.2,347.1,429.2,347.2z"/>
		<path class="st1" d="M384.5,304.6c0,1.8,0,3.6,0,5.3c1.6,0.7,3.2,1.5,4.8,2.4c3.9,2.3,7.5,5,10.8,8.2v-7.3l-0.5,0.4v-3
			c-6.4-1.8-12.2-5.5-16.4-10.7c-2.4,0.3-4.8,0.3-7.2,0c-0.5-0.1-0.9-0.1-1.4-0.2l0.6,0.6L384.5,304.6z"/>
		<path class="st1" d="M383.2,180c1.5-1.9,3.2-3.6,5.1-5.1c2-1.6,4.2-2.9,6.4-4l-2.7-0.4l-12.8,2.9l-10.3,8.2
			C373.4,180,378.2,179.4,383.2,180z"/>
		<path class="st1" d="M328.5,253.1l4.7,6.1l2.5,2.2l0.9,11.5l3.8,8.3l4.6,5.4l8.2,5.4l7.6,2c-8.9-6.5-14.2-17.5-12.8-29.2
			c-1.9-1.5-3.6-3.2-5.1-5.1c-10.9-13.7-8.6-33.7,5.1-44.6c-0.3-2.4-0.3-4.8,0-7.2c1.4-12.2,9.6-22,20.3-26.1l-8.9,0.4l-9,3.4
			l-6.9,5.5l-6,9.5l-1.8,7.4l0,6.8l-5.4,5.5l-4.5,8.9l-1.1,6.9l1.6,11.7L328.5,253.1z"/>
		<polygon class="st1" points="474.6,400 336,400 336,416 472,416 474.6,410.7 		"/>
		<path class="st1" d="M365.4,354L365.4,354c10.6,6,23.4,6.5,34.5,1.3c-0.4-4.4-1.6-8.8-3.5-12.8c-8.8-18.5-31-26.4-49.5-17.6
			C348,337,354.9,347.8,365.4,354z"/>
		<circle class="st1" cx="408" cy="240" r="16"/>
		<polygon class="st1" points="449.4,476.5 452,471.7 456.9,432 353.1,432 358.8,478.3 444.5,478.3 		"/>
		<path class="st1" d="M350.6,299.4l-16,2.2l-11.6,5.2l-0.7,0.8c-0.9,2.6-1.8,5.1-2.7,7.7l0.2,1.1c1.4,0.7,2.8,1.3,4.1,2.1l-3.1,5.3
			l0.8,5.4l2.8,8.4l10.2,12.8l5.8,4.9l4.7,2.7c-9.5-10.2-14.9-23.7-14.5-38c0-2.8,1.5-5.3,3.9-6.7c12.3-7.5,26.9-9.7,40.5-6.5
			l-6.1-3.5L350.6,299.4z"/>
		<path class="st1" d="M419.5,373.2H416V384h58.6v-6.2l-3.4-3.4l-4.1-1.2h-21.7c-4.2,1.1-8.6,1.6-13,1.6
			C427.9,374.8,423.7,374.2,419.5,373.2z"/>
		<path class="st1" d="M422.1,287.4c1.8-3.4,5.8-5.1,9.4-3.9c3.2,1,6.6,1,9.7,0c0.1,0,0.2-0.1,0.2-0.1l3-3.7l3.8-11.5l0-6.8l3.8-4.1
			c0.6-1.1,1.4-2.1,2.5-2.8l4-9l1-7.6v-6.3l-2-4.4c-0.7-0.5-1.4-1-2.2-1.4c-3-1.6-4.7-4.9-4.2-8.3l-2.9-2.9l-0.5-10l-2.5-6.3
			c-3.9-2.6-8.9-3.5-13.8-2c-3.7,1.1-7.7-0.5-9.4-3.9c-1.5-3-3.9-5.4-6.9-6.9c-7.8-4-17.3-0.9-21.3,6.9c-1.8,3.4-5.8,5.1-9.4,3.9
			c-3.2-1-6.6-1-9.7,0c-8.3,2.7-12.9,11.6-10.2,19.9c1.1,3.7-0.5,7.7-3.9,9.5c-3,1.5-5.4,3.9-6.9,6.9c-4,7.8-0.9,17.3,6.9,21.3
			c3.4,1.8,5.1,5.8,3.9,9.5c-1,3.2-1,6.6,0,9.8c2.7,8.3,11.6,12.8,19.9,10.1c0.8-0.2,1.6-0.4,2.4-0.4c3,0,5.7,1.6,7.1,4.3h0
			c1.5,3,3.9,5.4,6.9,6.9C408.6,298.2,418.1,295.1,422.1,287.4z M376,240c0-17.7,14.3-32,32-32c17.7,0,32,14.3,32,32s-14.3,32-32,32
			C390.3,272,376,257.7,376,240z"/>
		<circle class="st2" cx="164" cy="164" r="12"/>
		<circle class="st2" cx="236" cy="164" r="12"/>
		<path class="st2" d="M200,208c-4.4,0-8-3.6-8-8h-16c0,13.2,10.8,24,24,24c13.2,0,24-10.8,24-24h-16C208,204.4,204.4,208,200,208z"
			/>
		<path class="st2" d="M309.6,400H304c0-5.7-3.1-10.9-8-13.8v-61.8l5.5,1.7c5.1,1.6,9.9,3.7,14.5,6.4l4.9-8.5l3.1-5.3
			c-1.3-0.8-2.7-1.4-4.1-2.1c-0.2-0.1-0.3-0.2-0.5-0.2c0.1-0.3,0.2-0.6,0.3-0.9c0.9-2.6,1.8-5.1,2.7-7.7c2.9-8.4,5.8-16.7,8.7-25.1
			l-4.7-34.7l-1.6-11.7l-17.6-130.1C300,54.5,256.1,16.1,204.1,16h-8.2c-52,0.1-95.9,38.5-103,90L69,282.6
			c-1.6,12.4,2.7,24.8,11.5,33.6C50.7,331,31.9,361.5,32,394.8v6.7c-12.4,4.3-19,17.9-14.7,30.4c2.4,6.9,7.8,12.3,14.7,14.7
			c0,11.1,0,22.2,0,33.3c2.6,0,5.3,0,7.9,0c2.4,0,4.8,0,7.2,0c0-4.1,0.1-8.3,0.2-12.5c0.2-6.6,0.4-13,0.7-19.3c16,0,32,0,48,0
			c0.1,10.6,0.2,21.2,0.3,31.8c2.6,0,5.2,0,7.7,0c2.3,0,4.7,0,7,0c0.3-23.4,0.7-46.7,1-70.1c4.3,4,10.1,6.3,16,6.3
			c10.1,0,19.1-6.4,22.5-16h98.9c3.4,9.6,12.4,16,22.5,16c5.9,0,11.7-2.2,16-6.3V480c2.7-0.1,5.6-0.2,8.5-0.2c2.6,0,5.1,0.1,7.5,0.2
			v-32h8v-16h-8v-16h8v-0.5V400H309.6z M108.7,108.2c6-43.6,43.2-76.1,87.2-76.2h8.2c44,0.1,81.2,32.6,87.2,76.2l2.8,20.7
			c-2-0.6-4-0.8-6.1-0.9c0-4.4-3.6-8-8-8h-16c-12.6,0-24.4-6-32-16l-9.6-12.8c-1.4-1.9-3.5-3-5.8-3.2c-2.3-0.1-4.6,0.7-6.2,2.3
			l-17.9,18c-7.5,7.5-17.7,11.7-28.3,11.7H120c-4.4,0-8,3.6-8,8c-2.1,0-4.1,0.3-6.1,0.9L108.7,108.2z M296,152c0,4.4-3.6,8-8,8v-16
			C292.4,144,296,147.6,296,152z M200,256c-39.7,0-72-32.3-72-72v-48h36.1c14.9,0,29.1-5.9,39.6-16.4l11.4-11.4l4.1,5.4
			c10.6,14.1,27.2,22.4,44.8,22.4h8v48C272,223.7,239.7,256,200,256z M224,268.6V296c0,13.3-10.7,24-24,24s-24-10.7-24-24v-27.4
			C191.7,273.1,208.3,273.1,224,268.6z M112,144v16c-4.4,0-8-3.6-8-8S107.6,144,112,144z M96,432H40c-4.4,0-8-3.6-8-8s3.6-8,8-8h56
			V432z M104,386.2c-4.9,2.8-8,8.1-8,13.8H48v-5.2c-0.1-31.5,20.4-59.4,50.6-68.7h0l5.5-1.7V386.2z M136,392c0,4.4-3.6,8-8,8
			c-2.2,0-4.2-0.9-5.7-2.4c-1.5-1.5-2.3-3.5-2.3-5.6v-72.6l10.9-3.4c1.3,4.4,3,8.6,5.1,12.7V392z M141.2,296H136
			c-8.8,0-16-7.2-16-16h-16c0,9.3,4.1,18.1,11.2,24.1l-17.1,5.3c-9.3-4.5-14.7-14.5-13.3-24.7L100,172.7c3.6,2.2,7.8,3.3,12,3.3v8
			c0,33,18.6,63.3,48,78.3v27.8L141.2,296z M146.1,311.2l15.4-4.8c3.3,12.2,12.2,22.2,24,26.8l-10.4,13
			C161,339.2,150.4,326.5,146.1,311.2z M248,384h-96v-34.4c6.7,6,14.5,10.7,22.9,13.9c3.2,1.2,6.9,0.2,9-2.5l16.1-20.1l16.1,20.1
			c2.1,2.7,5.8,3.7,9,2.5c8.4-3.1,16.2-7.8,22.9-13.9V384z M224.8,346.2l-10.4-13c11.8-4.6,20.7-14.6,24-26.8l15.4,4.8
			C249.6,326.5,239,339.2,224.8,346.2z M280,392c0,2.2-0.9,4.2-2.4,5.7c-1.5,1.5-3.5,2.3-5.6,2.3c-4.4,0-8-3.6-8-8v-63.3
			c2.1-4,3.8-8.3,5.1-12.7l10.9,3.4V392z M284.8,304.1c7.1-6,11.2-14.8,11.2-24.1h-16c0,8.8-7.2,16-16,16h-5.2l-18.8-5.9v-27.8
			c29.4-15,48-45.3,48-78.3v-8c4.2,0,8.4-1.2,12-3.3l15.2,112.1c1.3,10.2-4.1,20.2-13.4,24.7L284.8,304.1z"/>
		<path class="st2" d="M440,240c0-17.7-14.3-32-32-32c-17.7,0-32,14.3-32,32s14.3,32,32,32C425.7,272,440,257.7,440,240z M392,240
			c0-8.8,7.2-16,16-16s16,7.2,16,16s-7.2,16-16,16S392,248.8,392,240z"/>
		<path class="st2" d="M488,384h-13.4H416v-10.8v-1c1.1,0.4,2.3,0.7,3.5,1c4.2,1,8.5,1.6,12.8,1.6c4.4,0,8.8-0.5,13-1.6
			c4.6-1.2,9.1-3,13.3-5.4c16.9-9.9,27.2-28.2,26.8-47.8c0-2.8-1.5-5.3-3.9-6.7c-7.1-4.4-15-6.9-23.1-7.7c-10.8-1-21.9,1.2-31.7,6.7
			c-3.9,2.3-7.5,5-10.8,8.2v-9.7c6.6-1.7,12.6-5.5,16.8-10.9c2.3,0.3,4.5,0.3,6.7,0.1c14.6-1.4,26.7-12.8,28.4-28
			c0.3-2.4,0.3-4.8,0-7.2c13.7-10.9,16-30.9,5.1-44.6c-1.5-1.9-3.2-3.6-5.1-5.1c2-17.4-10.5-33.2-27.9-35.1c-2.4-0.3-4.8-0.3-7.2,0
			c-9.3-11.7-25.2-15.1-38.1-9.1c-2.2,1-4.4,2.4-6.4,4c-1.9,1.5-3.6,3.2-5.1,5.1c-5-0.6-9.8,0-14.2,1.6c-0.2,0.1-0.4,0.2-0.6,0.2
			c-10.8,4.1-18.9,13.9-20.3,26.1c-0.3,2.4-0.3,4.8,0,7.2c-13.7,10.9-16,30.9-5.1,44.6c1.5,1.9,3.2,3.6,5.1,5.1
			c-1.3,11.7,3.9,22.7,12.8,29.2c3.9,2.9,8.6,4.9,13.7,5.7c0.5,0.1,0.9,0.1,1.4,0.2c2.4,0.3,4.8,0.3,7.2,0c4.2,5.2,9.9,9,16.4,10.7
			c0.2,0,0.3,0.1,0.5,0.1v2.4v7.3c-3.2-3.2-6.8-6-10.8-8.2c-1.6-0.9-3.1-1.7-4.8-2.4c-3.1-1.4-6.3-2.4-9.5-3.2
			c-13.6-3.2-28.2-1-40.5,6.5c-2.4,1.4-3.8,4-3.9,6.7c-0.3,14.3,5.1,27.9,14.5,38c3.5,3.8,7.6,7.1,12.2,9.8c8,4.6,17.1,7,26.4,7
			c0.2,0,0.4,0,0.6,0c5.1-0.1,10.2-0.9,15.2-2.4c0.2-0.1,0.3-0.1,0.5-0.1v1V384h-72c-4.4,0-8,3.6-8,8v26.2v5.8
			c0,4.1,3.1,7.5,7.1,7.9c0.3,0,0.6,0.1,0.9,0.1h8.9l5.8,46.3l1.3,10.7c0.5,4,3.9,7,7.9,7h112c4,0,7.4-3,7.9-7l7.1-57h8.9
			c4.4,0,8-3.6,8-8v-32C496,387.6,492.4,384,488,384z M434.7,326.2c8.9-5,19.3-6.1,28.9-3.4c1.9,0.5,3.7,1.2,5.5,2.1
			c-1.5,17.3-14.6,30.8-30.9,33.5c-3,0.5-6.1,0.6-9.3,0.4c-4.4-0.4-8.8-1.6-12.8-3.5c0.1-1.3,0.3-2.6,0.6-3.8c0-0.1,0-0.3,0.1-0.4
			C419,340.7,425.5,331.6,434.7,326.2z M393.9,287.4L393.9,287.4c-1.4-2.6-4.1-4.3-7-4.3c-0.8,0-1.6,0.1-2.4,0.4
			c-8.3,2.7-17.2-1.8-19.9-10.1c-1-3.2-1-6.6,0-9.8c1.1-3.7-0.5-7.7-3.9-9.5c-7.8-4-10.9-13.5-6.9-21.3c1.5-3,3.9-5.4,6.9-6.9
			c3.4-1.8,5.1-5.8,3.9-9.5c-2.7-8.3,1.9-17.2,10.2-19.9c3.2-1,6.6-1,9.7,0c3.7,1.1,7.7-0.5,9.4-3.9c4-7.8,13.5-10.9,21.3-6.9
			c3,1.5,5.4,3.9,6.9,6.9c1.8,3.4,5.8,5.1,9.4,3.9c4.8-1.6,9.9-0.7,13.8,2c2.8,1.9,5,4.7,6.2,8.2c1,3.2,1,6.6,0,9.8
			c-0.1,0.4-0.2,0.8-0.3,1.2c-0.5,3.3,1.1,6.7,4.2,8.3c0.8,0.4,1.5,0.9,2.2,1.4c6.1,4.5,8.3,12.9,4.7,19.9c-1.5,3-3.9,5.4-6.9,6.9
			c-0.3,0.1-0.5,0.3-0.8,0.5c-1.1,0.7-1.9,1.7-2.5,2.8c-1,1.8-1.3,4.1-0.6,6.2c2.7,8.2-1.8,17-9.9,19.8c-0.1,0-0.2,0.1-0.2,0.1
			c-3.2,1-6.6,1-9.7,0c-3.7-1.1-7.7,0.5-9.4,3.9c-4,7.8-13.5,10.9-21.3,6.9C397.8,292.8,395.4,290.3,393.9,287.4z M396.3,342.5
			c1.9,4,3.1,8.4,3.5,12.8c-11,5.1-23.9,4.7-34.5-1.3l0,0c-10.5-6.1-17.4-17-18.5-29.1C365.4,316.1,387.5,323.9,396.3,342.5z
			 M456.9,480h-97.9l-0.2-1.7l-5.8-46.3h103.9h6L456.9,480z M480,416h-8H336v-16h138.6h5.4V416z"/>
	</g>
</g>
</svg>
