<?xml version="1.0" encoding="utf-8"?>
<!-- Generator: Adobe Illustrator 25.0.0, SVG Export Plug-In . SVG Version: 6.00 Build 0)  -->
<svg version="1.1" xmlns="http://www.w3.org/2000/svg" xmlns:xlink="http://www.w3.org/1999/xlink" x="0px" y="0px"
	 viewBox="0 0 512 512" style="enable-background:new 0 0 512 512;" xml:space="preserve">
<style type="text/css">
	.st0{fill:#8D6AD9;}
	.st1{fill:#404040;}
</style>
<g id="Layer_2">
	<path class="st0" d="M170.2,170.2l12.3-12.9c3.8-5.8,7.6-11.7,11.4-17.5c2.4-5.9,4.7-12.8,6.5-20.4c0.9-3.8,1.6-7.4,2.2-10.9
		c0.5-1.8,1-3.8,1.3-6.1c0.7-6.1-0.2-11.3-1.3-14.8c-0.1-1.6-0.2-3.2-0.5-4.9c-0.9-6.6-2.8-12.2-4.8-16.7c-1.4-0.9-2.7-1.8-4.1-2.7
		h-4.9c-13.5,13.1-27,26.2-40.5,39.3c-1.8,1.4-4.4,3.7-7.1,6.8c-2.8,3.2-3,4.3-5.3,6.3c-1.2,1-5.1,4.3-10,4.1
		c-3.6-0.1-6.4-1.8-7.9-3.3C107.2,106.2,97,96,86.9,85.7c-0.6-1-1.7-3.1-1.7-6c0-4.5,2.6-7.4,3.3-8.1c2.9-2.9,5.7-5.8,8.6-8.7
		C107.1,53,117,43,127,33c3.4-3.4,8.3-8.7,14.3-15.2c0.3-0.6,1.3-2.9,0.5-5.7c-1.1-3.9-4.8-5.3-5.2-5.4c-4.7-1.5-10.3-3-16.8-3.8
		C115,2.2,110.6,2,106.7,2c-3.9-0.2-8.8-0.2-14.3,0.7c-6.8,1.1-12.5,3-16.7,4.8c-5,1.9-10,3.9-15,5.8c-4.3,2.5-9,5.8-14,9.9
		c-6.4,5.4-11.4,10.8-15.2,15.5c-3.4,5.4-6.8,10.7-10.2,16.1c-2.3,4.5-4.5,9.9-6.4,16.1C11,84.1,10.7,96,11.2,104.5
		c0.3,4.9,1.1,10.6,2.7,16.9c1.3,5.2,2.9,9.7,4.5,13.5c2,4.9,5,10.8,9.2,17c3.9,5.7,7.9,10.3,11.5,13.8c2.3,2.9,5.7,6.5,10.4,9.8
		c3.4,2.5,6.7,4.2,9.5,5.5V242h0.5v59.3l-15.2,10.8L32,325c-3.8,5.8-7.6,11.7-11.4,17.5c-2.4,5.9-4.7,12.8-6.5,20.4
		c-0.9,3.8-1.6,7.4-2.2,10.9c-0.5,1.8-1,3.8-1.3,6.1c-0.7,6.1,0.2,11.3,1.3,14.8c0.1,1.6,0.2,3.2,0.5,4.9c0.9,6.6,2.8,12.2,4.8,16.7
		c1.4,0.9,2.7,1.8,4.1,2.7h4.9c13.5-13.1,27-26.2,40.5-39.3c1.8-1.4,4.4-3.7,7.1-6.8c2.8-3.2,3-4.3,5.3-6.3c1.2-1,5.1-4.3,10-4.1
		c3.6,0.1,6.4,1.8,7.9,3.3c10.1,10.2,20.3,20.5,30.4,30.7c0.6,1,1.7,3.1,1.7,6c0,4.5-2.6,7.4-3.3,8.1c-2.9,2.9-5.7,5.8-8.6,8.7
		c-10,10-19.9,20-29.9,29.9c-3.4,3.4-8.3,8.7-14.3,15.2c-0.3,0.6-1.3,2.9-0.5,5.7c1.1,3.9,4.8,5.3,5.2,5.4c4.7,1.5,10.3,3,16.8,3.8
		c4.8,0.7,9.2,0.9,13.1,0.9c3.9,0.2,8.8,0.2,14.3-0.7c6.8-1.1,12.5-3,16.7-4.8c5-1.9,10-3.9,15-5.8c4.3-2.5,9-5.8,14-9.9
		c6.4-5.4,11.4-10.8,15.2-15.5c3.4-5.4,6.8-10.7,10.2-16.1c2.3-4.5,4.5-9.9,6.4-16.1c3.9-13.4,4.3-25.3,3.7-33.7
		c-0.3-4.9-1.1-10.6-2.7-16.9c-1.3-5.2-2.9-9.7-4.5-13.5c-2-4.9-5-10.8-9.2-17c-3.9-5.7-7.9-10.3-11.5-13.8
		c-2.3-2.9-5.7-6.5-10.4-9.8c-3.4-2.5-6.7-4.2-9.5-5.5v-60.9H155v-59.3L170.2,170.2z"/>
</g>
<g id="Layer_1">
	<g id="Outline">
		<path class="st1" d="M447.9,274.2l-39.6-5.6l-24.4-9.9V240c17.9-13.4,29.4-33.7,31.6-56h0.4c17.7,0,32-14.3,32-32
			c0-14.3-9.5-26.9-23.3-30.8c1.6-6.1,1.4-12.6-0.7-18.6V72c0-30.9-25.1-56-56-56h-64c-30.9,0-56,25.1-56,56v30.6
			c-2.1,6-2.3,12.5-0.7,18.6c-17,4.8-26.9,22.5-22.1,39.5c3.9,13.8,16.5,23.3,30.8,23.3h0.4c2.2,22.3,13.7,42.6,31.6,56v19
			l-24.8,11.9l-43,9.2c-23.6,5.2-41.2,24.9-43.9,48.9c-5-4.5-10.5-8.5-16.3-11.9V195.1c39.3-22.6,57.3-69.6,43.3-112.7
			c-1.4-4.2-5.9-6.5-10.1-5.1c-1.2,0.4-2.3,1-3.1,1.9l-51.6,51.2c-2.2,2.1-5.1,3.3-8.2,3.3c-3,0-5.8-1.2-7.9-3.3l-28.7-28.7
			c-2.1-2.1-3.3-5-3.3-7.9c0-3,1.2-6,3.3-8.1L144.8,34c3.1-3.1,3.1-8.2,0-11.3c-0.9-0.9-2-1.5-3.2-1.9C91.2,4.3,37.1,31.9,20.7,82.3
			c-14,43.1,4,90.1,43.3,112.8v121.9c-39.3,22.6-57.3,69.6-43.3,112.7c1.4,4.2,5.9,6.5,10.1,5.1c1.2-0.4,2.3-1,3.1-1.9l51.6-51.2
			c2.2-2.1,5.1-3.3,8.2-3.3c3,0,5.8,1.2,7.9,3.3l28.7,28.7c2.1,2.1,3.3,5,3.3,7.9c0,3-1.2,6-3.3,8.1L79.2,478
			c-3.1,3.1-3.1,8.2,0,11.3c0.9,0.9,2,1.5,3.2,1.9c33.1,10.8,70.9,1.9,95.8-22.1c5.6,16,20.8,26.8,37.8,26.8h24
			c0.6,0,88-18.4,88-18.4V496h16v-18.4l86.4,18.2c0.5,0.1,1.1,0.2,1.6,0.2h24c22.1,0,40-17.9,40-40V329.6
			C495.8,301.8,475.4,278.3,447.9,274.2z M336,360.2L324.5,328h23L336,360.2z M304,249.3c20.4,9,43.6,9,64,0v13.5L352.7,312h-33.3
			L304,262.8V249.3z M366.1,322.6l14.9-47.9l16.8,6.8l-4.8,57.3l-26.9-15.4l0.3-0.7L366.1,322.6z M368.9,125.4
			c-21.8-3.6-44-3.6-65.8,0l-21.9,3.7c-8.9,1.5-17.2-4.5-18.7-13.4c-0.2-1.2-0.3-2.4-0.2-3.6h147.4c0.5,9-6.3,16.7-15.3,17.2
			c-1.2,0.1-2.4,0-3.6-0.2L368.9,125.4z M360,96h-48V80h48V96z M432,152c0,8.8-7.2,16-16,16v-31.9c0,0,0.1-0.1,0.1-0.1
			C424.9,136.1,432,143.2,432,152z M264,72c0-22.1,17.9-40,40-40h64c22.1,0,40,17.9,40,40v24h-32V72c0-4.4-3.6-8-8-8h-64
			c-4.4,0-8,3.6-8,8v24h-32V72z M244.7,163.3c-6.3-6.2-6.3-16.4,0-22.6c3-3,7-4.7,11.3-4.7l0.1,0.1V168
			C251.8,168,247.7,166.3,244.7,163.3z M272,176v-31.4c3.9,0.8,7.9,0.8,11.8,0.2l4.9-0.8c-2.2,6.2,1,13.1,7.3,15.3
			c6.2,2.2,13.1-1,15.3-7.3c1.4-3.9,0.7-8.2-1.9-11.5c17.6-2.6,35.5-2.6,53.2,0c-4.1,5.2-3.2,12.7,2,16.9c5.2,4.1,12.7,3.2,16.9-2
			c2.6-3.2,3.3-7.6,1.9-11.5l4.9,0.8c3.4,0.7,9.7,0.2,11.8-0.2V176c0,35.3-28.7,64-64,64S272,211.3,272,176L272,176z M291.1,275.2
			l14.8,47.4l-0.3,0.1l0.3,0.7l-26.9,15.4l-4.6-55.5L291.1,275.2z M223.6,295.7l35.1-7.5l5.4,64.5c0.2,2.7,1.8,5.1,4.2,6.4
			c1.2,0.6,6.5,0.6,7.7-0.1l35.4-20.2l16.6,46.7v18.3l-46.1-3.5L248,385.6V352h-16v26.7l-4.8-2.1c-1-0.4-2.1-0.6-3.2-0.6h-32v-41.2
			C192.1,316,205.2,299.7,223.6,295.7z M121.9,479.4c-7.1,0.9-14.3,0.8-21.3-0.2l41.3-41.6c5.1-5.2,7.9-12.1,7.9-19.4
			c0-7.2-2.9-14.2-8-19.3L113,370.3c-5.1-5.1-12-8-19.3-8c-7.3,0-14.2,2.8-19.4,7.9l-41.5,41.2c-4.9-33.9,12.3-67.1,42.8-82.6
			c2.7-1.4,4.4-4.1,4.4-7.1V190.3c0-3-1.7-5.8-4.4-7.1c-28.4-14.5-45.5-44.5-43.5-76.3c2.3-37.7,32.4-69.6,69.9-74.3
			c7.1-0.9,14.3-0.8,21.3,0.2L82.1,74.4c-5.1,5.2-7.9,12.1-7.9,19.4c0,7.2,2.9,14.2,8,19.3l28.7,28.7c5.1,5.1,12,8,19.3,8
			c7.3,0,14.2-2.8,19.4-7.9l41.5-41.2c4.9,33.9-12.3,67.1-42.8,82.6c-2.7,1.4-4.4,4.1-4.4,7.1v131.4c0,3,1.7,5.8,4.4,7.1
			c10.9,5.6,20.3,13.6,27.6,23.3v95.5C163,465.1,143.5,476.6,121.9,479.4z M239.2,480H216c-13.2,0-24-10.8-24-24v-8h28.7l13.7,13.7
			c1.5,1.5,3.5,2.3,5.7,2.3h39.2l17.9,3.8L239.2,480z M480,456c0,13.2-10.8,24-24,24h-23.2l-151.2-31.8c-0.5-0.1-38.3-0.2-38.3-0.2
			l-13.7-13.7c-1.5-1.5-3.5-2.3-5.7-2.3h-32v-40h30.4c0,0,56.2,23.9,57,24L480,431.4V456z M480,415.4l-71.9-5.5l41.6-17.8H480V415.4
			z M480,376h-32c-1.1,0-8,2.7-8,2.7V352h-16v24h-64v16h49.1l-19,8.1l-46.1,3.6v-18.3l16.6-46.7l35.4,20.2c3.8,2.2,8.7,0.9,10.9-3
			c0.6-1,0.9-2.1,1-3.3l5.6-67.2l32.1,4.6c19.6,2.9,34.2,19.7,34.4,39.6V376z"/>
		<rect x="296" y="368" class="st1" width="16" height="16"/>
		<path class="st1" d="M362.3,195.1l-4.6-15.3c-9.3,2.8-19,4.2-28.7,4.2H312v16h16.9C340.2,200,351.5,198.4,362.3,195.1z"/>
		<rect x="104" y="184" class="st1" width="16" height="144"/>
	</g>
	<path class="st1" d="M411.8,79.8c0.1,3.2,0.3,6.5,0.4,9.7c1.8,6.3,2.7,12.9,2.7,19.5h0v8l-2.3-0.1c-0.6,22.5-3.1,44.9-3.9,67.5
		c-0.3,7.9-0.3,15.8-0.6,23.7c5.2,26.1,28.1,45,54.9,45c4.4,0,8-3.6,8-8V125c0-28.4-21.2-52.2-49.4-55.6h0
		c-3.4-6.7-7.6-12.9-12.4-18.4C410.8,60.5,411.4,70.2,411.8,79.8z M454.9,125v111.2c-18.6-3.8-32-20.2-32-39.2v-17
		c17.1-4.4,27.4-21.9,23-39c-2.1-8.3-7.5-15.4-15-19.7V109c0-7.3-0.9-14.6-2.7-21.7C444.1,92.9,454.8,108,454.9,125z M430.9,149
		c0,8.8-7.2,16-16,16v-32C423.7,133,430.9,140.2,430.9,149z"/>
</g>
</svg>
