<?xml version="1.0" encoding="utf-8"?>
<!-- Generator: Adobe Illustrator 25.0.0, SVG Export Plug-In . SVG Version: 6.00 Build 0)  -->
<svg version="1.1" id="Layer_1" xmlns="http://www.w3.org/2000/svg" xmlns:xlink="http://www.w3.org/1999/xlink" x="0px" y="0px"
	 viewBox="0 0 577.5 480.9" style="enable-background:new 0 0 577.5 480.9;" xml:space="preserve">
<style type="text/css">
	.st0{fill:none;}
	.st1{fill:#8D6AD9;}
	.st2{fill:#404040;}
</style>
<g>
	<path class="st0" d="M475.8,128v16c4.4,0,8-3.6,8-8S480.2,128,475.8,128z"/>
	<path class="st0" d="M307.8,104h44.1c10.6,0,20.8-4.2,28.3-11.7l17.9-18c1.7-1.6,3.9-2.5,6.2-2.3c2.3,0.2,4.4,1.3,5.8,3.2l9.6,12.8
		c7.6,10,19.4,16,32,16h16c4.4,0,8,3.6,8,8c2.1,0,4.1,0.3,6.1,0.9l-2.8-20.7c-6-43.6-43.2-76.1-87.2-76.2h-8.2
		c-44,0.1-81.2,32.6-87.2,76.2l-2.8,20.7c2-0.6,4-0.8,6.1-0.9C299.8,107.6,303.4,104,307.8,104z"/>
	<path class="st0" d="M299.8,144v-16c-4.4,0-8,3.6-8,8S295.4,144,299.8,144z"/>
	<path class="st0" d="M299.8,168v-8c-4.2,0-8.4-1.2-12-3.3l-15.2,112.1c-1.3,10.2,4,20.2,13.3,24.7l17.1-5.3
		c-7.1-6-11.2-14.8-11.2-24.1h16c0,8.8,7.2,16,16,16h5.2l18.8-5.9v-27.8C318.4,231.3,299.8,201,299.8,168z"/>
	<path class="st0" d="M125.4,442.3c-0.1,0.1-0.1,0.1-0.2,0.2c-1.5,1.5-2.3,3.5-2.3,5.5c0,4.4,3.6,8,8,8c29.6-0.1,59.2-0.1,88.8-0.2
		V438c-29.6,0.7-59.2,1.3-88.8,2C128.9,440,126.9,440.8,125.4,442.3z"/>
	<circle class="st0" cx="387.8" cy="328" r="8"/>
	<path class="st0" d="M140.9,361.7l-58.7,1.2l-31-0.1c1.3,7.5,7.9,13.1,15.7,13.2c51-0.3,101.9-0.6,152.9-0.9
		c0.2-4.1,0.6-8.1,1.3-12.1l-31.3-0.1L140.9,361.7z"/>
	<path class="st0" d="M158.1,424c20.6-0.3,41.1-0.7,61.7-1v-32.9c-17,0.6-34,1.3-51,1.9L158.1,424z"/>
	<path class="st0" d="M459.8,168v-48h-8c-17.6,0-34.2-8.3-44.8-22.4l-4.1-5.4l-11.4,11.4C381,114.1,366.8,120,351.9,120h-36.1v48
		c0,39.7,32.3,72,72,72C427.5,240,459.7,207.7,459.8,168z M335.8,144c0-6.6,5.4-12,12-12c6.6,0,12,5.4,12,12c0,6.6-5.4,12-12,12
		C341.2,156,335.8,150.6,335.8,144z M387.8,216c-17.7,0-32-14.3-32-32h16c0,8.8,7.2,16,16,16s16-7.2,16-16h16
		C419.8,201.7,405.5,216,387.8,216z M427.8,156c-6.6,0-12-5.4-12-12c0-6.6,5.4-12,12-12c6.6,0,12,5.4,12,12
		C439.8,150.6,434.4,156,427.8,156z"/>
	<path class="st0" d="M487.8,156.7c-3.6,2.2-7.8,3.3-12,3.3v8c0,33-18.6,63.3-48,78.3v27.8l18.8,5.9h5.2c8.8,0,16-7.2,16-16h16
		c0,9.3-4.1,18.1-11.2,24.1l17.1,5.3c9.3-4.5,14.7-14.5,13.3-24.7L487.8,156.7z"/>
	<path class="st0" d="M363.8,252.6V280c0,13.3,10.7,24,24,24s24-10.7,24-24v-27.4C396.1,257.1,379.5,257.1,363.8,252.6z"/>
	<path class="st1" d="M237.5,363l6.8,0l11.7-2.7l10.4-8.7l4.2-8.1l1.6-9.7l0-17.7C254.6,326.1,241.9,343.2,237.5,363z"/>
	<path class="st1" d="M51,360c0,1,0.1,1.9,0.3,2.8l31,0.1l58.7-1.2l49,1.2l31.3,0.1c0.7-3.8,1.6-7.6,2.8-11.2
		c-57.7,0.1-115.3,0.2-173,0.2V360z"/>
	<path class="st1" d="M35,176c0-17.7,14.3-32,32-32c65.4-0.1,130.8-0.1,196.2-0.2l0-0.1l-9.9-5.9l-8.5-1.4l-179-0.4l0,0.2l-37.4-0.1
		l-8.6,1.4l-9.9,5.9l-8.1,12.9l-1.4,9.1L0,333.5l1.6,9.7l4.2,8.1l10.4,8.7l11.7,2.7l7.3,0c-0.1-0.9-0.1-1.9-0.1-2.8V176z"/>
	<path class="st1" d="M271.1,160.5c-7.5-0.2-14.9-0.3-22.4-0.5H67c-8.8,0-16,7.2-16,16v160c59.6,0.6,119.3,1.1,178.9,1.7
		c8.4-15.9,21.6-29.1,38.3-37.5c-8.9-8.8-13.1-21.2-11.5-33.6L271.1,160.5z M131,176h16v16h-16V176z M83,192H67v-16h16V192z M99,176
		h16v16H99V176z M151.8,273.6l-9.6,12.8l-32-24c-0.6-0.5-1.1-1-1.6-1.6c-2.7-3.5-1.9-8.5,1.6-11.2l32-24l9.6,12.8L128.3,256
		L151.8,273.6z M170.4,299l-14.9-5.9l32-80l14.9,5.9L170.4,299z M247.8,262.4l-32,24l-9.6-12.8l23.5-17.6l-23.5-17.6l9.6-12.8l32,24
		c0.6,0.5,1.1,1,1.6,1.6C252,254.7,251.3,259.7,247.8,262.4z"/>
	
		<rect x="135.9" y="248" transform="matrix(0.3713 -0.9285 0.9285 0.3713 -125.1803 327.1149)" class="st2" width="86.2" height="16"/>
	<path class="st2" d="M142.2,225.6l-32,24c-3.5,2.7-4.3,7.7-1.6,11.2c0.5,0.6,1,1.1,1.6,1.6l32,24l9.6-12.8L128.3,256l23.5-17.6
		L142.2,225.6z"/>
	<path class="st2" d="M247.8,249.6l-32-24l-9.6,12.8l23.5,17.6l-23.5,17.6l9.6,12.8l32-24c3.5-2.7,4.3-7.7,1.6-11.2
		C248.9,250.6,248.4,250.1,247.8,249.6z"/>
	<rect x="67" y="176" class="st2" width="16" height="16"/>
	<rect x="99" y="176" class="st2" width="16" height="16"/>
	<rect x="131" y="176" class="st2" width="16" height="16"/>
	<path class="st2" d="M507.3,300.2c8.9-8.8,13.1-21.2,11.5-33.6L494.9,90.1c-7.1-51.5-51.1-89.9-103-90.1h-8.2
		c-52,0.1-95.9,38.5-103,90l-7.3,53.7c-3.4,0-6.8,0-10.2,0c-65.4,0.1-130.8,0.1-196.2,0.2c-17.7,0-32,14.3-32,32v184
		c0,0.9,0.1,1.9,0.1,2.8C36.5,379.2,50.3,392,67,392h84.9l-10.7,32H131c-13.2,0.1-23.9,10.8-24,24c0,13.2,10.8,24,24,24
		c29.6-0.4,59.2-0.8,88.8-1.2v1.2c0,4.4,3.6,8,8,8c3,0,6,0,8.9,0c-0.3-5.3-0.6-10.7-0.9-16v-85.2c0-5.4,0.6-10.7,1.7-15.8
		c4.4-19.8,17.1-36.9,34.7-46.9c4.4-2.5,9.1-4.5,14.1-6.1l10.8-3.4l-2.1,21.4c-0.6,4.1-2,10.1-5,16.8c-3.2,7.1-6,9.8-10.6,16.6
		c-2.1,3.1-10.1,15.2-14.9,30c-1.5,4.7-4.4,13.7-4.7,24.5c-0.5,20.4,8.7,36.5,14.6,44.9c1.7,3.1,2.9,5.7,3.7,7.7
		c1,2.6,1.3,3.7,1.4,4.2c0.7,3.6-0.2,5,0.4,6.2c0.8,1.7,4.1,2.8,15,1c0.5-2,1-4.8,0.8-8.1c-0.4-5.7-2.7-9.9-4.1-11.9
		c-10.5-12.2-16.1-27.9-15.7-44c-0.3-15.7,5-31.1,15-43.3c11.4-11.7,18.5-26.8,20.1-43.1l2.8-28.1l35.6-11.1
		c2.8,10.2,9.5,18.9,18.6,24.1c-7.5,11-4.6,25.9,6.3,33.3c11,7.5,25.9,4.6,33.3-6.3c5.5-8.1,5.5-18.9,0-27
		c9.2-5.3,15.8-13.9,18.6-24.1l35.6,11.1l2.8,28.1c1.6,16.2,8.7,31.5,20.1,43.1c10,12.2,15.3,27.5,15,43.2
		c0.4,16.1-5.2,31.8-15.7,44c-1.3,1.2-2.6,2.6-3.7,4c-0.5,0.8-1.1,2.1-1.7,3.7c-1.2,3.4-1.4,6.2-1.5,7.7c-0.1,1.2-0.1,2.8,0.1,4.7
		c6.1,0,12.2,0,18.3,0c-0.1-1.7,0-4.1,0.7-6.8c1.2-4.6,3.7-7.6,5.1-9.2c9.4-14.2,14.4-30.9,14.3-48c0.3-19.9-6.6-39.3-19.6-54.5
		c-8.9-9-14.4-20.8-15.6-33.4l-2.2-21.4l10.8,3.4c30.1,9.3,50.7,37.2,50.6,68.7V464h0c0.3,5.3,0.2,10.7,0.2,16h7.9c4.4,0,8-3.6,8-8
		v-93.2C555.9,345.5,537.1,315,507.3,300.2z M219.8,455.8c-29.6,0.1-59.2,0.1-88.8,0.2c-4.4,0-8-3.6-8-8c0-2.1,0.8-4.1,2.3-5.5
		c0.1-0.1,0.1-0.1,0.2-0.2c1.5-1.5,3.5-2.3,5.5-2.3c29.6-0.7,59.2-1.3,88.8-2V455.8z M219.8,423c-20.6,0.3-41.1,0.7-61.7,1l10.7-32
		c17-0.6,34-1.3,51-1.9V423z M221.2,363c-0.7,4-1.2,8-1.3,12.1c-51,0.3-101.9,0.6-152.9,0.9c-7.9,0-14.4-5.7-15.7-13.2
		c-0.2-0.9-0.3-1.9-0.3-2.8v-8c57.7-0.1,115.3-0.2,173-0.2C222.8,355.4,221.9,359.2,221.2,363z M268.2,300.2
		c-16.7,8.3-29.9,21.6-38.3,37.5c-59.6-0.6-119.3-1.1-178.9-1.7V176c0-8.8,7.2-16,16-16h181.7c7.5,0.2,14.9,0.3,22.4,0.5
		l-14.4,106.1C255.1,279,259.4,291.4,268.2,300.2z M296.5,92.2c6-43.6,43.2-76.1,87.2-76.2h8.2c44,0.1,81.2,32.6,87.2,76.2l2.8,20.7
		c-2-0.6-4-0.8-6.1-0.9c0-4.4-3.6-8-8-8h-16c-12.6,0-24.4-6-32-16l-9.6-12.8c-1.4-1.9-3.5-3-5.8-3.2c-2.3-0.1-4.6,0.7-6.2,2.3
		l-17.9,18c-7.5,7.5-17.7,11.7-28.3,11.7h-44.1c-4.4,0-8,3.6-8,8c-2.1,0-4.1,0.3-6.1,0.9L296.5,92.2z M483.8,136c0,4.4-3.6,8-8,8
		v-16C480.2,128,483.8,131.6,483.8,136z M299.8,128v16c-4.4,0-8-3.6-8-8S295.4,128,299.8,128z M347.8,274.1L329,280h-5.2
		c-8.8,0-16-7.2-16-16h-16c0,9.3,4.1,18.1,11.2,24.1l-17.1,5.3c-9.3-4.5-14.7-14.5-13.3-24.7l15.2-112.1c3.6,2.2,7.8,3.3,12,3.3v8
		c0,33,18.6,63.3,48,78.3V274.1z M387.8,336c-4.4,0-8-3.6-8-8s3.6-8,8-8s8,3.6,8,8S392.2,336,387.8,336z M411.8,280
		c0,13.3-10.7,24-24,24s-24-10.7-24-24v-27.4c15.7,4.5,32.3,4.5,48,0V280z M387.8,240c-39.7,0-72-32.3-72-72v-48h36.1
		c14.9,0,29.1-5.9,39.6-16.4l11.4-11.4l4.1,5.4c10.6,14.1,27.2,22.4,44.8,22.4h8v48C459.7,207.7,427.5,240,387.8,240z M489.6,293.5
		l-17.1-5.3c7.1-6,11.2-14.8,11.2-24.1h-16c0,8.8-7.2,16-16,16h-5.2l-18.8-5.9v-27.8c29.4-15,48-45.3,48-78.3v-8
		c4.2,0,8.4-1.2,12-3.3L503,268.8C504.3,279,498.9,288.9,489.6,293.5z"/>
	<path class="st2" d="M387.8,200c-8.8,0-16-7.2-16-16h-16c0,17.7,14.3,32,32,32s32-14.3,32-32h-16C403.8,192.8,396.6,200,387.8,200z
		"/>
	<path class="st2" d="M577.4,367.9c0-0.1-0.1-0.2-0.1-0.3c-0.1,2,0,2.9,0.2,3.1c0-0.4,0-0.7,0-1.1
		C577.5,369,577.4,368.4,577.4,367.9z"/>
	<path class="st2" d="M359.8,144c0-6.6-5.4-12-12-12c-6.6,0-12,5.4-12,12c0,6.6,5.4,12,12,12C354.4,156,359.8,150.6,359.8,144z"/>
	<path class="st2" d="M427.8,132c-6.6,0-12,5.4-12,12c0,6.6,5.4,12,12,12c6.6,0,12-5.4,12-12C439.8,137.4,434.4,132,427.8,132z"/>
</g>
</svg>
