<?xml version="1.0" encoding="utf-8"?>
<!-- Generator: Adobe Illustrator 25.0.0, SVG Export Plug-In . SVG Version: 6.00 Build 0)  -->
<svg version="1.1" xmlns="http://www.w3.org/2000/svg" xmlns:xlink="http://www.w3.org/1999/xlink" x="0px" y="0px"
	 viewBox="0 0 512 512" style="enable-background:new 0 0 512 512;" xml:space="preserve">
<style type="text/css">
	.st0{fill:none;}
	.st1{fill:#8D6AD9;}
	.st2{fill:#404040;}
</style>
<g id="Layer_2">
</g>
<g id="Layer_1">
	<g>
		<path class="st0" d="M104,384v-24c-2.7,0-5.4-0.5-8-1.4v94.1c0,7.2,2.8,14.2,8,19.3c4.7,4.7,10.9,7.5,17.6,7.9
			c12.6-0.8,22.5-11.3,22.4-23.9v-64h-32C107.6,392,104,388.4,104,384z"/>
		<rect x="120" y="248" class="st0" width="32" height="16"/>
		<rect x="288" y="440" class="st0" width="96" height="40"/>
		<path class="st0" d="M168,384c0,4.4-3.6,8-8,8v57.4l39.7-52.2l-31.7-29V384z"/>
		<path class="st0" d="M160,288c0-4.4-3.6-8-8-8h-48c-4.4,0-8,3.6-8,8v48c0,4.4,3.6,8,8,8h48c4.4,0,8-3.6,8-8V288z"/>
		<path class="st0" d="M192.9,200l-0.9-0.3v0.3c0,4.4,3.6,8,8,8s8-3.6,8-8v-6l-1.5,1.9L192.9,200z"/>
		<path class="st0" d="M160,167.6v0.4c0,4.4,3.6,8,8,8c0.6,0,1.1-0.1,1.6-0.2l-0.7-8.2L160,167.6z"/>
		<path class="st0" d="M244.7,140.7c-6.2,6.3-6.2,16.4,0,22.6c3,3,7.1,4.7,11.3,4.7v-31.9l-0.1-0.1
			C251.7,136,247.6,137.7,244.7,140.7z"/>
		<polygon class="st0" points="64,153.4 64,160 142.9,160 138.3,153.4 		"/>
		<path class="st0" d="M176.3,322.3l-0.3,0.4V336c0,4.9-1.5,9.8-4.4,13.8l37.8,34.6l16.2-21.3c1.5-2,3.9-3.2,6.4-3.2h8v-67.8
			l-28.7,6.1C197,301.4,184.4,310,176.3,322.3z"/>
		<rect x="120" y="360" class="st0" width="32" height="16"/>
		<path class="st0" d="M336,320c-16.1,0-31.1-8.1-40-21.5V360h80v-61.5C367.1,311.9,352.1,320,336,320z"/>
		<path class="st0" d="M400,176c0-10.4,0.5-21-0.1-31.4c-5.7,1.1-11,0.3-16.6-0.7c1.4,3.9,0.7,8.3-1.9,11.5
			c-4.1,5.2-11.7,6.1-16.9,1.9s-6.1-11.7-1.9-16.9c-17.6-2.6-35.5-2.6-53.2,0c2.6,3.2,3.3,7.6,1.9,11.5c-2.2,6.2-9.1,9.5-15.3,7.3
			c-6.2-2.2-9.5-9.1-7.3-15.3c0,0-10.5,3-16.7,0.6V176c0,10,1.2,19.9,3.7,29.5l0,0c6.3,24.9,28.6,42.4,54.3,42.5h12
			c25.5,0,48.1-18,54.3-42.4C398.8,195.9,400,186,400,176z M336,212c-13.2,0-24-10.8-24-24h16c0,4.4,3.6,8,8,8s8-3.6,8-8h16
			C360,201.2,349.2,212,336,212z"/>
		<polygon class="st0" points="256,360 280,360 280,283.6 256,288.8 		"/>
		<polygon class="st0" points="392,360 416,360 416,285.8 392,282.4 		"/>
		<path class="st0" d="M445.6,290l-13.6-1.9V384h48v-54.4C479.9,309.7,465.3,292.9,445.6,290z"/>
		<path class="st0" d="M368,272v-12.9c-8.3,3.2-17.1,4.9-26,4.9h-12c-8.9,0-17.7-1.6-26-4.9V272c0,17.7,14.3,32,32,32
			C353.7,304,368,289.7,368,272z"/>
		<path class="st0" d="M408,72c0-22.1-17.9-40-40-40h-64c-22.1,0-40,17.9-40,40v24h144V72z"/>
		<path class="st0" d="M432.1,124.3c7.4,4.3,12.8,11.4,15,19.7c4.4,17.1-5.9,34.6-23,39v17c0,19,13.4,35.4,32,39.2V128
			c0-17-10.7-32.1-26.7-37.7c1.8,7.1,2.7,14.4,2.7,21.7V124.3z"/>
		<path class="st0" d="M416.1,136v32c8.8-0.1,15.9-7.2,15.9-16C432,143.2,424.9,136.1,416.1,136z"/>
		<path class="st0" d="M281.2,129l21.9-3.7c21.8-3.6,44-3.6,65.8,0l21.9,3.7c1.2,0.2,2.4,0.3,3.6,0.2c9-0.5,15.8-8.2,15.3-17.2
			H262.3c-0.1,1.2,0,2.4,0.2,3.6C263.9,124.5,272.3,130.5,281.2,129z"/>
		<path class="st1" d="M48,104c0-4.4,3.6-8,8-8h160c1.9,0,3.6,0.6,4.9,1.7v-8v-9.3l-2.4-3.3l-2.1-1.1l-5-0.4h-49.7v0.1H48.9
			c-0.7,0-3,0-5,1.6c-3,2.2-3,5.8-3,6.2V128H48V104z"/>
		<path class="st1" d="M174.5,191.1l1.5,1.5v-2C175.5,190.8,175,191,174.5,191.1z"/>
		<path class="st1" d="M138.3,153.4l4.6,6.6h1.1v-32h16v39.6l8.9,0l0.7,8.2c3.6-0.7,6.4-4,6.4-7.8c0-4.4,3.6-8,8-8s8,3.6,8,8v31.7
			l0.9,0.3l13.6-4.1l1.5-1.9v-82H64v41.4H138.3z"/>
		<polygon class="st1" points="40.9,144 40.9,145.6 43.3,151.1 48,153 48,144 		"/>
		<path class="st2" d="M447.9,274.2L384,265v-14.6c12.2-8.9,21.3-21.3,26.2-35.5c6.7,24,28.6,41,53.9,41c4.4,0,8-3.6,8-8V128
			c0-27.9-20.6-51.5-48.1-55.4V72c0-30.9-25.1-56-56-56h-64c-30.9,0-56,25.1-56,56v30.6c-2.1,6-2.3,12.5-0.7,18.6
			c-17,4.8-26.9,22.5-22.1,39.5c3.9,13.8,16.5,23.3,30.8,23.3h0.2c0.5,8.6,1.8,17.1,3.9,25.4c4.1,16.5,14,31.1,27.8,41v15.1
			l-80,17.1c-11.8,2.6-22.9,8.1-32,16V288c0-6.8-2.9-13.3-8-17.9V240c0-4.4-3.6-8-8-8h-16v-17.1c0-7.9-5.9-14.7-13.7-15.8l-98.3-14
			V144h8.9H48v9v15c0,4.4,3.6,8,8,8h89.4c4.2,12,17.1,18.5,29.1,15.1c0.5-0.1,1-0.3,1.5-0.5v2v7.4c0,13.3,10.7,24,24,24
			s24-10.7,24-24v-96c0-2.6-1.2-4.8-3.1-6.3c-1.4-1.1-3.1-1.7-4.9-1.7H56c-4.4,0-8,3.6-8,8v24h-7.1H32c-8.8,0-16,7.2-16,16v41.1
			c0,7.9,5.9,14.7,13.7,15.8l98.3,14V232h-16c-4.4,0-8,3.6-8,8v24c-13.2,0-24,10.8-24,24v164.7c0,23.1,18.1,42.2,41.2,43.2
			c0.7,0,1.4,0,2,0c12.5,0,24.4-5.4,32.7-14.8c0.1-0.1,0.2-0.3,0.4-0.4l60.6-79.6L236,376h4v120h16V376h160v120h16v-96h48v96h16
			V329.6C495.8,301.8,475.4,278.3,447.9,274.2z M256,168c-4.2,0-8.3-1.7-11.3-4.7c-6.3-6.2-6.3-16.4,0-22.6c3-3,7-4.7,11.3-4.7
			l0.1,0.1V168z M208,112v82v6c0,4.4-3.6,8-8,8s-8-3.6-8-8v-0.3V168c0-4.4-3.6-8-8-8s-8,3.6-8,8c0,3.9-2.7,7.1-6.4,7.8
			c-0.5,0.1-1.1,0.2-1.6,0.2c-4.4,0-8-3.6-8-8v-0.4V128h-16v32h-1.1H64v-6.6V112H208z M120,248h32v16h-32V248z M144,456
			c0,12.6-9.8,23.1-22.4,23.9c-6.6-0.4-12.9-3.2-17.6-7.9c-5.1-5.1-8-12.1-8-19.3v-94.1c2.6,0.9,5.3,1.4,8,1.4v24c0,4.4,3.6,8,8,8
			h32V456z M152,376h-32v-16h32V376z M152,344h-48c-4.4,0-8-3.6-8-8v-48c0-4.4,3.6-8,8-8h48c4.4,0,8,3.6,8,8v48
			C160,340.4,156.4,344,152,344z M160,449.4V392c4.4,0,8-3.6,8-8v-15.8l31.7,29L160,449.4z M240,360h-8c-2.5,0-4.8,1.2-6.4,3.2
			l-16.2,21.3l-37.8-34.6c2.9-4,4.4-8.9,4.4-13.8v-13.2l0.3-0.4c8.1-12.3,20.7-20.9,35.1-24l28.7-6.1V360z M280,360h-24v-71.2
			l24-5.2V360z M416.1,168v-32c8.8,0.1,15.9,7.2,15.9,16C432,160.8,424.9,167.9,416.1,168z M456.1,128v111.2
			c-18.6-3.8-32-20.2-32-39.2v-17c17.1-4.4,27.4-21.9,23-39c-2.1-8.3-7.5-15.4-15-19.7V112c0-7.3-0.9-14.6-2.7-21.7
			C445.4,95.9,456.1,111,456.1,128z M264,72c0-22.1,17.9-40,40-40h64c22.1,0,40,17.9,40,40v24H264V72z M262.5,115.6
			c-0.2-1.2-0.3-2.4-0.2-3.6h147.4c0.5,9-6.3,16.7-15.3,17.2c-1.2,0.1-2.4,0-3.6-0.2l-21.9-3.7c-21.8-3.6-44-3.6-65.8,0l-21.9,3.7
			C272.3,130.5,263.9,124.5,262.5,115.6z M376,360h-80v-61.5c8.9,13.4,23.9,21.5,40,21.5c16.1,0,31.1-8.1,40-21.5V360z M304,272
			v-12.9c8.3,3.2,17.1,4.9,26,4.9h12c8.9,0,17.7-1.6,26-4.9V272c0,17.7-14.3,32-32,32C318.3,304,304,289.7,304,272z M342,248h-12
			c-25.7-0.1-48.1-17.6-54.3-42.5l0,0c-2.5-9.7-3.7-19.6-3.7-29.5v-31.4c6.2,2.4,16.7-0.6,16.7-0.6c-2.2,6.2,1,13.1,7.3,15.3
			c6.2,2.2,13.1-1,15.3-7.3c1.4-3.9,0.7-8.2-1.9-11.5c17.6-2.6,35.5-2.6,53.2,0c-4.1,5.2-3.2,12.7,1.9,16.9s12.7,3.2,16.9-1.9
			c2.6-3.2,3.3-7.6,1.9-11.5c5.6,0.9,11,1.8,16.6,0.7c0.6,10.4,0.1,20.9,0.1,31.4c0,10-1.2,19.9-3.7,29.6
			C390.1,230,367.5,248,342,248z M416,360h-24v-77.6l24,3.4V360z M480,384h-48v-95.9l13.6,1.9c19.6,2.9,34.2,19.7,34.4,39.6V384z"/>
		<rect x="272" y="392" class="st2" width="16" height="16"/>
		<rect x="384" y="392" class="st2" width="16" height="16"/>
		<path class="st2" d="M392,424H280c-4.4,0-8,3.6-8,8v56c0,4.4,3.6,8,8,8h112c4.4,0,8-3.6,8-8v-56C400,427.6,396.4,424,392,424z
			 M384,480h-96v-40h96V480z"/>
		<path class="st2" d="M336,196c-4.4,0-8-3.6-8-8h-16c0,13.2,10.8,24,24,24c13.2,0,24-10.8,24-24h-16C344,192.4,340.4,196,336,196z"
			/>
	</g>
</g>
</svg>
