<?xml version="1.0" encoding="utf-8"?>
<!-- Generator: Adobe Illustrator 25.0.0, SVG Export Plug-In . SVG Version: 6.00 Build 0)  -->
<svg version="1.1" xmlns="http://www.w3.org/2000/svg" xmlns:xlink="http://www.w3.org/1999/xlink" x="0px" y="0px"
	 viewBox="0 0 512 512" style="enable-background:new 0 0 512 512;" xml:space="preserve">
<style type="text/css">
	.st0{fill:none;}
	.st1{fill:#8D6AD9;}
	.st2{fill:#404040;}
</style>
<g id="Layer_2">
</g>
<g id="Layer_1">
	<g>
		<path class="st0" d="M279,294.8c0.8-2,1.8-3.6,2.7-4.7c1.1-1.2,2.8-2.9,5.5-4c0.7-0.3,2-0.9,3.8-1.2c1.7-0.2,3.1,0,3.7,0.1
			c0.4,0.1,1.5,0.2,3,0.5c-5.9-3.4-9.7-9.7-9.7-16.6v-24.5c-15.6,4.9-32.4,4.9-48,0v24.5c0,7.6-4.5,14.5-11.4,17.5l9.6,17.7h39.3
			c0-0.7,0.1-1.3,0.1-2.1C277.6,300.2,277.9,297.6,279,294.8z"/>
		<path class="st0" d="M82.2,459.6c0,0.5-0.1,1-0.1,1.5c0,10.5,8.5,18.9,18.9,18.9c0.2,0,0.3,0,0.5,0c0.3,0,0.6,0,0.9,0
			c9.9-0.7,17.5-8.9,17.6-18.9V392H87.4L82.2,459.6z"/>
		<path class="st0" d="M246.9,320l17.1,31.3l14-25.8c0-2.1-0.1-3.9-0.1-5.5H246.9z"/>
		<path class="st0" d="M328,168v-33.2c-34.2-6-66.3-20.6-93.4-42.3c-8.4,15.7-20.2,29.2-34.6,39.6V168c0,35.3,28.7,64,64,64
			C299.3,232,328,203.3,328,168z M228,160c-6.6,0-12-5.4-12-12c0-6.6,5.4-12,12-12c6.6,0,12,5.4,12,12C240,154.6,234.6,160,228,160z
			 M264,200c-13.3,0-24-10.7-24-24h16c0,4.4,3.6,8,8,8c4.4,0,8-3.6,8-8h16C288,189.3,277.3,200,264,200z M300,160
			c-6.6,0-12-5.4-12-12c0-6.6,5.4-12,12-12c6.6,0,12,5.4,12,12C312,154.6,306.6,160,300,160z"/>
		<path class="st0" d="M184.6,348.4c-0.2,0.2-0.3,0.4-0.5,0.6l0,0C184.3,348.8,184.5,348.6,184.6,348.4z"/>
		<path class="st0" d="M184,168v-40c0-2.7,1.3-5.2,3.6-6.7c14.6-9.7,26.3-23.1,34.2-38.7l3.1-6.2c0.3-0.6,0.6-1.1,1-1.5
			c2.8-3.4,7.9-3.9,11.3-1l4.5,3.8c27.3,22.7,60.3,37.4,95.5,42.4c3.9,0.6,6.9,3.9,6.9,7.9v40c0,28.6-15.3,55-40,69.2v31.6
			c0,1.8,1.4,3.2,3.2,3.2h36.2c9.9,0,19.6,2.6,28.1,7.6l0.9-8.2c0.5-4.3,0.7-8.5,0.8-12.8c0-15.6-3.2-31-9.4-45.3
			c-7.8-18.4-11.4-38.3-10.4-58.2l1.4-27.7c0.1-1.6,0.1-3.2,0.1-4.6c0-1.5,0-3-0.1-4.5c-2.5-50.2-45.2-88.8-95.3-86.3
			c-50.2,2.5-88.8,45.2-86.3,95.3l1.4,27.7c0.1,2.2,0.2,4.4,0.2,6.6c0,17.7-3.6,35.3-10.6,51.6c-7.8,18.3-10.8,38.3-8.6,58l0.9,8.2
			c8.5-4.9,18.2-7.5,28-7.6h36.3c1.8,0,3.2-1.4,3.2-3.2v-31.6C199.3,223,184,196.6,184,168z"/>
		<path class="st0" d="M100.8,275.1c-0.5,0.1-1.1,0.3-1.6,0.6c-3.7,1.9-5.2,6.4-3.4,10.1l7.3,14.6c0.6,1.1,0.8,2.3,0.8,3.6
			c0,4.4-3.6,8-8,8H67.3c-8.7,0-17.3-2-25-5.9l-8-4c-0.5-0.3-1.1-0.2-1.6,0.1c-0.5,0.3-0.8,0.8-0.8,1.4v22.6c0,3,1.7,5.8,4.4,7.2
			l13,6.5c5.6,2.8,11.7,4.2,17.9,4.2H120v-38.5l-10.4-26C108.2,276.1,104.4,274.2,100.8,275.1z"/>
		<rect x="88" y="360" class="st0" width="32" height="16"/>
		<path class="st0" d="M369.5,298c0.2,0.1,0.4,0.1,0.5,0.2c-7.3-6.6-16.7-10.2-26.6-10.2h-26.7l-0.3,0.5c11.7,1.9,27.3,4.4,45.4,7.4
			C364.2,296.4,366.8,297.1,369.5,298z"/>
		<path class="st0" d="M426.1,468.5l-16.4,3.3l-0.1,0h0c-0.1,0-0.1,0-0.2,0c-0.1,0-0.3,0.1-0.4,0.1c2.9,5,8.3,8.1,14.1,8.1
			c0.8,0,1.7-0.1,2.5-0.2c3.2-0.5,6.2-2,8.6-4.2C430.7,474.2,427.9,471.7,426.1,468.5z"/>
		<path class="st0" d="M416,454.2l8-1.6v-7.1c-2.7,0.5-5.3,1.1-8,1.6V454.2z"/>
		<path class="st0" d="M395.9,451.2l-11.9,0.1v4.6h16v-5.6C398.6,450.7,397.3,451,395.9,451.2z"/>
		<path class="st0" d="M440,442.4v18.3l32-5.3l0,0l0-19.4C461.3,438.1,450.7,440.2,440,442.4z"/>
		<polygon class="st0" points="365.6,451.6 304,439.4 304,441.4 368,454.2 368,451.6 		"/>
		<path class="st1" d="M278,325.5l3-5.5H278C278,321.6,278,323.4,278,325.5z"/>
		<path class="st1" d="M299.4,286.3c-0.6-0.3-1.2-0.6-1.7-0.9c-1.5-0.2-2.6-0.4-3-0.5c-0.6-0.1-2-0.3-3.7-0.1
			c-1.9,0.3-3.1,0.9-3.8,1.2c-2.6,1.1-4.4,2.8-5.5,4c-0.9,1.1-1.9,2.7-2.7,4.7c-1.1,2.8-1.4,5.4-1.4,7.1c0,0.8,0,1.5-0.1,2.1h12.3
			L299.4,286.3z"/>
		<path class="st1" d="M472,426.4c0-1.3-1.1-2.4-2.4-2.4c-0.1,0-0.3,0-0.4,0l-27.2,4.5c-1.2,0.2-2,1.2-2,2.4v11.4
			c10.7-2.1,21.3-4.3,32-6.4L472,426.4z"/>
		<polygon class="st1" points="368,451.6 368,358.6 304,345.8 304,439.4 365.6,451.6 		"/>
		<path class="st1" d="M400,450.4V360h-16v91.4l11.9-0.1C397.3,451,398.6,450.7,400,450.4z"/>
		<path class="st1" d="M442.4,337l37.6-7.5v-8l-63,10.5h0c-6.8,1.1-12.6,5.7-15.4,12.1h5.6L442.4,337z"/>
		<path class="st1" d="M401,321.2c4.1-2.6,8.6-4.3,13.4-5.1l71.3-11.9c0.1-2.5,0.2-4.7,0.3-6.3c0.4-6.2,0.9-9.4-1.2-11.9
			c-0.8-1-1.7-1.5-2.4-1.9c-0.9-0.3-1.7-0.6-2.6-0.9c-1.2,0.1-2.4,0.2-3.5,0.3l-62,10.3c-4.6,0.9-9.2,1.8-13.8,2.7
			c-2.2,0.6-4.8,1.5-7.5,2.7c-0.4,0.2-0.8,0.4-1.1,0.5c1.4,2.4,2.6,4.8,3.6,7.4L401,321.2z"/>
		<path class="st1" d="M466.6,408.3c4.7-0.8,9.5,0.3,13.4,3v-65.5l-64,12.8v88.6c2.7-0.5,5.3-1.1,8-1.6v-14.6
			c0-9,6.5-16.7,15.4-18.2L466.6,408.3L466.6,408.3z"/>
		<path class="st1" d="M380.6,313.2c-1.8-4.8-4.7-9.2-8.3-12.8l-0.1-0.2c-0.7-0.7-1.4-1.4-2.1-2c-0.2-0.1-0.4-0.1-0.5-0.2
			c-2.7-0.9-5.3-1.6-7.6-2.2c-18-2.9-33.7-5.5-45.4-7.4l-9.4,17.3l62.6,10.4c5.1,0.9,10,2.8,14.4,5.7L380.6,313.2z"/>
		<path class="st1" d="M367,331.9l-63-10.5v8l36.4,7.3l36.4,7.3h5.6C379.7,337.6,373.9,333.1,367,331.9z"/>
		<path class="st1" d="M278.1,358.9c-0.1,13.1-0.2,29.4-0.5,49.5c-0.1,8.4-0.2,14.7-0.3,18.4c-0.1,1.1-0.2,3.5,1.4,5.4
			c0.7,0.8,1.4,1.3,2,1.5l3.4,1.6l4,0.8v-95.5L278.1,358.9z"/>
		<path class="st2" d="M228,136c-6.6,0-12,5.4-12,12c0,6.6,5.4,12,12,12c6.6,0,12-5.4,12-12C240,141.4,234.6,136,228,136z"/>
		<path class="st2" d="M300,136c-6.6,0-12,5.4-12,12c0,6.6,5.4,12,12,12c6.6,0,12-5.4,12-12C312,141.4,306.6,136,300,136z"/>
		<path class="st2" d="M264,184c-4.4,0-8-3.6-8-8h-16c0,13.3,10.7,24,24,24s24-10.7,24-24h-16C272,180.4,268.4,184,264,184z"/>
		<path class="st2" d="M493.2,305.9c-1.8-1.5-4.2-2.2-6.5-1.8l-1,0.2l-71.3,11.9c-4.8,0.8-9.3,2.5-13.4,5.1l-5.5-13.9
			c-1-2.5-2.2-5-3.6-7.4c-1.6-2.8-3.5-5.5-5.6-8l2.1-18.9c0.5-4.8,0.8-9.7,0.8-14.5c0-17.7-3.6-35.3-10.6-51.5
			c-6.9-16.1-10-33.6-9.1-51.1l1.4-27.7c0.1-1.7,0.2-3.6,0.2-5.3C370.9,63.9,323,16,264,16c-59.1,0-106.9,47.9-106.9,107
			c0,1.8,0,3.5,0.1,5.3l1.4,27.6c0.1,2.1,0.2,4,0.2,5.9c0,15.6-3.1,31-9.3,45.2c-8.9,20.8-12.3,43.6-9.8,66.1l2.1,18.7
			c-2.4,2.8-4.5,5.9-6.3,9.2l-10.9-27.3c-4.8-12.1-18.5-18-30.6-13.1s-18,18.5-13.1,30.6c0.2,0.6,0.5,1.2,0.8,1.8l1.5,3.1H67.3
			c-6.2,0-12.3-1.5-17.9-4.2l-8-4c-8.7-4.3-19.3-0.8-23.6,7.9c-1.2,2.4-1.9,5.1-1.9,7.9v22.6c0,9.1,5.1,17.4,13.3,21.5l13,6.5
			c7.8,3.9,16.4,5.9,25,5.9H72v23.7l-5.7,74.7c-1.5,19.2,12.9,36,32.1,37.5c0.9,0.1,1.8,0.1,2.7,0.1c0.6,0,1.2,0,1.8,0
			c0.5,0,1,0,1.5,0c13.5,0,25.6-8.4,30.3-21.2l36.5-67.9c2.2,10.1,6.6,19.6,12.9,27.9V496h16v-64c0-1.9-0.7-3.7-1.9-5.1
			c-19.2-23.1-16.1-57.5,7-76.7l-10.2-12.3c-3.6,3-7,6.4-9.9,10.1c-0.3,0.3-0.6,0.6-0.8,1l0,0l-0.1,0.2c0,0.1-0.1,0.1-0.1,0.2
			c-4.5,5.9-8,12.5-10.4,19.4L136,438.5v-97.2l11.4-28.3c1.9-4.8,4.8-9.2,8.4-12.9c7.6-7.7,17.9-12,28.7-12.1h26.8l45.7,83.8
			c2.1,3.9,7,5.3,10.9,3.2c1.3-0.7,2.5-1.8,3.2-3.2l7-12.9l9.9-18.2v95.5V448c0,3.8,2.7,7.1,6.4,7.8l33.6,6.7V496h16v-30.2l30.6,6.1
			c0.2,0,1.1,0.1,1.4,0.1h15.1l1.5,2.9c4.7,12.7,16.8,21.1,30.4,21.1c1.8,0,3.5-0.1,5.3-0.4c11.5-2,21.1-9.9,25-20.9l21.3-3.5
			c7.4-1.2,13-7.5,13.3-15l1.6-0.3c3.7-0.7,6.4-4,6.4-7.8V312C496,309.6,495,307.4,493.2,305.9z M120,461.1
			c0,9.9-7.7,18.1-17.6,18.9c-0.3,0-0.6,0-0.9,0c-0.2,0-0.3,0-0.5,0c-10.5,0-18.9-8.5-18.9-18.9c0-0.5,0-1,0.1-1.5l5.2-67.6H120
			V461.1z M120,376H88v-16h32V376z M120,344H67.3c-6.2,0-12.3-1.5-17.9-4.2l-13-6.5c-2.7-1.3-4.4-4.1-4.4-7.2v-22.6
			c0-0.6,0.3-1.1,0.8-1.4c0.5-0.3,1.1-0.3,1.6-0.1l8,4c7.8,3.9,16.4,5.9,25,5.9H96c4.4,0,8-3.6,8-8c0-1.2-0.3-2.5-0.8-3.6l-7.3-14.6
			c-1.9-3.7-0.4-8.3,3.4-10.1c0.5-0.2,1-0.4,1.6-0.6c3.7-0.9,7.4,1,8.9,4.5l10.4,26V344z M184.6,348.4c-0.2,0.2-0.3,0.4-0.5,0.6l0,0
			C184.3,348.8,184.5,348.6,184.6,348.4z M417,331.9L417,331.9l63-10.5v8l-37.6,7.5l-35.2,7h-5.6C404.3,337.6,410.1,333.1,417,331.9
			z M424,430.9v14.6v7.1l-8,1.6v-7v-88.6l64-12.8v65.5c-3.9-2.7-8.7-3.8-13.4-3h0l-27.2,4.5C430.5,414.2,424,421.9,424,430.9z
			 M376.8,344l-36.4-7.3l-36.4-7.3v-8l63,10.5c6.9,1.1,12.7,5.7,15.4,12.1H376.8z M369.6,316.2l-62.6-10.4l9.4-17.3l0.3-0.5h26.7
			c9.9,0,19.3,3.7,26.6,10.2c0.7,0.6,1.4,1.3,2.1,2l0.1,0.2c3.6,3.6,6.5,8,8.3,12.8l3.4,8.7C379.7,319,374.8,317,369.6,316.2z
			 M224,268.8c0,1.8-1.4,3.2-3.2,3.2h-36.3c-9.8,0-19.5,2.6-28,7.6l-0.9-8.2c-2.2-19.8,0.8-39.8,8.6-58c7-16.3,10.6-33.8,10.6-51.6
			c0-2.2-0.1-4.4-0.2-6.6l-1.4-27.7c-2.5-50.2,36.2-92.8,86.3-95.3c50.2-2.5,92.8,36.2,95.3,86.3c0.1,1.5,0.1,3,0.1,4.5
			c0,1.4-0.1,2.9-0.1,4.6l-1.4,27.7c-1,19.9,2.6,39.8,10.4,58.2c6.2,14.3,9.3,29.7,9.4,45.3c0,4.3-0.3,8.5-0.8,12.8l-0.9,8.2
			c-8.5-5-18.2-7.6-28.1-7.6h-36.2c-1.8,0-3.2-1.4-3.2-3.2v-31.6c24.7-14.3,40-40.7,40-69.2v-40c0-4-2.9-7.4-6.9-7.9
			c-35.1-5-68.2-19.7-95.5-42.4l-4.5-3.8c-3.4-2.8-8.4-2.4-11.3,1c-0.4,0.5-0.7,1-1,1.5l-3.1,6.2c-7.8,15.7-19.6,29-34.2,38.7
			c-2.2,1.5-3.6,4-3.6,6.7v40c0,28.6,15.3,55,40,69.2V268.8z M264,232c-35.3,0-64-28.7-64-64v-35.8c14.4-10.4,26.2-24,34.6-39.6
			c27.1,21.7,59.2,36.2,93.4,42.3V168C328,203.3,299.3,232,264,232z M278,325.5l-14,25.8L246.9,320h31h3.1L278,325.5z M277.5,304
			h-39.3l-9.6-17.7c6.9-3.1,11.4-10,11.4-17.5v-24.5c15.6,4.9,32.4,4.9,48,0v24.5c0,6.9,3.8,13.3,9.7,16.6c0.6,0.3,1.1,0.6,1.7,0.9
			l-9.6,17.7H277.5z M304,441.4v-2.1v-93.6l64,12.8v93v2.7L304,441.4z M384,456v-4.6V360h16v90.4v5.6H384z M425.6,479.8
			c-0.8,0.1-1.7,0.2-2.5,0.2c-5.8,0-11.2-3.1-14.1-8.1c0.2,0,0.3,0,0.4-0.1c0.1,0,0.1,0,0.2,0h0l0.1,0l16.4-3.3
			c1.8,3.2,4.6,5.7,8.1,7C431.8,477.8,428.8,479.3,425.6,479.8z M472,455.3l-32,5.3v-18.3v-11.4c0-1.2,0.9-2.2,2-2.4l27.2-4.5
			c0.1,0,0.3,0,0.4,0c1.3,0,2.4,1.1,2.4,2.4l0,9.5L472,455.3L472,455.3z"/>
	</g>
</g>
</svg>
