<?xml version="1.0" encoding="utf-8"?>
<!-- Generator: Adobe Illustrator 25.0.0, SVG Export Plug-In . SVG Version: 6.00 Build 0)  -->
<svg version="1.1" id="Layer_1" xmlns="http://www.w3.org/2000/svg" xmlns:xlink="http://www.w3.org/1999/xlink" x="0px" y="0px"
	 viewBox="0 0 512 512" style="enable-background:new 0 0 512 512;" xml:space="preserve">
<style type="text/css">
	.st0{fill:#8D6AD9;}
	.st1{fill:#404040;}
</style>
<g id="Outline">
	<polygon class="st0" points="223.6,177.1 222.1,173.1 220,171.2 217.7,170.4 213.4,170.4 204.4,170.9 211.6,161.3 213.3,157.7 
		212,152 207.1,147.4 198.3,139.5 189.3,131.3 185.1,129.5 182.5,129.8 178.1,132.9 174.5,137.1 174.3,127.3 173.1,122.1 
		171.2,120.1 166.9,118.8 154.8,119 143.1,119.2 136.4,119.5 131.7,123 130.7,126.8 130,138.9 123.5,132.6 120.3,129.7 118,128.9 
		115.2,128.9 111.5,131 97.3,145.9 89.4,155.8 89.5,159.1 91.5,162.7 99.8,170.8 101.4,172.5 91.6,171.7 86.1,172.3 84,173.9 
		82.2,177.9 81.2,189.4 80.3,200.6 79.9,207 83,211.9 86.8,213.2 99,215.1 91.9,220.6 88.7,223.4 87.6,225.6 87.4,228.2 89.2,232 
		102.9,247 112.2,255.5 115.6,255.8 119.4,254.3 128.4,247.2 130.3,245.9 130.3,256.9 131.4,262.1 133.3,264.1 137.5,265.6 
		161.4,265.6 168.1,265.4 172.8,262 173.9,258.2 174.8,246.1 181.2,252.6 184.4,255.5 186.7,256.4 189.4,256.4 193.2,254.4 
		207.6,239.8 215.7,230 215.7,226.7 213.7,223.1 205.9,215.2 206.9,215 218.4,214.4 222.2,213 224.4,210.5 224.8,197.8 	"/>
	<rect x="48" y="104" class="st1" width="16" height="16"/>
	<rect x="80" y="104" class="st1" width="16" height="16"/>
	<rect x="112" y="104" class="st1" width="16" height="16"/>
	<path class="st1" d="M168,168c-17.7,0-32,14.3-32,32s14.3,32,32,32s32-14.3,32-32C200,182.3,185.7,168,168,168z M168,216
		c-8.8,0-16-7.2-16-16s7.2-16,16-16s16,7.2,16,16C184,208.8,176.8,216,168,216z"/>
	<path class="st1" d="M447.9,298.2l-48.5-6.9l-15.5-8.1v-32.7c0.8-0.6,1.6-1.2,2.3-1.8c12.6-9.9,21.6-23.6,25.5-39.2
		c2.1-8.4,3.4-16.9,3.9-25.5h0.2c17.7,0,32-14.3,32-32c0-14.3-9.5-26.9-23.3-30.8c1.6-6.1,1.4-12.6-0.7-18.6V72
		c0-30.9-25.1-56-56-56h-64c-30.9,0-56,25.1-56,56H48c-17.7,0-32,14.3-32,32v216c0,17.7,14.3,32,32,32h84.9l-10.7,32H112
		c-13.2,0.1-23.9,10.8-24,24c0,13.2,10.8,24,24,24h64v56h16v-72h48v72h16V376h-16v24h-48v-46.4c0.1-19.9,14.7-36.7,34.3-39.6l42.2-6
		l11.6,61.4c0.7,3.8,4,6.5,7.9,6.5c2.8,0,7.2-2.6,7.2-2.6l32.8-16.4V424h16v-67.1l36.4,18.2c4,2,8.8,0.4,10.7-3.6
		c0.3-0.7,0.6-1.4,0.7-2.1l11.6-61.5l42.2,6c19.6,2.9,34.2,19.7,34.4,39.6V400h-48v-24h-16v112h16v-72h48v72h16V353.6
		C495.8,325.8,475.4,302.3,447.9,298.2z M336,330.2l-32-44.8v-26.3c1.9,0.7,3.8,1.4,5.7,1.9c6.6,2,13.4,3,20.3,3h12
		c8.9,0,17.7-1.6,26-4.9v26.3L336,330.2z M396.3,205.6c-3,12.1-10,22.8-19.9,30.5l-0.1,0.1c-1.4,1.1-2.9,2.2-4.5,3.1
		c0,0-0.1,0.1-0.1,0.1c-8.9,5.6-19.2,8.6-29.7,8.6h-12c-5.3,0-10.6-0.8-15.7-2.3l-0.2,0c-4.9-1.4-9.6-3.5-13.9-6.3
		c-12.3-7.6-21.1-19.8-24.6-33.8c-2.5-9.7-3.7-19.6-3.7-29.5v-31.4c3.9,0.8,7.9,0.9,11.8,0.2l4.9-0.8c-2.2,6.2,1,13.1,7.3,15.3
		c6.2,2.2,13.1-1,15.3-7.3c1.4-3.9,0.7-8.2-1.9-11.5c17.6-2.6,35.5-2.6,53.2,0c-4.1,5.2-3.2,12.7,2,16.9c5.2,4.1,12.7,3.2,16.9-2
		c2.6-3.2,3.3-7.6,1.9-11.5c0.7,1.9,14.2,1.1,16.8,0.6c-0.4,10.4-0.1,20.9-0.1,31.4C400,186,398.8,195.9,396.3,205.6L396.3,205.6z
		 M244.7,163.3c-6.3-6.2-6.3-16.4,0-22.6c3-3,7-4.7,11.3-4.7l0.1,0.1V168C251.8,168,247.7,166.3,244.7,163.3z M211.6,232.3l7.3,7.3
		l-11.3,11.3l-7.3-7.3c-2.5-2.5-6.4-3.1-9.5-1.4c-2.9,1.6-6,2.8-9.1,3.8c-3.4,1-5.7,4.1-5.7,7.7V264h-16v-10.4
		c0-3.5-2.3-6.7-5.7-7.7c-3.2-0.9-6.2-2.2-9.1-3.8c-3.1-1.7-7-1.1-9.5,1.4l-7.3,7.3l-11.3-11.3l7.3-7.3c2.5-2.5,3.1-6.4,1.4-9.5
		c-1.6-2.9-2.8-6-3.8-9.1c-1-3.4-4.1-5.7-7.7-5.7H104v-16h10.3c3.5,0,6.7-2.3,7.7-5.7c0.9-3.2,2.2-6.2,3.8-9.1
		c1.7-3.1,1.1-7-1.4-9.5l-7.3-7.3l11.3-11.3l7.3,7.3c2.5,2.5,6.4,3.1,9.5,1.4c2.9-1.6,6-2.8,9.1-3.7c3.4-1,5.7-4.1,5.7-7.7V136h16
		v10.4c0,3.5,2.3,6.7,5.7,7.7c3.2,0.9,6.2,2.2,9.1,3.7c3.1,1.7,7,1.1,9.5-1.4l7.3-7.3l11.3,11.3l-7.3,7.3c-2.5,2.5-3.1,6.4-1.4,9.5
		c1.6,2.9,2.8,6,3.8,9.1c1,3.4,4.1,5.7,7.7,5.7H232v16h-10.4c-3.5,0-6.7,2.3-7.7,5.7c-0.9,3.2-2.2,6.2-3.8,9.1
		C208.5,225.9,209.1,229.8,211.6,232.3z M227.3,176c-0.1-0.3-0.3-0.7-0.4-1l3.6-3.6c0.9,1.1,1.8,2.2,2.8,3.2c0.5,0.5,1,0.9,1.5,1.4
		H227.3z M406.1,123.2c-3.7,4.6-9.5,6.8-15.3,5.8l-21.9-3.7c-21.8-3.6-44-3.6-65.8,0l-21.9,3.7c-8.9,1.5-17.2-4.5-18.7-13.4
		c-0.2-1.2-0.3-2.4-0.2-3.6h147.4C410,116,408.7,120,406.1,123.2L406.1,123.2z M432,152c0,8.8-7.2,16-16,16v-31.9
		c0,0,0.1-0.1,0.1-0.1C424.9,136.1,432,143.2,432,152z M264,72c0-22.1,17.9-40,40-40h64c22.1,0,40,17.9,40,40v24H264V72z M149.8,352
		H176c0,0.5,0,1.1,0,1.6V384h-36.9L149.8,352z M112,416c-4.4,0-8-3.6-8-8c0-2.1,0.8-4.1,2.3-5.5c0.1-0.1,0.1-0.1,0.2-0.2
		c1.5-1.5,3.5-2.3,5.5-2.3h64v16H112z M178.9,336H48c-8.8,0-16-7.2-16-16v-8h162.7C187.4,318.5,182,326.8,178.9,336z M272.4,291.3
		l-33,4.7H32V104c0-8.8,7.2-16,16-16h200v14.6c-2.1,6-2.3,12.5-0.7,18.6c-10.9,3.1-19.4,11.7-22.2,22.7l-11.8-11.8
		c-3.1-3.1-8.2-3.1-11.3,0c0,0,0,0,0,0l-9,9c-0.3-0.1-0.7-0.3-1-0.4V128c0-4.4-3.6-8-8-8h-32c-4.4,0-8,3.6-8,8v12.7
		c-0.3,0.1-0.7,0.3-1,0.4l-9-9c-3.1-3.1-8.2-3.1-11.3,0c0,0,0,0,0,0l-22.6,22.6c-3.1,3.1-3.1,8.2,0,11.3c0,0,0,0,0,0l9,9
		c-0.1,0.3-0.3,0.7-0.4,1H96c-4.4,0-8,3.6-8,8v32c0,4.4,3.6,8,8,8h12.7c0.1,0.3,0.3,0.7,0.4,1l-9,9c-3.1,3.1-3.1,8.2,0,11.3
		c0,0,0,0,0,0l22.6,22.6c3.1,3.1,8.2,3.1,11.3,0c0,0,0,0,0,0l9-9c0.3,0.1,0.7,0.3,1,0.4V272c0,4.4,3.6,8,8,8h32c4.4,0,8-3.6,8-8
		v-12.7c0.3-0.1,0.7-0.3,1-0.4l9,9c3.1,3.1,8.2,3.1,11.3,0c0,0,0,0,0,0l22.6-22.6c3.1-3.1,3.1-8.2,0-11.3c0,0,0,0,0,0l-9-9
		c0.1-0.3,0.3-0.7,0.4-1H240c4.4,0,8-3.6,8-8v-32c0-0.4,0-0.7-0.1-1.1c2.6,0.7,5.4,1.1,8.1,1.1h0.2c0.5,8.6,1.8,17.1,3.9,25.4
		c4.1,16.5,14,31.1,27.8,41v32.7L272.4,291.3z M293.9,356.1l-9.9-52.8l9.6-5L324,341L293.9,356.1z M378.1,356.1L347.9,341l30.5-42.7
		l9.6,5L378.1,356.1z"/>
	<rect x="312" y="64" class="st1" width="48" height="16"/>
	<rect x="304" y="384" class="st1" width="16" height="16"/>
</g>
<path class="st1" d="M423.5,72.5L423.5,72.5c-3.7-7.3-8.3-13.9-13.7-19.8c1.2,5.4,1.9,11,2.2,16.8c0.2,4.7-0.2,9.3-0.4,13.9
	c0,0.5,0,1,0,1.6c3.5,8.5,5.3,17.7,5.3,27.1h0v8l-6.3-0.3c-1,11.5-2.6,22.9-4.4,34.3c2.6,7.7,4,15.9,4.4,24
	c0.3,7.3-0.8,14.3-3.3,20.9c-0.3,3.2-0.9,6.3-1.8,9.4c0.8,1.6,1.6,3.2,2.3,4.9c0.7-1.3,1.3-2.5,1.9-3.8
	c4.6,26.9,27.9,46.6,55.2,46.7c4.4,0,8-3.6,8-8v-120C472.9,99.7,451.7,75.9,423.5,72.5z M416.9,136.1c8.8,0,16,7.2,16,16
	c0,8.8-7.2,16-16,16V136.1z M456.9,239.3c-18.6-3.8-32-20.2-32-39.2v-17c17.1-4.4,27.4-21.9,23-39c-2.1-8.3-7.5-15.4-15-19.7v-12.3
	c0-7.3-0.9-14.6-2.7-21.7c16,5.7,26.7,20.8,26.7,37.7V239.3z"/>
<path class="st1" d="M336,196c-4.4,0-8-3.6-8-8h-16c0,13.3,10.7,24,24,24s24-10.7,24-24h-16C344,192.4,340.4,196,336,196z"/>
</svg>
