<?xml version="1.0" encoding="utf-8"?>
<!-- Generator: Adobe Illustrator 25.0.0, SVG Export Plug-In . SVG Version: 6.00 Build 0)  -->
<svg version="1.1" xmlns="http://www.w3.org/2000/svg" xmlns:xlink="http://www.w3.org/1999/xlink" x="0px" y="0px"
	 viewBox="0 0 512 512" style="enable-background:new 0 0 512 512;" xml:space="preserve">
<style type="text/css">
	.st0{fill:#8D6AD9;}
	.st1{fill:#404040;}
</style>
<g id="Layer_2">
	<path class="st0" d="M399,429.3l-90.2,0.4l-12.7,3.1l-15.6,9.6l-15,1.6l-14-2.6l-10.2-4.7l-9.2-7.3l-7.4-10.2l-4-11.1
		c0,0-0.3-5.2-0.3-5.3c0,0-0.4-5.9-0.4-5.9c1.6-5.4,3.2-10.9,4.8-16.3l7.4-10l7.3-6.1l12.1-5.9l11.7-2.4H276l11.8,3.8l10,5.6
		l5.7,3.2l6.1,1.6l94.3,0.3l7.9-3.4l7.5-4.9l9.3-4l10-2.1h11.1l14,3.5L476,367l7.7,8.1l5.6,10.1l2.7,10l-0.2,8.5l-1.3,7.3l-2.6,6.9
		l-6,9.2l-8.5,7.8l-10,5.5l-12.9,3.3l-11.9,0.3l-10.6-2.5l-12-5.9l-7.3-4.4C405.4,430.5,402.2,429.9,399,429.3
		c-45.9-9.1-89.5-21.3-130.6-35.7"/>
</g>
<g id="Layer_1">
	<g id="Trainer">
		<path class="st1" d="M344,104c0.2,0,0.5,0,0.8,0c9.2-0.9,31.4-3.6,39.2-10.2c10.2-8.5,11.5-23.7,3-33.8
			c-8.5-10.2-23.7-11.5-33.8-3c-7.8,6.6-14.4,28-16.8,36.8c-1.2,4.3,1.3,8.7,5.6,9.9C342.6,103.9,343.3,104,344,104z M363.4,69.3
			c3.3-2.9,8.4-2.6,11.3,0.7c2.9,3.3,2.6,8.4-0.7,11.3c-0.1,0.1-0.2,0.2-0.3,0.2c-5.8,2.6-12,4.3-18.3,4.9
			C357.1,80.4,359.8,74.6,363.4,69.3z"/>
		<path class="st1" d="M379.7,125.9c-10.1-1.7-30.6,7-39,10.8c-4,1.8-5.8,6.6-3.9,10.6c0.4,0.9,1,1.7,1.6,2.3
			c6.6,6.5,22.9,21.7,33,23.5c13.1,2.3,25.5-6.4,27.8-19.5C401.4,140.7,392.7,128.2,379.7,125.9z M374.1,157.4
			c-5.7-2.8-11-6.4-15.5-10.9c5.8-2.6,12-4.2,18.3-4.9c4.4,0.6,7.4,4.7,6.8,9.1s-4.7,7.4-9.1,6.8
			C374.5,157.5,374.3,157.5,374.1,157.4L374.1,157.4z"/>
		<path class="st1" d="M32,65.3L32,65.3c8.4,5.9,30.7,6.6,40,6.7h0c4.4,0,8-3.6,8-8c0-0.9-0.2-1.9-0.5-2.8
			C76.3,52.6,67.9,31.9,59.6,26c-11-7.3-25.9-4.4-33.3,6.7C19.2,43.3,21.7,57.7,32,65.3z M39.2,41.1c2.5-3.6,7.5-4.5,11.1-2
			c0,0,0,0,0.1,0c4,4.9,7.2,10.5,9.4,16.4c-6.4-0.1-12.7-1.2-18.7-3.3C37.6,49.7,36.7,44.7,39.2,41.1z"/>
		<path class="st1" d="M37.8,146.3c4.9,0,9.7-1.5,13.7-4.3c8.4-5.9,16.7-26.6,19.9-35.2c0.9-2.5,0.6-5.2-0.9-7.4
			c-1.5-2.1-4-3.4-6.6-3.4c-9.2,0.1-31.6,0.8-39.9,6.7h0c-10.9,7.6-13.5,22.6-5.9,33.4C22.6,142.5,30,146.3,37.8,146.3L37.8,146.3z
			 M33.2,115.8c6-2.1,12.3-3.2,18.7-3.3c-2.3,5.9-5.5,11.5-9.5,16.4c-3.6,2.5-8.6,1.7-11.1-2C28.7,123.3,29.6,118.3,33.2,115.8
			L33.2,115.8z"/>
		<path class="st1" d="M494.9,405.8c-4.1-18.9-19.1-33.5-38-37c-13.7-2.6-27.8,0.9-38.6,9.6c-4.3,3.5-9.7,5.5-15.3,5.6h-51.7
			c-4.2-34.3-28.1-62.9-61.1-73.2L224,290.1v-27.8c13.5-6.9,24.9-17.1,33.3-29.7c16.4,10.2,35.4,15.5,54.7,15.5c4.4,0,8-3.6,8-8V128
			c-0.1-29.7-15.2-57.4-40.2-73.6C279,41.2,267.7,31.2,254.5,32c-4.9,0.3-9.6,2.1-13.4,5.1c-36.8-31.6-92.3-27.4-123.9,9.5
			C103.5,62.6,96,83,96,104v24c-13.3,0-24,10.7-24,24s10.7,24,24,24v8c0,33,18.6,63.3,48,78.3v27.8l-66.2,20.7
			c-36.8,11.3-61.9,45.4-61.8,84c0.3,32.3,0.6,64.5,0.9,96.8c2-0.2,4.3-0.2,7,0c2.3,0.2,4.4,0.6,6.1,1c0.7-32.6,1.4-65.2,2-97.8
			c-0.1-31.5,20.4-59.4,50.6-68.7l10.8-3.4l-2.1,21.3c-1.3,12.6-6.8,24.4-15.6,33.4C62.6,392.7,55.7,412,56,432
			c-0.1,17.1,4.9,33.8,14.3,48c1.2,1.6,2.5,4,2.5,7c0,2.3-0.8,3.7,0,4.6c0.8,0.8,1.9,0.2,6.5,0c1.2-0.1,2.6-0.1,4.3,0
			c2,0.1,2.7,0.3,3.2,0.1c0.2,0,0.3-0.1,0.4-0.1c2-1,1-8.2,0.9-8.7c-0.3-2.4-1.1-5.9-2.7-10.1c-4-5.6-9.9-15.5-12.3-29
			c-0.4-2.1-1-6.6-1.1-11.9c-0.3-15.7,5-31.1,15-43.3c11.4-11.7,18.5-26.8,20.1-43.1l2.8-28.1l18.1-5.7v8.1c0,30.9,25.1,56,56,56
			c30.9,0,56-25.1,56-56v-8.1l18.1,5.7l2.8,28.1c0.8,7.8,3,15.5,6.3,22.6c-1.4,0.1-2.7,0.3-4.1,0.5c-26.1,4.9-43.2,29.9-38.4,56
			c4.3,22.8,24.1,39.2,47.3,39.2c6.3,0,12.6-1.3,18.4-3.8c-2.9,3.1-7.1,8.4-10.1,15.8c-2.5,6.2-3.4,11.7-3.7,15.6c1.2,0,2.4,0,3.6,0
			c3.7,0,7.5,0,11.2,0c0.1-1.6,0.4-3.7,1-6.1c0.3-1.1,0.7-2.6,1.4-4.3c1.8-4.6,3.7-7.1,6.3-11.5c2.6-4.5,3.8-6.7,4.6-9.2
			c0.6-2,4.6-11.4,2.6-12.8c-0.5-0.3-2.2-0.8-9.2,6.1c7.5-3.2,13.2-5.1,14.8-5.4c1.5-0.3,2.8-0.4,2.8-0.4c0.5,0,0.9,0,1.4-0.1h19v32
			c0.2,2.1,0.2,4.6-0.2,7.5c-0.2,1.5-0.5,2.9-0.9,4.1c2.5,0,5,0,7.5,0c3.4,0,6.8,0,10.2,0c-0.2-14.5-0.5-29-0.7-43.6h51
			c5.5,0,10.8,1.9,15,5.3c8.5,6.9,19.1,10.7,30,10.7c26.5,0,48-21.5,48-48.1C496,412.5,495.7,409.1,494.9,405.8z M96,160
			c-4.4,0-8-3.6-8-8s3.6-8,8-8V160z M296,152c0-13.3-10.7-24-24-24v-24c0-9.2-1.5-18.4-4.3-27.1c1.3-0.7,2.6-1.6,3.7-2.6
			c1.4-1.2,2.6-2.5,3.6-3.9C293.2,84,304,105.3,304,128v103.6c-13.9-1.3-27.2-5.9-39-13.4c4.6-10.8,7-22.5,7-34.3v-8
			C285.3,176,296,165.3,296,152z M272,160v-16c4.4,0,8,3.6,8,8S276.4,160,272,160z M256,48c4.4,0,8,3.6,8,8c0,0.4,0,0.9-0.1,1.3
			c-0.3,1.8-1.2,3.4-2.6,4.6c-2.5-4.6-5.5-9-8.8-13C253.6,48.3,254.8,48,256,48z M184,32c36.6,0.1,67.4,27.6,71.5,64H112.5
			C116.6,59.6,147.4,32.1,184,32z M112,112h144v16H112V112z M112,184v-40h144v40c0,39.8-32.2,72-72,72S112,223.8,112,184z M224,320
			c0,22.1-17.9,40-40,40c-22.1,0-40-17.9-40-40v-13.1l10.4-3.2c3.3-1,5.6-4.1,5.6-7.6v-27.4c15.7,4.5,32.3,4.5,48,0V296
			c0,3.5,2.3,6.6,5.6,7.6l10.4,3.3V320z M320,432h-3c-9.1,0-18,3.2-25.1,8.9c-5.6,4.6-12.6,7.1-19.9,7.1
			c-17.7,0.1-32.1-14.2-32.1-31.9c-0.1-15.4,10.9-28.7,26.1-31.6c9.1-1.8,18.5,0.6,25.8,6.4c7.2,5.8,16.1,9,25.3,9h3V432z M317,384
			c-5.6-0.1-10.9-2-15.3-5.5c-4.5-3.6-9.6-6.3-15-8.1c-5.5-7.8-9-16.8-9.9-26.3l-2.1-21.3l10.8,3.4c26.3,8.2,45.5,30.7,49.6,57.9
			H317z M352,432h-16v-32h16V432z M384,432h-16v-32h16V432z M479.4,422c-1,5.2-3.3,10.1-6.6,14.2c-6.1,7.5-15.2,11.8-24.8,11.8
			c-7.3,0-14.3-2.5-19.9-7.1c-7.1-5.7-15.9-8.9-25.1-8.9h-3v-32h3c9.2-0.1,18.1-3.3,25.3-9c7.2-5.8,16.7-8.2,25.8-6.4
			C471.4,387.9,482.7,404.7,479.4,422z"/>
		<path class="st1" d="M448,424v16c13.3,0,24-10.7,24-24h-16C456,420.4,452.4,424,448,424z"/>
		<path class="st1" d="M220,152c-6.6,0-12,5.4-12,12s5.4,12,12,12s12-5.4,12-12C232,157.4,226.6,152,220,152z"/>
		<path class="st1" d="M184,208c-4.4,0-8-3.6-8-8h-16c0,13.3,10.7,24,24,24s24-10.7,24-24h-16C192,204.4,188.4,208,184,208z"/>
		<path class="st1" d="M150,152c-6.6,0-12,5.4-12,12s5.4,12,12,12s12-5.4,12-12C162,157.4,156.6,152,150,152z"/>
	</g>
</g>
</svg>
